<?xml version="1.0" encoding="UTF-8" standalone="no"?>
<svg width="64px" height="64px" viewBox="0 0 64 64" version="1.1" xmlns="http://www.w3.org/2000/svg" xmlns:xlink="http://www.w3.org/1999/xlink">
    <!-- Generator: Sketch 3.7.2 (28276) - http://www.bohemiancoding.com/sketch -->
    <title>account</title>
    <desc>Created with Sketch.</desc>
    <defs></defs>
    <g id="Page-1" stroke="none" stroke-width="1" fill="none" fill-rule="evenodd">
        <g id="account" fill="#000000">
            <path d="M46.8514,46.1246 C45.2324,44.5066 43.2614,42.8626 41.4904,41.4756 C44.2564,38.3706 46.0004,33.9396 46.0004,29.0036 C46.0004,19.6136 39.7314,12.0036 32.0004,12.0036 C24.2684,12.0036 18.0004,19.6136 18.0004,29.0036 C18.0004,33.9396 19.7424,38.3706 22.5094,41.4756 C20.7374,42.8626 18.7664,44.5066 17.1484,46.1246 C14.7594,48.5136 13.2894,50.8296 12.5584,52.1406 C7.2854,47.0486 4.0004,39.9106 4.0004,31.9996 C4.0004,16.5386 16.5364,3.9996 32.0004,3.9996 C47.4634,3.9996 60.0004,16.5386 60.0004,31.9996 C60.0004,39.9106 56.7144,47.0486 51.4414,52.1406 C50.7114,50.8296 49.2404,48.5136 46.8514,46.1246 Z M22.0004,29.0036 C22.0004,21.8246 26.4774,16.0036 32.0004,16.0036 C37.5224,16.0036 42.0004,21.8246 42.0004,29.0036 C42.0004,36.1836 37.5224,42.0036 32.0004,42.0036 C26.4774,42.0036 22.0004,36.1836 22.0004,29.0036 M32.0004,59.9996 C25.8324,59.9996 20.1344,58.0016 15.5074,54.6226 C16.3154,53.2446 17.8044,51.0116 20.0814,48.7346 C21.7224,47.0926 23.7254,45.4336 25.5034,44.0556 C27.4454,45.2936 29.6534,46.0036 32.0004,46.0036 C34.3464,46.0036 36.5544,45.2936 38.4964,44.0556 C40.2744,45.4336 42.2764,47.0926 43.9184,48.7346 C46.1954,51.0116 47.6844,53.2446 48.4914,54.6226 C43.8654,58.0016 38.1674,59.9996 32.0004,59.9996 M32.0004,-0.0004 C14.3264,-0.0004 0.0004,14.3276 0.0004,31.9996 C0.0004,49.6756 14.3264,63.9996 32.0004,63.9996 C49.6724,63.9996 64.0004,49.6756 64.0004,31.9996 C64.0004,14.3276 49.6724,-0.0004 32.0004,-0.0004" id="Fill-1"></path>
        </g>
    </g>
</svg>