<?xml version="1.0" encoding="UTF-8" standalone="no"?>
<svg width="64px" height="64px" viewBox="0 0 64 64" version="1.1" xmlns="http://www.w3.org/2000/svg" xmlns:xlink="http://www.w3.org/1999/xlink" xmlns:sketch="http://www.bohemiancoding.com/sketch/ns">
    <!-- Generator: Sketch 3.2.2 (9983) - http://www.bohemiancoding.com/sketch -->
    <title>arobase</title>
    <desc>Created with Sketch.</desc>
    <defs></defs>
    <g id="Page-1" stroke="none" stroke-width="1" fill="none" fill-rule="evenodd" sketch:type="MSPage">
        <g id="arobase" sketch:type="MSArtboardGroup" fill="#000000">
            <path d="M62.7507533,26.256 L62.7113686,26.258 C61.5987533,19.891 58.6212763,14.029 54.0369071,9.338 C48.0908148,3.252 40.1666302,0 31.7255225,0 L31.6004763,0 C14.2426917,0 0.0671840285,14.246 0.00023018232,31.877 C-0.0657390484,49.575 14.0565994,64 31.4823225,64 L31.6053994,64 C48.0061379,64 61.5573994,51.215 63.0618917,34.937 C63.3474302,32.441 63.286384,29.576 62.7507533,26.256 L62.7507533,26.256 Z M31.6053994,60 L31.4980763,60 C16.2424456,60 3.88059941,47.384 3.93869172,31.892 C3.99776864,16.458 16.4058917,4 31.6004763,4 L31.7097686,4 C39.0993071,4 46.0359225,6.855 51.2405994,12.182 C56.4472456,17.509 59.2977071,24.453 59.2691533,31.958 C59.2642302,33.187 59.172661,34.396 59.0161071,35.585 C56.7613379,47.203 43.5537071,46.499 41.2053994,44.859 C41.7233071,32.92 46.8403533,14.877 46.8403533,14.877 L41.0202917,14.854 L39.9332763,19.974 C38.7980148,18.042 37.387061,16.554 35.6984456,15.507 C34.0098302,14.46 32.1843533,13.933 30.2229994,13.926 C28.0243533,13.917 25.9143225,14.5 23.8948763,15.674 C21.8744456,16.849 20.068661,18.451 18.4765379,20.481 C16.8844148,22.511 15.6309994,24.761 14.7162917,27.232 C13.801584,29.702 13.3388148,32.174 13.3299533,34.649 C13.3191225,37.473 13.827184,40.026 14.8531533,42.307 C15.8791225,44.588 17.3009071,46.367 19.1175225,47.644 C20.9341379,48.921 22.9309379,49.563 25.1089071,49.572 C29.6794917,49.854 36.4428148,44.752 36.5964148,43.317 C36.3413994,45.698 35.6551225,47.221 36.3985071,48.253 C37.4914302,49.768 46.8413379,51.542 54.2042917,48.03 C49.1866917,55.255 40.9228148,60 31.6053994,60 L31.6053994,60 Z M38.0260763,28.374 C38.0181994,30.585 37.6647225,32.685 36.9676148,34.675 C36.2705071,36.665 35.3528456,38.413 34.2156148,39.919 C33.0773994,41.425 31.8121686,42.603 30.4189379,43.451 C29.0247225,44.3 27.6817071,44.721 26.3879225,44.716 C25.0084763,44.711 23.780661,44.317 22.7064456,43.536 C21.6312456,42.755 20.7893994,41.651 20.1799225,40.226 C19.5714302,38.8 19.2701379,37.124 19.2780148,35.197 C19.2868763,32.767 19.787061,30.257 20.777584,27.666 C21.7681071,25.075 23.1229379,22.946 24.8440456,21.278 C26.5641686,19.609 28.4585686,18.779 30.5282302,18.787 C32.8135225,18.796 34.6370302,19.652 35.9997379,21.354 C37.361461,23.056 38.0378917,25.396 38.0260763,28.374 L38.0260763,28.374 Z" id="Imported-Layers" sketch:type="MSShapeGroup"></path>
        </g>
    </g>
</svg>