<?xml version="1.0" encoding="UTF-8" standalone="no"?>
<svg width="64px" height="64px" viewBox="0 0 64 64" version="1.1" xmlns="http://www.w3.org/2000/svg" xmlns:xlink="http://www.w3.org/1999/xlink" xmlns:sketch="http://www.bohemiancoding.com/sketch/ns">
    <!-- Generator: Sketch 3.2.2 (9983) - http://www.bohemiancoding.com/sketch -->
    <title>arrow-left</title>
    <desc>Created with Sketch.</desc>
    <defs></defs>
    <g id="Page-1" stroke="none" stroke-width="1" fill="none" fill-rule="evenodd" sketch:type="MSPage">
        <g id="arrow-left" sketch:type="MSArtboardGroup" fill="#000000">
            <path d="M60.6315789,28.6865011 L7.97529825,28.6865011 L28.5518596,9.78476778 C29.4074386,8.92116778 29.4074386,7.51470112 28.5518596,6.64883445 C27.6951579,5.78523445 26.3062456,5.78296778 25.4506667,6.64656778 L1.18568421,28.9211011 C0.990315789,29.0231011 0.803929825,29.1455011 0.64,29.3109678 C0.202105263,29.7529678 -0.00785964912,30.3355011 0.00112280702,30.9135011 C0.00112280702,30.9191678 0,30.9248344 0,30.9305011 C0,30.9361678 0.00112280702,30.9407011 0.00112280702,30.9463678 C-0.00785964912,31.5255011 0.202105263,32.1069011 0.64,32.5511678 C0.803929825,32.7155011 0.990315789,32.8390344 1.18568421,32.9410344 L25.4506667,55.2167011 C26.3062456,56.0803011 27.6951579,56.0803011 28.5518596,55.2167011 C29.4074386,54.3497011 29.4074386,52.9636344 28.5518596,52.1000344 L7.97305263,33.2198344 L60.6315789,33.2198344 C61.8711579,33.2198344 62.877193,32.2055011 62.877193,30.9543011 C62.877193,29.7042344 61.8711579,28.6865011 60.6315789,28.6865011" id="Imported-Layers" sketch:type="MSShapeGroup"></path>
        </g>
    </g>
</svg>