<?xml version="1.0" encoding="UTF-8" standalone="no"?>
<svg width="64px" height="64px" viewBox="0 0 64 64" version="1.1" xmlns="http://www.w3.org/2000/svg" xmlns:xlink="http://www.w3.org/1999/xlink" xmlns:sketch="http://www.bohemiancoding.com/sketch/ns">
    <!-- Generator: Sketch 3.2 (9961) - http://www.bohemiancoding.com/sketch -->
    <title>arrow-top</title>
    <desc>Created with Sketch.</desc>
    <defs></defs>
    <g id="Page-1" stroke="none" stroke-width="1" fill="none" fill-rule="evenodd" sketch:type="MSPage">
        <g id="arrow-top" sketch:type="MSArtboardGroup" fill="#000000">
            <path d="M60.1315789,29.1865011 L7.47529825,29.1865011 L28.0518596,10.2847678 C28.9074386,9.42116778 28.9074386,8.01470112 28.0518596,7.14883445 C27.1951579,6.28523445 25.8062456,6.28296778 24.9506667,7.14656778 L0.685684211,29.4211011 C0.490315789,29.5231011 0.303929825,29.6455011 0.14,29.8109678 C-0.297894737,30.2529678 -0.507859649,30.8355011 -0.498877193,31.4135011 C-0.498877193,31.4191678 -0.5,31.4248344 -0.5,31.4305011 C-0.5,31.4361678 -0.498877193,31.4407011 -0.498877193,31.4463678 C-0.507859649,32.0255011 -0.297894737,32.6069011 0.14,33.0511678 C0.303929825,33.2155011 0.490315789,33.3390344 0.685684211,33.4410344 L24.9506667,55.7167011 C25.8062456,56.5803011 27.1951579,56.5803011 28.0518596,55.7167011 C28.9074386,54.8497011 28.9074386,53.4636344 28.0518596,52.6000344 L7.47305263,33.7198344 L60.1315789,33.7198344 C61.3711579,33.7198344 62.377193,32.7055011 62.377193,31.4543011 C62.377193,30.2042344 61.3711579,29.1865011 60.1315789,29.1865011" id="Imported-Layers-3" sketch:type="MSShapeGroup" transform="translate(31.500000, 32.000000) rotate(-270.000000) translate(-31.500000, -32.000000) "></path>
        </g>
    </g>
</svg>