<?xml version="1.0" encoding="UTF-8" standalone="no"?>
<svg width="51px" height="64px" viewBox="0 0 51 64" version="1.1" xmlns="http://www.w3.org/2000/svg" xmlns:xlink="http://www.w3.org/1999/xlink" xmlns:sketch="http://www.bohemiancoding.com/sketch/ns">
    <!-- Generator: Sketch 3.1.1 (8761) - http://www.bohemiancoding.com/sketch -->
    <title>arrow-down</title>
    <desc>Created with Sketch.</desc>
    <defs></defs>
    <g id="Page-1" stroke="none" stroke-width="1" fill="none" fill-rule="evenodd" sketch:type="MSPage">
        <g id="arrow-down" sketch:type="MSArtboardGroup" fill="#000000">
            <path d="M54.1315789,29.1865011 L1.47529825,29.1865011 L22.0518596,10.2847678 C22.9074386,9.42116778 22.9074386,8.01470112 22.0518596,7.14883445 C21.1951579,6.28523445 19.8062456,6.28296778 18.9506667,7.14656778 L-5.31431579,29.4211011 C-5.50968421,29.5231011 -5.69607018,29.6455011 -5.86,29.8109678 C-6.29789474,30.2529678 -6.50785965,30.8355011 -6.49887719,31.4135011 C-6.49887719,31.4191678 -6.5,31.4248344 -6.5,31.4305011 C-6.5,31.4361678 -6.49887719,31.4407011 -6.49887719,31.4463678 C-6.50785965,32.0255011 -6.29789474,32.6069011 -5.86,33.0511678 C-5.69607018,33.2155011 -5.50968421,33.3390344 -5.31431579,33.4410344 L18.9506667,55.7167011 C19.8062456,56.5803011 21.1951579,56.5803011 22.0518596,55.7167011 C22.9074386,54.8497011 22.9074386,53.4636344 22.0518596,52.6000344 L1.47305263,33.7198344 L54.1315789,33.7198344 C55.3711579,33.7198344 56.377193,32.7055011 56.377193,31.4543011 C56.377193,30.2042344 55.3711579,29.1865011 54.1315789,29.1865011" id="Imported-Layers-2" sketch:type="MSShapeGroup" transform="translate(25.500000, 32.000000) rotate(-90.000000) translate(-25.500000, -32.000000) "></path>
        </g>
    </g>
</svg>