<?xml version="1.0" encoding="UTF-8" standalone="no"?>
<svg width="64px" height="64px" viewBox="0 0 64 64" version="1.1" xmlns="http://www.w3.org/2000/svg" xmlns:xlink="http://www.w3.org/1999/xlink" xmlns:sketch="http://www.bohemiancoding.com/sketch/ns">
    <!-- Generator: Sketch 3.1.1 (8761) - http://www.bohemiancoding.com/sketch -->
    <title>arrow-left</title>
    <desc>Created with Sketch.</desc>
    <defs></defs>
    <g id="Page-1" stroke="none" stroke-width="1" fill="none" fill-rule="evenodd" sketch:type="MSPage">
        <g id="arrow-left" sketch:type="MSArtboardGroup" fill="#000000">
            <path d="M60.6315789,29.6865011 L7.97529825,29.6865011 L28.5518596,10.7847678 C29.4074386,9.92116778 29.4074386,8.51470112 28.5518596,7.64883445 C27.6951579,6.78523445 26.3062456,6.78296778 25.4506667,7.64656778 L1.18568421,29.9211011 C0.990315789,30.0231011 0.803929825,30.1455011 0.64,30.3109678 C0.202105263,30.7529678 -0.00785964912,31.3355011 0.00112280702,31.9135011 C0.00112280702,31.9191678 0,31.9248344 0,31.9305011 C0,31.9361678 0.00112280702,31.9407011 0.00112280702,31.9463678 C-0.00785964912,32.5255011 0.202105263,33.1069011 0.64,33.5511678 C0.803929825,33.7155011 0.990315789,33.8390344 1.18568421,33.9410344 L25.4506667,56.2167011 C26.3062456,57.0803011 27.6951579,57.0803011 28.5518596,56.2167011 C29.4074386,55.3497011 29.4074386,53.9636344 28.5518596,53.1000344 L7.97305263,34.2198344 L60.6315789,34.2198344 C61.8711579,34.2198344 62.877193,33.2055011 62.877193,31.9543011 C62.877193,30.7042344 61.8711579,29.6865011 60.6315789,29.6865011" id="Imported-Layers" sketch:type="MSShapeGroup"></path>
        </g>
    </g>
</svg>