<?xml version="1.0" encoding="UTF-8" standalone="no"?>
<svg width="64px" height="64px" viewBox="0 0 64 64" version="1.1" xmlns="http://www.w3.org/2000/svg" xmlns:xlink="http://www.w3.org/1999/xlink" xmlns:sketch="http://www.bohemiancoding.com/sketch/ns">
    <!-- Generator: Sketch 3.1.1 (8761) - http://www.bohemiancoding.com/sketch -->
    <title>arrow-down</title>
    <desc>Created with Sketch.</desc>
    <defs></defs>
    <g id="Page-1" stroke="none" stroke-width="1" fill="none" fill-rule="evenodd" sketch:type="MSPage">
        <g id="arrow-down" sketch:type="MSArtboardGroup" fill="#000000">
            <path d="M61.1315789,29.1865011 L8.47529825,29.1865011 L29.0518596,10.2847678 C29.9074386,9.42116778 29.9074386,8.01470112 29.0518596,7.14883445 C28.1951579,6.28523445 26.8062456,6.28296778 25.9506667,7.14656778 L1.68568421,29.4211011 C1.49031579,29.5231011 1.30392982,29.6455011 1.14,29.8109678 C0.702105263,30.2529678 0.492140351,30.8355011 0.501122807,31.4135011 C0.501122807,31.4191678 0.5,31.4248344 0.5,31.4305011 C0.5,31.4361678 0.501122807,31.4407011 0.501122807,31.4463678 C0.492140351,32.0255011 0.702105263,32.6069011 1.14,33.0511678 C1.30392982,33.2155011 1.49031579,33.3390344 1.68568421,33.4410344 L25.9506667,55.7167011 C26.8062456,56.5803011 28.1951579,56.5803011 29.0518596,55.7167011 C29.9074386,54.8497011 29.9074386,53.4636344 29.0518596,52.6000344 L8.47305263,33.7198344 L61.1315789,33.7198344 C62.3711579,33.7198344 63.377193,32.7055011 63.377193,31.4543011 C63.377193,30.2042344 62.3711579,29.1865011 61.1315789,29.1865011" id="Imported-Layers-2" sketch:type="MSShapeGroup" transform="translate(32.500000, 32.000000) rotate(-90.000000) translate(-32.500000, -32.000000) "></path>
        </g>
    </g>
</svg>