<?xml version="1.0" encoding="UTF-8" standalone="no"?>
<svg width="64px" height="51px" viewBox="0 0 64 51" version="1.1" xmlns="http://www.w3.org/2000/svg" xmlns:xlink="http://www.w3.org/1999/xlink" xmlns:sketch="http://www.bohemiancoding.com/sketch/ns">
    <!-- Generator: Sketch 3.1.1 (8761) - http://www.bohemiancoding.com/sketch -->
    <title>arrow-left</title>
    <desc>Created with Sketch.</desc>
    <defs></defs>
    <g id="Page-1" stroke="none" stroke-width="1" fill="none" fill-rule="evenodd" sketch:type="MSPage">
        <g id="arrow-left" sketch:type="MSArtboardGroup" fill="#000000">
            <path d="M60.6315789,22.6865011 L7.97529825,22.6865011 L28.5518596,3.78476778 C29.4074386,2.92116778 29.4074386,1.51470112 28.5518596,0.648834449 C27.6951579,-0.214765551 26.3062456,-0.217032218 25.4506667,0.646567782 L1.18568421,22.9211011 C0.990315789,23.0231011 0.803929825,23.1455011 0.64,23.3109678 C0.202105263,23.7529678 -0.00785964912,24.3355011 0.00112280702,24.9135011 C0.00112280702,24.9191678 0,24.9248344 0,24.9305011 C0,24.9361678 0.00112280702,24.9407011 0.00112280702,24.9463678 C-0.00785964912,25.5255011 0.202105263,26.1069011 0.64,26.5511678 C0.803929825,26.7155011 0.990315789,26.8390344 1.18568421,26.9410344 L25.4506667,49.2167011 C26.3062456,50.0803011 27.6951579,50.0803011 28.5518596,49.2167011 C29.4074386,48.3497011 29.4074386,46.9636344 28.5518596,46.1000344 L7.97305263,27.2198344 L60.6315789,27.2198344 C61.8711579,27.2198344 62.877193,26.2055011 62.877193,24.9543011 C62.877193,23.7042344 61.8711579,22.6865011 60.6315789,22.6865011" id="Imported-Layers" sketch:type="MSShapeGroup"></path>
        </g>
    </g>
</svg>