<?xml version="1.0" encoding="UTF-8" standalone="no"?>
<svg width="64px" height="64px" viewBox="0 0 64 64" version="1.1" xmlns="http://www.w3.org/2000/svg" xmlns:xlink="http://www.w3.org/1999/xlink" xmlns:sketch="http://www.bohemiancoding.com/sketch/ns">
    <!-- Generator: Sketch 3.3.1 (12002) - http://www.bohemiancoding.com/sketch -->
    <title>businesses</title>
    <desc>Created with Sketch.</desc>
    <defs></defs>
    <g id="Page-1" stroke="none" stroke-width="1" fill="none" fill-rule="evenodd" sketch:type="MSPage">
        <g id="businesses" sketch:type="MSArtboardGroup" fill="#000000">
            <path d="M44.0500205,29.6806599 C43.3302564,28.981101 42.2539118,28.981101 41.535091,29.6806599 L33.4488283,38.9539466 L33.4488283,14.4684669 C33.4488283,13.4530966 32.604544,12.6323543 31.5621594,12.6323543 C30.5207182,12.6323543 29.6754906,13.4530966 29.6754906,14.4684669 L29.6754906,38.9539466 L21.4099943,29.6806599 C20.6902302,28.981101 19.4780454,28.981101 18.7582813,29.6806599 C18.0385171,30.3820549 18.0158771,31.5167725 18.7356412,32.2163314 L29.6820939,44.6440595 C29.7707674,44.8295069 29.8820808,45.0057737 30.0386743,45.1581711 C30.4065748,45.515295 30.886732,45.6878895 31.3668892,45.6805451 C31.3734925,45.6805451 31.3772659,45.6823812 31.3829259,45.6823812 C31.3895292,45.6823812 31.3942459,45.6805451 31.3999059,45.6805451 C31.8810065,45.6869715 32.3630504,45.515295 32.7300074,45.1581711 C32.886601,45.0066918 33.0016878,44.831343 33.0903612,44.6468137 L44.0500205,32.2163314 C44.7688414,31.5167725 44.7688414,30.3820549 44.0500205,29.6806599" id="Fill-1" sketch:type="MSShapeGroup"></path>
            <path d="M54.1653869,47.7297251 C48.4858147,52.0954285 41.0876799,54.5956599 33.2238701,54.8312693 C32.0790856,56.1756287 30.3355762,57.6863007 27.6690323,59.2357789 C25.5263728,60.4858946 23.1564195,61.1178822 20.6229256,61.1178822 C18.0062754,61.1178822 16.0909097,60.4165977 15.7333378,60.278004 C13.6682908,59.4658446 12.3156157,57.3564476 12.6288376,55.1583506 C12.8893939,53.3344567 14.0813002,51.8681347 15.7471972,51.3137597 C11.5256313,49.3207815 7.91942172,46.5710813 5.22793094,43.2670061 C1.81575262,39.0842465 0.00849000983,34.2002025 0.00849000983,29.1498459 C0.00849000983,22.042758 3.50382459,15.4456951 9.84864683,10.5699667 C15.8192659,5.97974143 23.6886195,3.45179129 32.0070169,3.45179129 C40.3226424,3.45179129 48.191996,5.97974143 54.1653869,10.5699667 C60.5046654,15.4456951 64,22.042758 64,29.1498459 C64,36.2569338 60.5046654,42.8539967 54.1653869,47.7297251 Z M32.0070169,8.23327594 C16.9779098,8.23327594 4.79274654,17.5966702 4.79274654,29.1498459 C4.79274654,37.3019308 10.8548375,44.3618968 19.7082068,47.8156533 C19.7082068,47.8156533 23.6470414,49.2015908 21.6180288,53.0822161 C20.3984037,55.4161349 17.4796192,55.8263725 17.4796192,55.8263725 C17.4796192,55.8263725 18.7796286,56.3391694 20.6229256,56.3391694 C21.9756007,56.3391694 23.6276383,56.0619819 25.2658165,55.1056849 C30.2163855,52.2257066 30.5739574,50.019294 30.5739574,50.019294 C31.0978418,50.0664159 31.18377,50.0775034 31.3029606,50.0775034 C31.4027481,50.0775034 31.5357981,50.0691878 32.0070169,50.0691878 C47.036124,50.0691878 59.2212872,40.7030216 59.2212872,29.1498459 C59.2212872,17.5966702 47.036124,8.23327594 32.0070169,8.23327594 Z" id="Instaply-logo" sketch:type="MSShapeGroup"></path>
        </g>
    </g>
</svg>