<?xml version="1.0" encoding="UTF-8" standalone="no"?>
<svg width="64px" height="64px" viewBox="0 0 64 64" version="1.1" xmlns="http://www.w3.org/2000/svg" xmlns:xlink="http://www.w3.org/1999/xlink" xmlns:sketch="http://www.bohemiancoding.com/sketch/ns">
    <!-- Generator: Sketch 3.1.1 (8761) - http://www.bohemiancoding.com/sketch -->
    <title>camera</title>
    <desc>Created with Sketch.</desc>
    <defs></defs>
    <g id="Page-1" stroke="none" stroke-width="1" fill="none" fill-rule="evenodd" sketch:type="MSPage">
        <g id="camera" sketch:type="MSArtboardGroup" fill="#000000">
            <path d="M56.229,10 L48.229,10 C48.229,6 44.647,2 40.229,2 L24.229,2 C19.81,2 16.229,6 16.229,10 L8.229,10 C3.81,10 0,13.579 0,17.997 L0,53.997 C0,58.414 3.81,62 8.229,62 L56.229,62 C60.647,62 64,58.414 64,53.997 L64,17.997 C64,13.579 60.647,10 56.229,10 L56.229,10 Z M24.229,6 L40.229,6 C42.438,6 44.229,8 44.229,10 L20.229,10 C20.229,8 22.02,6 24.229,6 L24.229,6 Z M60,53.997 C60,56.207 58.438,58 56.229,58 L8.229,58 C6.02,58 4,56.207 4,53.997 L4,30 L12,30 L12,26 L4,26 L4,22 L12,22 L12,18 L4.229,18 C4.229,16 6.02,14 8.229,14 L56.229,14 C58.438,14 60,15.787 60,17.997 L60,53.997 L60,53.997 Z M32.229,21.997 C24.497,21.997 18.229,28.264 18.229,35.995 C18.229,43.728 24.497,49.997 32.229,49.997 C39.961,49.997 46.229,43.728 46.229,35.995 C46.229,28.264 39.961,21.997 32.229,21.997 L32.229,21.997 Z M32.229,45.997 C26.706,45.997 22.229,41.518 22.229,35.995 C22.229,30.471 26.706,25.996 32.229,25.996 C37.752,25.996 42.229,30.471 42.229,35.995 C42.229,41.518 37.752,45.997 32.229,45.997 L32.229,45.997 Z" id="Fill-19" sketch:type="MSShapeGroup"></path>
        </g>
    </g>
</svg>