<?xml version="1.0" encoding="UTF-8" standalone="no"?>
<svg width="64px" height="64px" viewBox="0 0 64 64" version="1.1" xmlns="http://www.w3.org/2000/svg" xmlns:xlink="http://www.w3.org/1999/xlink" xmlns:sketch="http://www.bohemiancoding.com/sketch/ns">
    <!-- Generator: Sketch 3.2.2 (9983) - http://www.bohemiancoding.com/sketch -->
    <title>camera</title>
    <desc>Created with Sketch.</desc>
    <defs></defs>
    <g id="Page-1" stroke="none" stroke-width="1" fill="none" fill-rule="evenodd" sketch:type="MSPage">
        <g id="camera" sketch:type="MSArtboardGroup" fill="#000000">
            <path d="M56.229,8 L48.229,8 C48.229,4 44.647,0 40.229,0 L24.229,0 C19.81,0 16.229,4 16.229,8 L8.229,8 C3.81,8 0,11.579 0,15.997 L0,51.997 C0,56.414 3.81,60 8.229,60 L56.229,60 C60.647,60 64,56.414 64,51.997 L64,15.997 C64,11.579 60.647,8 56.229,8 L56.229,8 Z M24.229,4 L40.229,4 C42.438,4 44.229,6 44.229,8 L20.229,8 C20.229,6 22.02,4 24.229,4 L24.229,4 Z M60,51.997 C60,54.207 58.438,56 56.229,56 L8.229,56 C6.02,56 4,54.207 4,51.997 L4,28 L12,28 L12,24 L4,24 L4,20 L12,20 L12,16 L4.229,16 C4.229,14 6.02,12 8.229,12 L56.229,12 C58.438,12 60,13.787 60,15.997 L60,51.997 L60,51.997 Z M32.229,19.997 C24.497,19.997 18.229,26.264 18.229,33.995 C18.229,41.728 24.497,47.997 32.229,47.997 C39.961,47.997 46.229,41.728 46.229,33.995 C46.229,26.264 39.961,19.997 32.229,19.997 L32.229,19.997 Z M32.229,43.997 C26.706,43.997 22.229,39.518 22.229,33.995 C22.229,28.471 26.706,23.996 32.229,23.996 C37.752,23.996 42.229,28.471 42.229,33.995 C42.229,39.518 37.752,43.997 32.229,43.997 L32.229,43.997 Z" id="Fill-19" sketch:type="MSShapeGroup"></path>
        </g>
    </g>
</svg>