<?xml version="1.0" encoding="UTF-8" standalone="no"?>
<svg width="64px" height="64px" viewBox="0 0 64 64" version="1.1" xmlns="http://www.w3.org/2000/svg" xmlns:xlink="http://www.w3.org/1999/xlink">
    <!-- Generator: Sketch 3.7 (28169) - http://www.bohemiancoding.com/sketch -->
    <title>canned-response</title>
    <desc>Created with Sketch.</desc>
    <defs></defs>
    <g id="Page-1" stroke="none" stroke-width="1" fill="none" fill-rule="evenodd">
        <g id="canned-response" fill="#000000">
            <path d="M60,48 C60,49.106 59.104,50.004 58,50.004 L25.02,50.004 L19,56.023 L12.979,50.004 L6,50.004 C4.896,50.004 4,49.106 4,48 L4,8 C4,6.897 4.896,6 6,6 L58,6 C59.104,6 60,6.897 60,8 L60,48 Z M58,2 L6,2 C2.685,2 0,4.687 0,8 L0,48 C0,51.313 2.685,54 6,54 L10.975,54 L19,62.023 L27.024,54 L58,54 C61.313,54 64,51.313 64,48 L64,8 C64,4.687 61.313,2 58,2 L58,2 Z M49.7777778,37 L14.2222222,37 C12.9933333,37 12,37.896 12,39 C12,40.105 12.9933333,41.002 14.2222222,41.002 L49.7777778,41.002 C51.0044444,41.002 52,40.105 52,39 C52,37.896 51.0044444,37 49.7777778,37 L49.7777778,37 Z M49.7777778,26.001 L14.2222222,26.001 C12.9933333,26.001 12,26.897 12,28 C12,29.104 12.9933333,30 14.2222222,30 L49.7777778,30 C51.0044444,30 52,29.104 52,28 C52,26.897 51.0044444,26.001 49.7777778,26.001 L49.7777778,26.001 Z M14.2222222,15.001 C12.9933333,15.001 12,15.897 12,17 C12,18.104 12.9933333,19 14.2222222,19 L34.7777778,19 C36.0044444,19 37,18.104 37,17 C37,15.897 36.0044444,15.001 34.7777778,15.001 L14.2222222,15.001 Z" id="Fill-1"></path>
        </g>
    </g>
</svg>