<?xml version="1.0" encoding="UTF-8" standalone="no"?>
<svg width="64px" height="64px" viewBox="0 0 64 64" version="1.1" xmlns="http://www.w3.org/2000/svg" xmlns:xlink="http://www.w3.org/1999/xlink">
    <!-- Generator: Sketch 3.8.3 (29802) - http://www.bohemiancoding.com/sketch -->
    <title>Clip 2</title>
    <desc>Created with Sketch.</desc>
    <defs>
        <path d="M51.449,2.157 L32,21.605 L12.549,2.154 C9.68,-0.719 5.021,-0.719 2.15,2.16 C0.728,3.58 0.011,5.442 0,7.309 L0,7.386 C0.01,9.259 0.73,11.13 2.165,12.557 L21.606,31.999 L2.155,51.451 C0.736,52.866 0.017,54.719 0,56.578 L0,56.713 C0.017,58.573 0.736,60.429 2.158,61.848 C3.563,63.257 5.402,63.975 7.25,64 L7.447,64 C9.297,63.975 11.14,63.256 12.552,61.842 L32,42.393 L51.451,61.845 C52.875,63.271 54.741,63.99 56.609,64 L56.687,64 C58.558,63.99 60.424,63.27 61.85,61.84 C64.717,58.974 64.717,54.318 61.843,51.448 L42.395,31.999 L61.838,12.555 C64.718,9.686 64.718,5.026 61.846,2.154 C60.413,0.718 58.533,-1.33226763e-15 56.651,-1.33226763e-15 C54.769,0.001 52.885,0.719 51.449,2.157 L51.449,2.157 Z" id="path-1"></path>
    </defs>
    <g id="Page-1" stroke="none" stroke-width="1" fill="none" fill-rule="evenodd">
        <g id="close-bold">
            <mask id="mask-2" fill="white">
                <use xlink:href="#path-1"></use>
            </mask>
            <use id="Clip-2" fill="#000000" xlink:href="#path-1"></use>
        </g>
    </g>
</svg>