<?xml version="1.0" encoding="UTF-8" standalone="no"?>
<svg width="64px" height="64px" viewBox="0 0 64 64" version="1.1" xmlns="http://www.w3.org/2000/svg" xmlns:xlink="http://www.w3.org/1999/xlink" xmlns:sketch="http://www.bohemiancoding.com/sketch/ns">
    <!-- Generator: Sketch 3.2.2 (9983) - http://www.bohemiancoding.com/sketch -->
    <title>close_circle</title>
    <desc>Created with Sketch.</desc>
    <defs></defs>
    <g id="Page-1" stroke="none" stroke-width="1" fill="none" fill-rule="evenodd" sketch:type="MSPage">
        <g id="close_circle" sketch:type="MSArtboardGroup" fill="#000000">
            <path d="M32,0 C14.326,0 0,14.1075692 0,31.5096615 C0,48.9117538 14.326,63.0173538 32,63.0173538 C49.673,63.0173538 64,48.9117538 64,31.5096615 C64,14.1075692 49.673,0 32,0 L32,0 Z M32,59.0788923 C16.536,59.0788923 4,46.7347692 4,31.5096615 C4,16.2845538 16.536,3.94043077 32,3.94043077 C47.464,3.94043077 60,16.2845538 60,31.5096615 C60,46.7347692 47.464,59.0788923 32,59.0788923 L32,59.0788923 Z M47.1966897,19.705931 C48.0452414,18.8606897 48.0452414,17.4857931 47.1966897,16.6372414 C46.3492414,15.7875862 44.9743448,15.7875862 44.1257931,16.6372414 L31.9169655,28.846069 L19.7081379,16.6372414 C18.8595862,15.7875862 17.4846897,15.7875862 16.6372414,16.6372414 C15.7875862,17.4857931 15.7875862,18.8606897 16.6372414,19.705931 L28.846069,31.9158621 L16.6372414,44.1257931 C15.7875862,44.9732414 15.7875862,46.3481379 16.6372414,47.1966897 C17.4846897,48.0463448 18.8595862,48.0463448 19.7081379,47.1966897 L31.9169655,34.9867586 L44.1257931,47.1966897 C44.9743448,48.0463448 46.3492414,48.0463448 47.1966897,47.1966897 C48.0452414,46.3481379 48.0452414,44.9732414 47.1966897,44.1257931 L34.9878621,31.9158621 L47.1966897,19.705931 Z" id="Imported-Layers" sketch:type="MSShapeGroup"></path>
            <path d="M32,0 C14.326,0 0,14.1075692 0,31.5096615 C0,48.9117538 14.326,63.0173538 32,63.0173538 C49.673,63.0173538 64,48.9117538 64,31.5096615 C64,14.1075692 49.673,0 32,0 L32,0 Z M32,59.0788923 C16.536,59.0788923 4,46.7347692 4,31.5096615 C4,16.2845538 16.536,3.94043077 32,3.94043077 C47.464,3.94043077 60,16.2845538 60,31.5096615 C60,46.7347692 47.464,59.0788923 32,59.0788923 L32,59.0788923 Z M47.1966897,19.705931 C48.0452414,18.8606897 48.0452414,17.4857931 47.1966897,16.6372414 C46.3492414,15.7875862 44.9743448,15.7875862 44.1257931,16.6372414 L31.9169655,28.846069 L19.7081379,16.6372414 C18.8595862,15.7875862 17.4846897,15.7875862 16.6372414,16.6372414 C15.7875862,17.4857931 15.7875862,18.8606897 16.6372414,19.705931 L28.846069,31.9158621 L16.6372414,44.1257931 C15.7875862,44.9732414 15.7875862,46.3481379 16.6372414,47.1966897 C17.4846897,48.0463448 18.8595862,48.0463448 19.7081379,47.1966897 L31.9169655,34.9867586 L44.1257931,47.1966897 C44.9743448,48.0463448 46.3492414,48.0463448 47.1966897,47.1966897 C48.0452414,46.3481379 48.0452414,44.9732414 47.1966897,44.1257931 L34.9878621,31.9158621 L47.1966897,19.705931 Z" id="Imported-Layers-2" sketch:type="MSShapeGroup"></path>
        </g>
    </g>
</svg>