<?xml version="1.0" encoding="UTF-8" standalone="no"?>
<svg width="64px" height="64px" viewBox="0 0 64 64" version="1.1" xmlns="http://www.w3.org/2000/svg" xmlns:xlink="http://www.w3.org/1999/xlink" xmlns:sketch="http://www.bohemiancoding.com/sketch/ns">
    <!-- Generator: Sketch 3.1.1 (8761) - http://www.bohemiancoding.com/sketch -->
    <title>congratz</title>
    <desc>Created with Sketch.</desc>
    <defs></defs>
    <g id="Page-1" stroke="none" stroke-width="1" fill="none" fill-rule="evenodd" sketch:type="MSPage">
        <g id="congratz" sketch:type="MSArtboardGroup" fill="#000000">
            <path d="M62.937602,51.8458125 L53.2241475,33.8997187 C54.5729959,30.9566563 55.331299,27.6861563 55.331299,24.2364375 C55.331299,11.4024375 44.9167535,1 32.0702081,1 C19.2226929,1 8.80814746,11.4024375 8.80814746,24.2364375 C8.80814746,27.7510625 9.59360201,31.081625 10.9909353,34.0682813 L1.23869292,51.8380625 C0.871177764,52.5045625 0.932268673,53.3289688 1.39287473,53.9383125 C1.8525111,54.5457187 2.63117776,54.8315 3.37396564,54.657125 L13.1087535,52.4270625 L16.4396626,61.6960625 C16.6995414,62.4168125 17.3579656,62.918625 18.1220869,62.9748125 C18.1705717,62.97675 18.2180869,62.9786875 18.265602,62.9786875 C18.9754202,62.9786875 19.6348141,62.5911875 19.9742081,61.9595625 L27.9538444,47.1076562 C29.2910566,47.3459688 30.6651172,47.47675 32.0702081,47.47675 C33.4306929,47.47675 34.7611172,47.3537187 36.057602,47.1299375 L44.2049959,61.9721562 C44.5482687,62.5989375 45.2008747,62.9786875 45.9058444,62.9786875 C45.955299,62.9786875 46.0057232,62.97675 46.0571172,62.9748125 C46.8183293,62.91475 47.4738444,62.414875 47.7317838,61.6960625 L51.0626929,52.4270625 L60.7974808,54.657125 C61.5441475,54.835375 62.3150566,54.5476563 62.7746929,53.9421875 C63.2372384,53.3347813 63.299299,52.5161875 62.937602,51.8458125 L62.937602,51.8458125 Z M18.617602,56.2885 L16.1788141,49.4995 C15.8452384,48.5762813 14.8774808,48.038625 13.9194202,48.2662813 L6.71845049,49.9160625 L13.2881475,37.94425 C15.9848747,41.6264688 19.737602,44.4871875 24.1041475,46.077875 L18.617602,56.2885 L18.617602,56.2885 Z M32.1022081,43.5949688 C21.4006323,43.5949688 12.6946929,34.9081875 12.6946929,24.2364375 C12.6946929,13.5656563 21.4006323,4.8808125 32.1022081,4.8808125 C42.8018444,4.8808125 51.5058444,13.5656563 51.5058444,24.2364375 C51.5058444,34.9081875 42.8018444,43.5949688 32.1022081,43.5949688 L32.1022081,43.5949688 Z M50.2520262,48.2662813 C49.2900869,48.038625 48.3262081,48.5762813 47.9926323,49.4995 L45.5363899,56.3379063 L39.9247535,46.1156563 C44.3853596,44.5172188 48.2117838,41.5945 50.9366323,37.824125 L57.4869353,49.9238125 L50.2520262,48.2662813 L50.2520262,48.2662813 Z M32.0857232,8.74225 C23.5165111,8.74225 16.5705717,15.6843125 16.5705717,24.2441875 C16.5705717,32.8040625 23.5165111,39.74225 32.0857232,39.74225 C40.6539656,39.74225 47.6008747,32.8040625 47.6008747,24.2441875 C47.6008747,15.6843125 40.6539656,8.74225 32.0857232,8.74225 L32.0857232,8.74225 Z M32.0857232,35.8691875 C25.6595414,35.8691875 20.4493596,30.6640937 20.4493596,24.2441875 C20.4493596,17.8223438 25.6595414,12.6191875 32.0857232,12.6191875 C38.511905,12.6191875 43.7220869,17.8223438 43.7220869,24.2441875 C43.7220869,30.6640937 38.511905,35.8691875 32.0857232,35.8691875 L32.0857232,35.8691875 Z" id="Imported-Layers" sketch:type="MSShapeGroup"></path>
        </g>
    </g>
</svg>