<?xml version="1.0" encoding="UTF-8" standalone="no"?>
<svg width="64px" height="64px" viewBox="0 0 64 64" version="1.1" xmlns="http://www.w3.org/2000/svg" xmlns:xlink="http://www.w3.org/1999/xlink">
    <!-- Generator: Sketch 3.7 (28169) - http://www.bohemiancoding.com/sketch -->
    <title>country</title>
    <desc>Created with Sketch.</desc>
    <defs></defs>
    <g id="Page-1" stroke="none" stroke-width="1" fill="none" fill-rule="evenodd">
        <g id="country" fill="#000000">
            <path d="M55.0005,34.2227 C54.0295,35.4807 51.4145,38.0707 46.3445,38.0707 C43.4855,38.0707 40.2165,37.2777 36.6245,35.7067 C29.3905,32.5467 26.8115,30.9477 19.1005,30.9477 C14.6295,30.9477 10.8335,31.4957 8.0005,32.1057 L8.0005,6.4937 C10.6525,5.4957 15.6255,4.0237 21.8825,4.0237 C27.5115,4.0237 28.0605,5.1997 33.3755,7.5237 C37.9955,9.5387 42.3585,10.5627 46.3435,10.5627 C49.8595,10.5627 52.7195,9.7857 55.0005,8.6997 L55.0005,34.2227 Z M35.0005,3.9297 C28.4095,1.0507 27.2145,0.0937 21.8805,0.0937 C11.2155,0.0937 4.0005,3.9297 4.0005,3.9297 L3.9995,5.9957 L3.9995,11.9957 L3.9995,61.9957 C3.9995,63.0997 4.8955,63.9957 5.9995,63.9957 C7.1045,63.9957 7.9995,63.0997 7.9995,61.9957 L7.9995,36.1367 C10.6405,35.5137 14.4605,34.8787 19.1005,34.8787 C25.0065,34.8787 27.2305,35.9067 35.0005,39.2987 C39.5005,41.2617 43.2505,41.9997 46.3445,41.9997 C55.6255,41.9997 59.0005,35.3687 59.0005,35.3687 L59.0005,-0.0003 C59.0005,-0.0003 55.6265,6.6327 46.3435,6.6327 C43.2495,6.6327 39.4995,5.8947 35.0005,3.9297 Z" id="Fill-1"></path>
        </g>
    </g>
</svg>