<?xml version="1.0" encoding="UTF-8" standalone="no"?>
<svg width="64px" height="64px" viewBox="0 0 64 64" version="1.1" xmlns="http://www.w3.org/2000/svg" xmlns:xlink="http://www.w3.org/1999/xlink" xmlns:sketch="http://www.bohemiancoding.com/sketch/ns">
    <!-- Generator: Sketch 3.3.1 (12002) - http://www.bohemiancoding.com/sketch -->
    <title>customers</title>
    <desc>Created with Sketch.</desc>
    <defs></defs>
    <g id="Page-1" stroke="none" stroke-width="1" fill="none" fill-rule="evenodd" sketch:type="MSPage">
        <g id="customers" sketch:type="MSArtboardGroup" fill="#000000">
            <path d="M19.652507,28.0036923 C20.3393803,28.6857622 21.3498592,28.6857622 22.0376338,28.0036923 L29.7464789,18.9631329 L29.7464789,42.8364755 C29.7464789,43.8255664 30.5532394,44.6266853 31.5492958,44.6266853 C32.5444507,44.6266853 33.3521127,43.8255664 33.3521127,42.8364755 L33.3521127,18.9622378 L41.2682817,28.0036923 C41.9560563,28.6857622 43.1233803,28.6857622 43.8102535,28.0036923 C44.4980282,27.3207273 44.524169,26.2134825 43.8363944,25.5323077 L33.3791549,13.4143776 C33.2944225,13.2335664 33.1889577,13.0617063 33.0393239,12.9131189 C32.6877746,12.5658182 32.2298592,12.3975385 31.7701408,12.4038042 C31.7647324,12.4038042 31.7611268,12.4029091 31.7548169,12.4029091 C31.7494085,12.4029091 31.7449014,12.4038042 31.739493,12.4038042 C31.2797746,12.3975385 30.8191549,12.5658182 30.468507,12.9131189 C30.3188732,13.0617063 30.2089014,13.2317762 30.124169,13.4116923 L19.6516056,25.5323077 C18.9647324,26.2134825 18.9647324,27.3207273 19.652507,28.0036923" id="Fill-1" sketch:type="MSShapeGroup"></path>
            <path d="M54.1650096,47.729794 C48.4854374,52.0954974 41.0873026,54.5957288 33.2234927,54.8313381 C32.0787083,56.1756976 30.3351988,57.6863696 27.6686549,59.2358478 C25.5259954,60.4859635 23.1560422,61.117951 20.6225483,61.117951 C18.0058981,61.117951 16.0905324,60.4166666 15.7329605,60.2780728 C13.6679135,59.4659134 12.3152384,57.3565164 12.6284603,55.1584194 C12.8890166,53.3345256 14.0809229,51.8682036 15.7468198,51.3138286 C11.525254,49.3208503 7.91904439,46.5711502 5.22755361,43.267075 C1.81537528,39.0843153 0.00811267606,34.2002713 0.00811267606,29.1499148 C0.00811267606,22.0428269 3.50344726,15.445764 9.8482695,10.5700356 C15.8188886,5.97981029 23.6882422,3.45186014 32.0066395,3.45186014 C40.322265,3.45186014 48.1916186,5.97981029 54.1650096,10.5700356 C60.5042881,15.445764 63.9996227,22.0428269 63.9996227,29.1499148 C63.9996227,36.2570027 60.5042881,42.8540656 54.1650096,47.729794 Z M32.0066395,8.23334479 C16.9775324,8.23334479 4.79236921,17.5967391 4.79236921,29.1499148 C4.79236921,37.3019996 10.8544602,44.3619657 19.7078295,47.8157221 C19.7078295,47.8157221 23.6466641,49.2016597 21.6176514,53.0822849 C20.3980264,55.4162038 17.4792418,55.8264413 17.4792418,55.8264413 C17.4792418,55.8264413 18.7792513,56.3392382 20.6225483,56.3392382 C21.9752233,56.3392382 23.6272609,56.0620507 25.2654392,55.1057538 C30.2160082,52.2257755 30.5735801,50.0193629 30.5735801,50.0193629 C31.0974645,50.0664847 31.1833926,50.0775722 31.3025833,50.0775722 C31.4023708,50.0775722 31.5354208,50.0692566 32.0066395,50.0692566 C47.0357467,50.0692566 59.2209099,40.7030904 59.2209099,29.1499148 C59.2209099,17.5967391 47.0357467,8.23334479 32.0066395,8.23334479 Z" id="Instaply-logo-2" sketch:type="MSShapeGroup" transform="translate(32.003868, 32.284906) scale(-1, 1) translate(-32.003868, -32.284906) "></path>
        </g>
    </g>
</svg>