<?xml version="1.0" encoding="UTF-8" standalone="no"?>
<svg width="64px" height="64px" viewBox="0 0 64 64" version="1.1" xmlns="http://www.w3.org/2000/svg" xmlns:xlink="http://www.w3.org/1999/xlink" xmlns:sketch="http://www.bohemiancoding.com/sketch/ns">
    <!-- Generator: Sketch 3.1.1 (8761) - http://www.bohemiancoding.com/sketch -->
    <title>customer</title>
    <desc>Created with Sketch.</desc>
    <defs></defs>
    <g id="Page-1" stroke="none" stroke-width="1" fill="none" fill-rule="evenodd" sketch:type="MSPage">
        <g id="customer" sketch:type="MSArtboardGroup" fill="#000000">
            <path d="M41.5398333,36.1362806 C47.4808333,32.8263981 51.5,26.5359052 51.5,19.3058605 C51.5,8.64366275 42.7694167,0 32,0 C21.2305833,0 12.5,8.64366275 12.5,19.3058605 C12.5,26.5359052 16.5191667,32.8263981 22.4601667,36.1362806 C12.8260833,39.9030685 6,49.1870423 6,60.062677 L6,64 L10.3333333,64 L10.3333333,60.062677 C10.3333333,48.215314 20.0335,38.6117209 32,38.6117209 C43.9654167,38.6117209 53.6666667,48.215314 53.6666667,60.062677 L53.6666667,64 L58,64 L58,60.062677 C58,49.1870423 51.1739167,39.9030685 41.5398333,36.1362806 L41.5398333,36.1362806 Z M16.8333333,19.3058605 C16.8333333,11.0150659 23.6236667,4.29019122 32,4.29019122 C40.3763333,4.29019122 47.1666667,11.0150659 47.1666667,19.3058605 C47.1666667,27.5998726 40.3763333,34.3215297 32,34.3215297 C23.6236667,34.3215297 16.8333333,27.5998726 16.8333333,19.3058605 L16.8333333,19.3058605 Z M32,28.6059225 C28.5463333,28.6059225 25.4924167,26.9070068 23.6236667,24.3157313 L19.858,24.3157313 C22.068,28.7550066 26.67325,31.8235659 32,31.8235659 C37.32675,31.8235659 41.932,28.7550066 44.142,24.3157313 L40.3763333,24.3157313 C38.5075833,26.9070068 35.4536667,28.6059225 32,28.6059225" id="Fill-4" sketch:type="MSShapeGroup"></path>
        </g>
    </g>
</svg>