<?xml version="1.0" encoding="UTF-8" standalone="no"?>
<svg width="52px" height="64px" viewBox="0 0 52 64" version="1.1" xmlns="http://www.w3.org/2000/svg" xmlns:xlink="http://www.w3.org/1999/xlink" xmlns:sketch="http://www.bohemiancoding.com/sketch/ns">
    <!-- Generator: Sketch 3.1.1 (8761) - http://www.bohemiancoding.com/sketch -->
    <title>customer</title>
    <desc>Created with Sketch.</desc>
    <defs></defs>
    <g id="Page-1" stroke="none" stroke-width="1" fill="none" fill-rule="evenodd" sketch:type="MSPage">
        <g id="customer" sketch:type="MSArtboardGroup" fill="#000000">
            <path d="M35.5398333,36.1362806 C41.4808333,32.8263981 45.5,26.5359052 45.5,19.3058605 C45.5,8.64366275 36.7694167,0 26,0 C15.2305833,0 6.5,8.64366275 6.5,19.3058605 C6.5,26.5359052 10.5191667,32.8263981 16.4601667,36.1362806 C6.82608333,39.9030685 0,49.1870423 0,60.062677 L0,64 L4.33333333,64 L4.33333333,60.062677 C4.33333333,48.215314 14.0335,38.6117209 26,38.6117209 C37.9654167,38.6117209 47.6666667,48.215314 47.6666667,60.062677 L47.6666667,64 L52,64 L52,60.062677 C52,49.1870423 45.1739167,39.9030685 35.5398333,36.1362806 L35.5398333,36.1362806 Z M10.8333333,19.3058605 C10.8333333,11.0150659 17.6236667,4.29019122 26,4.29019122 C34.3763333,4.29019122 41.1666667,11.0150659 41.1666667,19.3058605 C41.1666667,27.5998726 34.3763333,34.3215297 26,34.3215297 C17.6236667,34.3215297 10.8333333,27.5998726 10.8333333,19.3058605 L10.8333333,19.3058605 Z M26,28.6059225 C22.5463333,28.6059225 19.4924167,26.9070068 17.6236667,24.3157313 L13.858,24.3157313 C16.068,28.7550066 20.67325,31.8235659 26,31.8235659 C31.32675,31.8235659 35.932,28.7550066 38.142,24.3157313 L34.3763333,24.3157313 C32.5075833,26.9070068 29.4536667,28.6059225 26,28.6059225" id="Fill-4" sketch:type="MSShapeGroup"></path>
        </g>
    </g>
</svg>