<?xml version="1.0" encoding="UTF-8" standalone="no"?>
<svg width="64px" height="64px" viewBox="0 0 64 64" version="1.1" xmlns="http://www.w3.org/2000/svg" xmlns:xlink="http://www.w3.org/1999/xlink">
    <!-- Generator: Sketch 3.7 (28169) - http://www.bohemiancoding.com/sketch -->
    <title>delete-alt</title>
    <desc>Created with Sketch.</desc>
    <defs></defs>
    <g id="Page-1" stroke="none" stroke-width="1" fill="none" fill-rule="evenodd">
        <g id="delete-alt" fill="#000000">
            <path d="M57.8208834,54.5960496 L54.5934935,57.8222971 C53.7023911,58.7145419 52.2572059,58.7145419 51.3661035,57.8222971 L31.9994788,38.4568148 L12.6328541,57.8222971 C11.7417517,58.7145419 10.2965665,58.7145419 9.40546409,57.8222971 L6.17807412,54.5960496 C5.28697175,53.7038048 5.28697175,52.2620468 6.17807412,51.3652323 L25.5435564,32.0008924 L6.17807412,12.6354102 C5.28697175,11.7431654 5.28697175,10.2979801 6.17807412,9.40687775 L9.40546409,6.17834534 C10.2965665,5.29067029 11.7417517,5.29067029 12.6328541,6.17834534 L31.9994788,25.5438276 L51.3661035,6.17834534 C52.2572059,5.29067029 53.7023911,5.29067029 54.5934935,6.17834534 L57.8208834,9.40687775 C58.7119858,10.2979801 58.7119858,11.7431654 57.8208834,12.6354102 L38.4554012,32.0008924 L57.8208834,51.3652323 C58.7119858,52.2620468 58.7119858,53.7038048 57.8208834,54.5960496 L57.8208834,54.5960496 Z M44.9101811,32.0020349 L62.6625396,14.2496764 C64.4458868,12.4686141 64.4458868,9.57710115 62.6625396,7.7914691 L56.2077597,1.33897403 C54.4244125,-0.446658011 51.5351845,-0.446658011 49.7529797,1.33897403 L31.9994788,19.0913325 L14.2471203,1.33897403 C12.4649155,-0.446658011 9.57568749,-0.446658011 7.79234032,1.33897403 L1.33756038,7.7914691 C-0.445786792,9.57710115 -0.445786792,12.4686141 1.33756038,14.2496764 L19.0899189,32.0020349 L1.33756038,49.7543934 C-0.445786792,51.5343132 -0.445786792,54.4269686 1.33756038,56.2091733 L7.79234032,62.6639533 C9.57568749,64.4495853 12.4649155,64.4495853 14.2471203,62.6639533 L31.9994788,44.9115948 L49.7529797,62.6639533 C51.5351845,64.4495853 54.4244125,64.4495853 56.2077597,62.6639533 L62.6625396,56.2091733 C64.4458868,54.4269686 64.4458868,51.5343132 62.6625396,49.7543934 L44.9101811,32.0020349 Z" id="Fill-1"></path>
        </g>
    </g>
</svg>