<?xml version="1.0" encoding="UTF-8" standalone="no"?>
<svg width="64px" height="64px" viewBox="0 0 64 64" version="1.1" xmlns="http://www.w3.org/2000/svg" xmlns:xlink="http://www.w3.org/1999/xlink" xmlns:sketch="http://www.bohemiancoding.com/sketch/ns">
    <!-- Generator: Sketch 3.2.2 (9983) - http://www.bohemiancoding.com/sketch -->
    <title>directory</title>
    <desc>Created with Sketch.</desc>
    <defs></defs>
    <g id="Page-1" stroke="none" stroke-width="1" fill="none" fill-rule="evenodd" sketch:type="MSPage">
        <g id="directory" sketch:type="MSArtboardGroup" fill="#000000">
            <path d="M51.9,0 L11.1,0 C8.28225,0 6,2.26804614 6,5.0688548 L6,49.0429038 C6,51.8462494 8.28225,54.1219064 11.1,54.1219064 L51.9,54.1219064 C54.7169,54.1219064 57,51.8462494 57,49.0429038 L57,5.0688548 C57,2.26804614 54.7169,0 51.9,0 L51.9,0 Z M12.8,49.0429038 C12.8,49.978198 12.0384,50.735059 11.1,50.735059 C10.1599,50.735059 9.4,49.978198 9.4,49.0429038 L9.4,5.0688548 C9.4,4.13525191 10.1599,3.37923653 11.1,3.37923653 C12.0384,3.37923653 12.8,4.13525191 12.8,5.0688548 L12.8,49.0429038 L12.8,49.0429038 Z M53.6,49.0429038 C53.6,49.978198 52.8384,50.7392873 51.9,50.7392873 L16.2,50.7392873 L16.2,3.38261915 L51.9,3.38261915 C52.8384,3.38261915 53.6,4.13525191 53.6,5.0688548 L53.6,49.0429038 L53.6,49.0429038 Z M16.2,64 L20.025,60.7865118 L23.85,64 L23.8271484,54.1164551 L16.1771484,54.1164551 M46.3988,36.7716071 L40.3468,30.7505451 C41.69915,29.0228723 42.4378,26.8918223 42.4378,24.6948111 C42.4378,19.2572508 37.99145,14.832785 32.5251,14.832785 C27.0596,14.832785 22.6124,19.2572508 22.6124,24.6948111 C22.6124,30.1332171 27.0596,34.5568373 32.5251,34.5568373 C34.7334,34.5568373 36.8754,33.8219632 38.6111,32.4765265 L44.66395,38.4975886 C44.896,38.7284523 45.2037,38.8561462 45.5318,38.8561462 C45.85905,38.8561462 46.1676,38.7284523 46.3988,38.4975886 C46.63085,38.2667248 46.75835,37.9605978 46.75835,37.634175 C46.75835,37.3077523 46.63085,37.0016252 46.3988,36.7716071 L46.3988,36.7716071 Z M32.5251,17.343534 C36.6,17.343534 39.915,20.6415877 39.915,24.6948111 C39.915,28.7488802 36.6,32.0469338 32.5251,32.0469338 C28.45105,32.0469338 25.13605,28.7488802 25.13605,24.6948111 C25.13605,20.6415877 28.45105,17.343534 32.5251,17.343534 L32.5251,17.343534 Z" id="Fill-1" sketch:type="MSShapeGroup"></path>
        </g>
    </g>
</svg>