<?xml version="1.0" encoding="UTF-8" standalone="no"?>
<svg width="51px" height="64px" viewBox="0 0 51 64" version="1.1" xmlns="http://www.w3.org/2000/svg" xmlns:xlink="http://www.w3.org/1999/xlink" xmlns:sketch="http://www.bohemiancoding.com/sketch/ns">
    <!-- Generator: Sketch 3.1.1 (8761) - http://www.bohemiancoding.com/sketch -->
    <title>directory</title>
    <desc>Created with Sketch.</desc>
    <defs></defs>
    <g id="Page-1" stroke="none" stroke-width="1" fill="none" fill-rule="evenodd" sketch:type="MSPage">
        <g id="directory" sketch:type="MSArtboardGroup" fill="#000000">
            <path d="M45.9,0 L5.1,0 C2.28225,0 0,2.26804614 0,5.0688548 L0,49.0429038 C0,51.8462494 2.28225,54.1219064 5.1,54.1219064 L45.9,54.1219064 C48.7169,54.1219064 51,51.8462494 51,49.0429038 L51,5.0688548 C51,2.26804614 48.7169,0 45.9,0 L45.9,0 Z M6.8,49.0429038 C6.8,49.978198 6.0384,50.735059 5.1,50.735059 C4.1599,50.735059 3.4,49.978198 3.4,49.0429038 L3.4,5.0688548 C3.4,4.13525191 4.1599,3.37923653 5.1,3.37923653 C6.0384,3.37923653 6.8,4.13525191 6.8,5.0688548 L6.8,49.0429038 L6.8,49.0429038 Z M47.6,49.0429038 C47.6,49.978198 46.8384,50.7392873 45.9,50.7392873 L10.2,50.7392873 L10.2,3.38261915 L45.9,3.38261915 C46.8384,3.38261915 47.6,4.13525191 47.6,5.0688548 L47.6,49.0429038 L47.6,49.0429038 Z M10.2,52.4305968 L10.2,64 L14.025,60.7865118 L17.85,64 L17.85,52.4305968 L10.2,52.4305968 M40.3988,36.7716071 L34.3468,30.7505451 C35.69915,29.0228723 36.4378,26.8918223 36.4378,24.6948111 C36.4378,19.2572508 31.99145,14.832785 26.5251,14.832785 C21.0596,14.832785 16.6124,19.2572508 16.6124,24.6948111 C16.6124,30.1332171 21.0596,34.5568373 26.5251,34.5568373 C28.7334,34.5568373 30.8754,33.8219632 32.6111,32.4765265 L38.66395,38.4975886 C38.896,38.7284523 39.2037,38.8561462 39.5318,38.8561462 C39.85905,38.8561462 40.1676,38.7284523 40.3988,38.4975886 C40.63085,38.2667248 40.75835,37.9605978 40.75835,37.634175 C40.75835,37.3077523 40.63085,37.0016252 40.3988,36.7716071 L40.3988,36.7716071 Z M26.5251,17.343534 C30.6,17.343534 33.915,20.6415877 33.915,24.6948111 C33.915,28.7488802 30.6,32.0469338 26.5251,32.0469338 C22.45105,32.0469338 19.13605,28.7488802 19.13605,24.6948111 C19.13605,20.6415877 22.45105,17.343534 26.5251,17.343534 L26.5251,17.343534 Z" id="Fill-1" sketch:type="MSShapeGroup"></path>
        </g>
    </g>
</svg>