<?xml version="1.0" encoding="UTF-8"?>
<svg width="16px" height="16px" viewBox="0 0 16 16" version="1.1" xmlns="http://www.w3.org/2000/svg" xmlns:xlink="http://www.w3.org/1999/xlink">
    <title>$_icon</title>
    <g id="$_icon" stroke="none" stroke-width="1" fill="none" fill-rule="evenodd">
        <g id="Group-6" transform="translate(2.000000, 2.000000)">
            <circle id="Oval" stroke="#7A7A7A" cx="6" cy="6" r="6.5"></circle>
            <path d="M6.41008113,10.6391602 L6.41008113,9.47363281 C7.12622696,9.39485677 7.67407853,9.18717448 8.05363582,8.85058594 C8.43319311,8.5139974 8.62297175,8.08610026 8.62297175,7.56689453 C8.62297175,7.14794922 8.49227514,6.79345703 8.23088191,6.50341797 C7.96948868,6.21337891 7.4986228,5.93766276 6.81828425,5.67626953 L6.81828425,5.67626953 L6.41008113,5.52050781 L6.41008113,3.56542969 C6.96509415,3.60839844 7.5236879,3.74088542 8.08586238,3.96289062 L8.08586238,3.96289062 L8.47795222,2.97998047 C7.82625952,2.71142578 7.13696915,2.56461589 6.41008113,2.53955078 L6.41008113,2.53955078 L6.41008113,1.65332031 L5.69572566,1.65332031 L5.69572566,2.55566406 C5.03687149,2.62369792 4.51498022,2.81705729 4.13005183,3.13574219 C3.74512345,3.45442708 3.55265925,3.86083984 3.55265925,4.35498047 C3.55265925,4.81689453 3.68783178,5.20450846 3.95817683,5.51782227 C4.22852189,5.83113607 4.6573142,6.10058594 5.24455379,6.32617188 L5.24455379,6.32617188 L5.69572566,6.49267578 L5.69572566,8.50146484 C5.36987931,8.49788411 5.0010642,8.44506836 4.58928035,8.34301758 C4.17749649,8.2409668 3.81763321,8.11474609 3.5096905,7.96435547 L3.5096905,7.96435547 L3.5096905,9.09765625 C4.07902644,9.35546875 4.80770483,9.49153646 5.69572566,9.50585938 L5.69572566,9.50585938 L5.69572566,10.6391602 L6.41008113,10.6391602 Z M5.69572566,5.25732422 C5.36271785,5.12483724 5.132656,4.9905599 5.00554011,4.85449219 C4.87842423,4.71842448 4.81486629,4.54833984 4.81486629,4.34423828 C4.81486629,4.14729818 4.8900616,3.98258464 5.04045222,3.85009766 C5.19084285,3.71761068 5.40926733,3.62988281 5.69572566,3.58691406 L5.69572566,3.58691406 L5.69572566,5.25732422 Z M6.41008113,8.45849609 L6.41008113,6.74511719 C6.7502504,6.87044271 6.9928448,7.00024414 7.13786433,7.13452148 C7.28288386,7.26879883 7.35539363,7.43977865 7.35539363,7.64746094 C7.35539363,8.09147135 7.04028946,8.36181641 6.41008113,8.45849609 L6.41008113,8.45849609 Z" id="$" fill="#7A7A7A" fill-rule="nonzero"></path>
        </g>
    </g>
</svg>