<?xml version="1.0" encoding="UTF-8" standalone="no"?>
<svg width="64px" height="64px" viewBox="0 0 64 64" version="1.1" xmlns="http://www.w3.org/2000/svg" xmlns:xlink="http://www.w3.org/1999/xlink" xmlns:sketch="http://www.bohemiancoding.com/sketch/ns">
    <!-- Generator: Sketch 3.2.2 (9983) - http://www.bohemiancoding.com/sketch -->
    <title>download</title>
    <desc>Created with Sketch.</desc>
    <defs></defs>
    <g id="Page-1" stroke="none" stroke-width="1" fill="none" fill-rule="evenodd" sketch:type="MSPage">
        <g id="download" sketch:type="MSArtboardGroup" fill="#000000">
            <path d="M0.624666667,59.3662783 C1.01066667,59.7553302 1.544,59.9956981 2.13333333,59.9956981 L61.8666667,59.9956981 C62.4554667,59.9956981 62.9888,59.7553302 63.3749333,59.3662783 C63.7610667,58.9772264 64,58.4394906 64,57.8447547 L64,40.6372075 C64,39.4509623 63.0442667,38.4862642 61.8666667,38.4862642 C60.6890667,38.4862642 59.7333333,39.4509623 59.7333333,40.6372075 L59.7333333,55.6938113 L59.7333333,55.6938113 L4.26666667,55.6938113 L4.26666667,40.6372075 C4.26666667,39.4509623 3.312,38.4862642 2.13333333,38.4862642 C0.954666667,38.4862642 0,39.4509623 0,40.6372075 L0,57.8447547 C0,58.4394906 0.238666667,58.9772264 0.624666667,59.3662783 Z M29.8666667,39.1052497 L20.7285333,28.3553208 C19.888,27.5067736 18.5237333,27.5067736 17.6832,28.3553208 C16.8426667,29.201717 16.8426667,30.5783208 17.6832,31.424717 L30.4714667,46.4684151 C30.8932925,46.8931833 31.4467564,47.1047794 31.9997318,47.1032035 C32.552975,47.1047794 33.1067075,46.8931833 33.5285333,46.4684151 L46.3157333,31.424717 C47.1562667,30.5783208 47.1562667,29.201717 46.3157333,28.3553208 C45.4752,27.5067736 44.112,27.5067736 43.2714667,28.3553208 L34.1333333,39.104353 L34.1333333,6.22211321 C34.1333333,5.03586792 33.1786667,4.07116981 32,4.07116981 C30.8213333,4.07116981 29.8666667,5.03586792 29.8666667,6.22211321 L29.8666667,39.1052497 L29.8666667,39.1052497 Z" sketch:type="MSShapeGroup"></path>
        </g>
    </g>
</svg>