<?xml version="1.0" encoding="UTF-8" standalone="no"?>
<svg width="64px" height="64px" viewBox="0 0 64 64" version="1.1" xmlns="http://www.w3.org/2000/svg" xmlns:xlink="http://www.w3.org/1999/xlink">
    <!-- Generator: Sketch 3.7 (28169) - http://www.bohemiancoding.com/sketch -->
    <title>dragdown</title>
    <desc>Created with Sketch.</desc>
    <defs></defs>
    <g id="Page-1" stroke="none" stroke-width="1" fill="none" fill-rule="evenodd">
        <g id="dragdown" fill="#000000">
            <path d="M22.7024261,20.3555849 L17.1304,13.3535472 C16.2898667,12.5071509 16.2898667,11.1305472 17.1304,10.2841509 C17.9709333,9.43560377 19.3352,9.43560377 20.1757333,10.2841509 L25.3138667,16.741096 L25.3138667,2.1509434 C25.3138667,0.964698113 26.2685333,-1.11022302e-16 27.4472,-1.11022302e-16 C28.6258667,-1.11022302e-16 29.5805333,0.964698113 29.5805333,2.1509434 L29.5805333,16.7403123 L34.7186667,10.2841509 C35.5592,9.43560377 36.9224,9.43560377 37.7629333,10.2841509 C38.6034667,11.1305472 38.6034667,12.5071509 37.7629333,13.3535472 L32.4709876,20.0044316 C33.6140734,21.1866157 34.3174127,22.7965529 34.3174127,24.5710346 L34.3174127,37.2464437 L47.4627682,41.0027291 C49.2776489,41.0027291 50.7491071,42.4741873 50.7491071,44.289068 L50.7491071,60.7207625 C50.7491071,62.5356431 49.2776489,64.0087445 47.4627682,64.0087445 L24.458396,64.0087445 C24.3417309,64.0087445 24.230817,63.9865617 24.1174383,63.9734164 C22.4430487,63.9380882 20.7801612,63.2849284 19.5025969,62.0073641 L9.97303571,52.4794461 C7.34232143,49.8479102 7.34232143,45.5805992 9.97303571,42.9507065 C12.6045716,40.3191706 16.8718826,40.3191706 19.5025969,42.9507065 L21.1720571,44.6209882 L21.1720571,37.7163902 L21.1720571,24.5710346 C21.1720571,22.9664769 21.7471427,21.496459 22.7024261,20.3555849 Z M47.4627682,59.077593 C47.4627682,59.9854441 46.7266283,60.7207625 45.8195988,60.7207625 L32.6742432,60.7207625 L32.6742432,60.7224056 L24.458396,60.7224056 L24.458396,60.5876657 C23.5332916,60.6451767 22.5917555,60.3337961 21.884371,59.6247684 L12.3556314,50.0960288 C11.0402743,48.7806717 11.0402743,46.6478377 12.3556314,45.3324806 C13.6709886,44.0163019 15.8046441,44.0163019 17.1200012,45.3324806 L24.458396,52.6700538 L24.458396,39.3595597 L24.458396,37.7163902 L24.458396,26.2158472 L24.458396,24.5710346 C24.458396,22.756154 25.9298542,21.2846957 27.7447349,21.2846957 C29.5596155,21.2846957 31.0310738,22.756154 31.0310738,24.5710346 L31.0310738,26.2158472 L31.0310738,37.7163902 L31.0310738,39.3595597 L45.8195988,44.289068 C46.7266283,44.289068 47.4627682,45.0243863 47.4627682,45.9322374 L47.4627682,59.077593 Z" id="to-end"></path>
        </g>
    </g>
</svg>