<?xml version="1.0" encoding="UTF-8" standalone="no"?>
<svg width="64px" height="64px" viewBox="0 0 64 64" version="1.1" xmlns="http://www.w3.org/2000/svg" xmlns:xlink="http://www.w3.org/1999/xlink" xmlns:sketch="http://www.bohemiancoding.com/sketch/ns">
    <!-- Generator: Sketch 3.2 (9961) - http://www.bohemiancoding.com/sketch -->
    <title>employees</title>
    <desc>Created with Sketch.</desc>
    <defs></defs>
    <g id="Page-1" stroke="none" stroke-width="1" fill="none" fill-rule="evenodd" sketch:type="MSPage">
        <g id="employees" sketch:type="MSArtboardGroup" fill="#3C4042">
            <path d="M43.7084683,33.0749398 C45.853602,30.1108628 47.1432109,26.3200413 47.1432109,22.1880371 C47.1432109,12.6942248 40.350428,5 31.971342,5 C23.5914131,5 16.7986303,12.6942248 16.7986303,22.1880371 C16.7986303,26.3200413 18.0882392,30.1100034 20.2333728,33.0749398 C16.274358,34.4749055 13.4271039,38.3009625 13.4271039,42.8136817 L13.4271039,49.6888965 C13.4271039,55.3824338 17.9559068,60 23.5416831,60 L40.3993152,60 C45.9859344,60 50.5138944,55.3824338 50.5138944,49.6888965 L50.5138944,42.8136817 C50.5138944,38.3018219 47.6674832,34.4749055 43.7084683,33.0749398 L43.7084683,33.0749398 Z M20.1701567,22.1880371 C20.1701567,14.5926435 25.4533386,8.43760743 31.971342,8.43760743 C38.4876597,8.43760743 43.7708416,14.5926435 43.7708416,22.1880371 C43.7708416,29.7817119 38.4876597,35.9384668 31.971342,35.9384668 C25.4533386,35.9384668 20.1701567,29.7817119 20.1701567,22.1880371 L20.1701567,22.1880371 Z M47.1432109,49.6888965 C47.1432109,53.4840151 44.124009,56.5623926 40.3993152,56.5623926 L23.5416831,56.5623926 C19.8178322,56.5623926 16.7986303,53.4840151 16.7986303,49.6888965 L16.7986303,42.8136817 C16.7986303,39.2265383 19.4950086,36.2839464 22.9322797,35.9694053 C25.4592388,38.0998625 28.5795865,39.3760743 31.971342,39.3760743 C35.3622547,39.3760743 38.4826024,38.0998625 41.0095614,35.9694053 C44.4468326,36.2848058 47.1432109,39.2265383 47.1432109,42.8136817 L47.1432109,49.6888965 L47.1432109,49.6888965 Z M60.6284736,18.7487109 C60.6284736,11.1550361 55.3452917,5 48.8281312,5 C47.0344791,5 45.3529303,5.50189068 43.8298433,6.33551048 C44.6963256,7.13819182 45.4962202,8.02767274 46.2185697,8.99106222 C47.0445937,8.66105191 47.911076,8.43760743 48.8281312,8.43760743 C53.4833663,8.43760743 57.2569472,13.0534548 57.2569472,18.7487109 C57.2569472,24.1784118 53.8154616,28.5811275 49.4619781,28.984187 C49.2959305,29.5127191 49.1054392,30.0266415 48.9039905,30.5354074 C49.6912419,31.011516 50.4186488,31.5692678 51.0499671,32.2387418 C56.5025682,31.0269852 60.6284736,25.4572018 60.6284736,18.7487109 L60.6284736,18.7487109 Z M53.8862637,32.4991406 L51.2606875,32.4991406 C52.1372843,33.4943279 52.8183327,34.6528017 53.2667457,35.9384668 L53.8862637,35.9384668 C57.6101146,35.9384668 60.6284736,39.0168443 60.6284736,42.8136817 C60.6284736,46.6105191 57.6101146,49.6888965 53.8862637,49.6888965 L53.8862637,53.126504 C59.47204,53.126504 64,48.507219 64,42.8136817 C64,37.1184256 59.47204,32.4991406 53.8862637,32.4991406 L53.8862637,32.4991406 Z M12.9508758,32.2387418 C13.5813512,31.5692678 14.3087581,31.011516 15.0960095,30.5354074 C14.8945608,30.0266415 14.7040695,29.5127191 14.5380219,28.984187 C10.1845384,28.5811275 6.74305281,24.1784118 6.74305281,18.7487109 C6.74305281,13.0534548 10.5166337,8.43760743 15.1718688,8.43760743 C16.088924,8.43760743 16.9554063,8.66105191 17.7814303,8.99106222 C18.5037798,8.02767274 19.3036744,7.13819182 20.1701567,6.33551048 C18.6479126,5.50189068 16.9655209,5 15.1718688,5 C8.65470828,5 3.37152641,11.1550361 3.37152641,18.7487109 C3.37152641,25.4572018 7.49743185,31.0269852 12.9508758,32.2387418 M0,42.8136817 C0,48.507219 4.52795996,53.126504 10.1137363,53.126504 L10.1137363,49.6888965 C6.38988542,49.6888965 3.37152641,46.6105191 3.37152641,42.8136817 C3.37152641,39.0168443 6.38988542,35.9384668 10.1137363,35.9384668 L10.7332543,35.9384668 C11.1816673,34.6528017 11.8627157,33.4943279 12.7393125,32.4991406 L10.1137363,32.4991406 C4.52795996,32.4991406 0,37.1184256 0,42.8136817" id="Fill-1" sketch:type="MSShapeGroup"></path>
        </g>
    </g>
</svg>