<?xml version="1.0" encoding="UTF-8" standalone="no"?>
<svg width="64px" height="64px" viewBox="0 0 64 64" version="1.1" xmlns="http://www.w3.org/2000/svg" xmlns:xlink="http://www.w3.org/1999/xlink" xmlns:sketch="http://www.bohemiancoding.com/sketch/ns">
    <!-- Generator: Sketch 3.2.2 (9983) - http://www.bohemiancoding.com/sketch -->
    <title>employee-single</title>
    <desc>Created with Sketch.</desc>
    <defs></defs>
    <g id="Page-1" stroke="none" stroke-width="1" fill="none" fill-rule="evenodd" sketch:type="MSPage">
        <g id="employee-single" sketch:type="MSArtboardGroup" fill="#000000">
            <path d="M45.925,33.1673846 C48.47,29.7704615 50,25.4273231 50,20.6923077 C50,9.81526154 41.941,1 32,1 C22.059,1 14,9.81526154 14,20.6923077 C14,25.4273231 15.53,29.7704615 18.076,33.1673846 C13.378,34.7693538 10,39.1518769 10,44.3230769 L10,52.2 C10,58.7230769 15.372,64.0153846 22,64.0153846 L42,64.0153846 C48.627,64.0153846 54,58.7230769 54,52.2 L54,44.3230769 C54,39.1518769 50.622,34.7693538 45.925,33.1673846 L45.925,33.1673846 Z M18,20.6923077 C18,11.9922462 24.268,4.93649231 32,4.93649231 C39.732,4.93649231 46,11.9922462 46,20.6923077 C46,29.3923692 39.732,36.4461538 32,36.4461538 C24.268,36.4461538 18,29.3923692 18,20.6923077 L18,20.6923077 Z M50,52.2 C50,56.5500308 46.418,60.0769231 42,60.0769231 L22,60.0769231 C17.582,60.0769231 14,56.5500308 14,52.2 L14,44.3230769 C14,40.2132923 17.198,36.8429538 21.277,36.4816 C24.275,38.9224615 27.977,40.3846154 32,40.3846154 C36.024,40.3846154 39.726,38.9224615 42.723,36.4816 C46.802,36.8419692 50,40.2132923 50,44.3230769 L50,52.2 L50,52.2 Z" id="Imported-Layers-2" sketch:type="MSShapeGroup"></path>
        </g>
    </g>
</svg>