<?xml version="1.0" encoding="UTF-8" standalone="no"?>
<svg width="61px" height="64px" viewBox="0 0 61 64" version="1.1" xmlns="http://www.w3.org/2000/svg" xmlns:xlink="http://www.w3.org/1999/xlink" xmlns:sketch="http://www.bohemiancoding.com/sketch/ns">
    <!-- Generator: Sketch 3.1.1 (8761) - http://www.bohemiancoding.com/sketch -->
    <title>employees</title>
    <desc>Created with Sketch.</desc>
    <defs></defs>
    <g id="Page-1" stroke="none" stroke-width="1" fill="none" fill-rule="evenodd" sketch:type="MSPage">
        <g id="employees" sketch:type="MSArtboardGroup" fill="#000000">
            <path d="M35.926,32.669 C38.471,29.219 40.001,24.809 40.001,20 C40.001,8.953 31.942,0 22.001,0 C12.06,0 4,8.953 4,20 C4,24.809 5.53,29.219 8.075,32.668 C3.378,34.297 0,38.75 0,44 L0,52 C0,58.625 5.373,63.998 12,63.998 L32,63.998 C38.628,63.998 44,58.625 44,52 L44,44 C44,38.75 40.623,34.297 35.926,32.669 L35.926,32.669 Z M8,20 C8,11.162 14.268,4 22.001,4 C29.732,4 36,11.162 36,20 C36,28.836 29.732,36 22.001,36 C14.268,36 8,28.836 8,20 L8,20 Z M40.001,52 C40.001,56.416 36.419,59.998 32,59.998 L12,59.998 C7.582,59.998 4,56.416 4,52 L4,44 C4,39.826 7.199,36.402 11.278,36.036 C14.275,38.515 17.978,40 22.001,40 C26.024,40 29.726,38.516 32.724,36.036 C36.803,36.402 40.001,39.826 40.001,44 L40.001,52 L40.001,52 Z M48.001,31.998 L44.886,31.998 C45.927,33.156 46.734,34.504 47.266,36 L48.001,36 C52.419,36 56,39.582 56,44 C56,48.418 52.419,52 48.001,52 L48.001,56 C54.628,56 60,50.625 60,44 C60,37.373 54.628,31.998 48.001,31.998 L48.001,31.998 Z M56,15.998 C56,7.162 49.732,0 42,0 C39.872,0 37.877,0.584 36.07,1.555 C37.099,2.488 38.047,3.523 38.904,4.645 C39.885,4.26 40.913,4 42,4 C47.523,4 52,9.371 52,15.998 C52,22.316 47.917,27.439 42.752,27.908 C42.556,28.523 42.329,29.121 42.09,29.713 C43.024,30.268 43.887,30.916 44.636,31.695 C51.105,30.285 56,23.805 56,15.998 L56,15.998 Z" id="Imported-Layers" sketch:type="MSShapeGroup"></path>
        </g>
    </g>
</svg>