<?xml version="1.0" encoding="UTF-8" standalone="no"?>
<svg width="64px" height="64px" viewBox="0 0 64 64" version="1.1" xmlns="http://www.w3.org/2000/svg" xmlns:xlink="http://www.w3.org/1999/xlink" xmlns:sketch="http://www.bohemiancoding.com/sketch/ns">
    <!-- Generator: Sketch 3.1.1 (8761) - http://www.bohemiancoding.com/sketch -->
    <title>employee-single</title>
    <desc>Created with Sketch.</desc>
    <defs></defs>
    <g id="Page-1" stroke="none" stroke-width="1" fill="none" fill-rule="evenodd" sketch:type="MSPage">
        <g id="employee-single" sketch:type="MSArtboardGroup" fill="#000000">
            <path d="M45.925,32.1673846 C48.47,28.7704615 50,24.4273231 50,19.6923077 C50,8.81526154 41.941,0 32,0 C22.059,0 14,8.81526154 14,19.6923077 C14,24.4273231 15.53,28.7704615 18.076,32.1673846 C13.378,33.7693538 10,38.1518769 10,43.3230769 L10,51.2 C10,57.7230769 15.372,63.0153846 22,63.0153846 L42,63.0153846 C48.627,63.0153846 54,57.7230769 54,51.2 L54,43.3230769 C54,38.1518769 50.622,33.7693538 45.925,32.1673846 L45.925,32.1673846 Z M18,19.6923077 C18,10.9922462 24.268,3.93649231 32,3.93649231 C39.732,3.93649231 46,10.9922462 46,19.6923077 C46,28.3923692 39.732,35.4461538 32,35.4461538 C24.268,35.4461538 18,28.3923692 18,19.6923077 L18,19.6923077 Z M50,51.2 C50,55.5500308 46.418,59.0769231 42,59.0769231 L22,59.0769231 C17.582,59.0769231 14,55.5500308 14,51.2 L14,43.3230769 C14,39.2132923 17.198,35.8429538 21.277,35.4816 C24.275,37.9224615 27.977,39.3846154 32,39.3846154 C36.024,39.3846154 39.726,37.9224615 42.723,35.4816 C46.802,35.8419692 50,39.2132923 50,43.3230769 L50,51.2 L50,51.2 Z" id="Imported-Layers-2" sketch:type="MSShapeGroup"></path>
        </g>
    </g>
</svg>