<?xml version="1.0" encoding="UTF-8" standalone="no"?>
<svg width="45px" height="64px" viewBox="0 0 45 64" version="1.1" xmlns="http://www.w3.org/2000/svg" xmlns:xlink="http://www.w3.org/1999/xlink" xmlns:sketch="http://www.bohemiancoding.com/sketch/ns">
    <!-- Generator: Sketch 3.1.1 (8761) - http://www.bohemiancoding.com/sketch -->
    <title>employee-single</title>
    <desc>Created with Sketch.</desc>
    <defs></defs>
    <g id="Page-1" stroke="none" stroke-width="1" fill="none" fill-rule="evenodd" sketch:type="MSPage">
        <g id="employee-single" sketch:type="MSArtboardGroup" fill="#000000">
            <path d="M35.925,32.1673846 C38.47,28.7704615 40,24.4273231 40,19.6923077 C40,8.81526154 31.941,0 22,0 C12.059,0 4,8.81526154 4,19.6923077 C4,24.4273231 5.53,28.7704615 8.076,32.1673846 C3.378,33.7693538 0,38.1518769 0,43.3230769 L0,51.2 C0,57.7230769 5.372,63.0153846 12,63.0153846 L32,63.0153846 C38.627,63.0153846 44,57.7230769 44,51.2 L44,43.3230769 C44,38.1518769 40.622,33.7693538 35.925,32.1673846 L35.925,32.1673846 Z M8,19.6923077 C8,10.9922462 14.268,3.93649231 22,3.93649231 C29.732,3.93649231 36,10.9922462 36,19.6923077 C36,28.3923692 29.732,35.4461538 22,35.4461538 C14.268,35.4461538 8,28.3923692 8,19.6923077 L8,19.6923077 Z M40,51.2 C40,55.5500308 36.418,59.0769231 32,59.0769231 L12,59.0769231 C7.582,59.0769231 4,55.5500308 4,51.2 L4,43.3230769 C4,39.2132923 7.198,35.8429538 11.277,35.4816 C14.275,37.9224615 17.977,39.3846154 22,39.3846154 C26.024,39.3846154 29.726,37.9224615 32.723,35.4816 C36.802,35.8419692 40,39.2132923 40,43.3230769 L40,51.2 L40,51.2 Z" id="Imported-Layers-2" sketch:type="MSShapeGroup"></path>
        </g>
    </g>
</svg>