<?xml version="1.0" encoding="UTF-8" standalone="no"?>
<svg width="64px" height="64px" viewBox="0 0 64 64" version="1.1" xmlns="http://www.w3.org/2000/svg" xmlns:xlink="http://www.w3.org/1999/xlink" xmlns:sketch="http://www.bohemiancoding.com/sketch/ns">
    <!-- Generator: Sketch 3.2 (9961) - http://www.bohemiancoding.com/sketch -->
    <title>escalation</title>
    <desc>Created with Sketch.</desc>
    <defs></defs>
    <g id="Page-1" stroke="none" stroke-width="1" fill="none" fill-rule="evenodd" sketch:type="MSPage">
        <g id="escalation" sketch:type="MSArtboardGroup" fill="#000000">
            <path d="M25.0632627,52.158131 C26.0902136,50.8015985 26.8147064,49.0643713 26.8147064,47.169751 C26.8147064,42.8306179 23.6353788,39.3148478 19.6481562,39.3148478 C15.6599288,39.3148478 12.4534704,42.8306179 12.4534704,47.169751 C12.4534704,49.0643713 13.1538469,50.8015985 14.1807979,52.158131 C12.2947049,52.796557 11.0145332,54.5318168 11.0145332,56.5946511 L11.0145332,59.7366124 C11.0145332,62.3385183 13.0312559,64 15.6900741,64 L23.7127518,64 C26.3715701,64 28.0968879,62.3385183 28.0968879,59.7366124 L28.0968879,56.5946511 C28.0968879,54.5308331 26.9493556,52.796557 25.0632627,52.158131 L25.0632627,52.158131 Z M14.0853377,47.169751 C14.0853377,43.6992315 16.5994583,40.8848448 19.701413,40.8848448 C22.8033676,40.8848448 25.3174883,43.6992315 25.3174883,47.169751 C25.3174883,50.6392868 22.8033676,53.4526898 19.701413,53.4526898 C16.5994583,53.4526898 14.0853377,50.6392868 14.0853377,47.169751 L14.0853377,47.169751 Z M27.0920435,59.7366124 C27.0920435,61.4718721 25.4852973,63.0162927 23.7127518,63.0162927 L15.6900741,63.0162927 C13.9165238,63.0162927 12.0193776,61.4718721 12.0193776,59.7366124 L12.0193776,56.5946511 C12.0193776,54.9518598 13.5427217,53.6189364 15.1846374,53.4802336 C16.3844216,54.4462342 17.9791097,55.0236705 19.5858559,55.0236705 C21.1936069,55.0236705 22.8144209,54.4462342 24.0142051,53.4802336 C25.6561209,53.6189364 27.0920435,54.9518598 27.0920435,56.5946511 L27.0920435,59.7366124 L27.0920435,59.7366124 Z M55,29.4103201 C55,20.4512344 47.3100078,13.1878266 38.2928547,13.1878266 L38.2928547,15.6835948 C46.4902666,15.6835948 52.4522444,21.8291232 52.4522444,29.4103201 C52.4522444,35.6914705 48.129749,40.9759187 42.3915607,42.6065943 L42.3915607,38.1447064 L34.7433753,44.3841269 L42.3915607,50.6235475 L42.3915607,45.1810073 C49.7692314,43.4893419 55,37.0789893 55,29.4103201 M27.7522263,17.6978789 C29.1610181,15.8288349 30.0603538,13.4394098 30.0603538,10.8345527 C30.0603538,4.85066093 25.6269804,0 20.1264621,0 C14.6249391,0 10.1785026,4.85066093 10.1785026,10.8345527 C10.1785026,13.4394098 11.0426688,15.8288349 12.4514607,17.6978789 C9.85192822,18.5792807 8,20.9903474 8,23.8362127 L8,28.1694436 C8,31.758008 10.951228,34.4887796 14.61891,34.4887796 L25.6862662,34.4887796 C29.3529434,34.4887796 32.1162655,31.758008 32.1162655,28.1694436 L32.1162655,23.8362127 C32.1162655,20.9903474 30.3517587,18.5792807 27.7522263,17.6978789 L27.7522263,17.6978789 Z M12.4052378,10.8345527 C12.4052378,6.04783277 15.8739607,2.16612358 20.1525881,2.16612358 C24.4302107,2.16612358 27.8989335,6.04783277 27.8989335,10.8345527 C27.8989335,15.6212727 24.4302107,19.5019982 20.1525881,19.5019982 C15.8739607,19.5019982 12.4052378,15.6212727 12.4052378,10.8345527 L12.4052378,10.8345527 Z M30.1065767,28.1694436 C30.1065767,30.5628036 28.1300477,32.5213649 25.6862662,32.5213649 L14.61891,32.5213649 C12.1731188,32.5213649 10.0096888,30.5628036 10.0096888,28.1694436 L10.0096888,23.8362127 C10.0096888,21.569751 11.8837236,19.7302183 14.1486428,19.539379 C15.8036216,20.8713188 17.8896785,21.6691054 20.1063653,21.6691054 C22.323052,21.6691054 24.3839878,20.8713188 26.0379617,19.539379 C28.302881,19.7302183 30.1065767,21.569751 30.1065767,23.8362127 L30.1065767,28.1694436 L30.1065767,28.1694436 Z" id="Fill-2" sketch:type="MSShapeGroup"></path>
        </g>
    </g>
</svg>