<?xml version="1.0" encoding="UTF-8" standalone="no"?>
<svg width="64px" height="64px" viewBox="0 0 64 64" version="1.1" xmlns="http://www.w3.org/2000/svg" xmlns:xlink="http://www.w3.org/1999/xlink" xmlns:sketch="http://www.bohemiancoding.com/sketch/ns">
    <!-- Generator: Sketch 3.1.1 (8761) - http://www.bohemiancoding.com/sketch -->
    <title>escalation</title>
    <desc>Created with Sketch.</desc>
    <defs></defs>
    <g id="Page-1" stroke="none" stroke-width="1" fill="none" fill-rule="evenodd" sketch:type="MSPage">
        <g id="escalation" sketch:type="MSArtboardGroup" fill="#000000">
            <path d="M26.0632627,52.158131 C27.0902136,50.8015985 27.8147064,49.0643713 27.8147064,47.169751 C27.8147064,42.8306179 24.6353788,39.3148478 20.6481562,39.3148478 C16.6599288,39.3148478 13.4534704,42.8306179 13.4534704,47.169751 C13.4534704,49.0643713 14.1538469,50.8015985 15.1807979,52.158131 C13.2947049,52.796557 12.0145332,54.5318168 12.0145332,56.5946511 L12.0145332,59.7366124 C12.0145332,62.3385183 14.0312559,64 16.6900741,64 L24.7127518,64 C27.3715701,64 29.0968879,62.3385183 29.0968879,59.7366124 L29.0968879,56.5946511 C29.0968879,54.5308331 27.9493556,52.796557 26.0632627,52.158131 L26.0632627,52.158131 Z M15.0853377,47.169751 C15.0853377,43.6992315 17.5994583,40.8848448 20.701413,40.8848448 C23.8033676,40.8848448 26.3174883,43.6992315 26.3174883,47.169751 C26.3174883,50.6392868 23.8033676,53.4526898 20.701413,53.4526898 C17.5994583,53.4526898 15.0853377,50.6392868 15.0853377,47.169751 L15.0853377,47.169751 Z M28.0920435,59.7366124 C28.0920435,61.4718721 26.4852973,63.0162927 24.7127518,63.0162927 L16.6900741,63.0162927 C14.9165238,63.0162927 13.0193776,61.4718721 13.0193776,59.7366124 L13.0193776,56.5946511 C13.0193776,54.9518598 14.5427217,53.6189364 16.1846374,53.4802336 C17.3844216,54.4462342 18.9791097,55.0236705 20.5858559,55.0236705 C22.1936069,55.0236705 23.8144209,54.4462342 25.0142051,53.4802336 C26.6561209,53.6189364 28.0920435,54.9518598 28.0920435,56.5946511 L28.0920435,59.7366124 L28.0920435,59.7366124 Z M56,29.4103201 C56,20.4512344 48.3100078,13.1878266 39.2928547,13.1878266 L39.2928547,15.6835948 C47.4902666,15.6835948 53.4522444,21.8291232 53.4522444,29.4103201 C53.4522444,35.6914705 49.129749,40.9759187 43.3915607,42.6065943 L43.3915607,38.1447064 L35.7433753,44.3841269 L43.3915607,50.6235475 L43.3915607,45.1810073 C50.7692314,43.4893419 56,37.0789893 56,29.4103201 M28.7522263,17.6978789 C30.1610181,15.8288349 31.0603538,13.4394098 31.0603538,10.8345527 C31.0603538,4.85066093 26.6269804,0 21.1264621,0 C15.6249391,0 11.1785026,4.85066093 11.1785026,10.8345527 C11.1785026,13.4394098 12.0426688,15.8288349 13.4514607,17.6978789 C10.8519282,18.5792807 9,20.9903474 9,23.8362127 L9,28.1694436 C9,31.758008 11.951228,34.4887796 15.61891,34.4887796 L26.6862662,34.4887796 C30.3529434,34.4887796 33.1162655,31.758008 33.1162655,28.1694436 L33.1162655,23.8362127 C33.1162655,20.9903474 31.3517587,18.5792807 28.7522263,17.6978789 L28.7522263,17.6978789 Z M13.4052378,10.8345527 C13.4052378,6.04783277 16.8739607,2.16612358 21.1525881,2.16612358 C25.4302107,2.16612358 28.8989335,6.04783277 28.8989335,10.8345527 C28.8989335,15.6212727 25.4302107,19.5019982 21.1525881,19.5019982 C16.8739607,19.5019982 13.4052378,15.6212727 13.4052378,10.8345527 L13.4052378,10.8345527 Z M31.1065767,28.1694436 C31.1065767,30.5628036 29.1300477,32.5213649 26.6862662,32.5213649 L15.61891,32.5213649 C13.1731188,32.5213649 11.0096888,30.5628036 11.0096888,28.1694436 L11.0096888,23.8362127 C11.0096888,21.569751 12.8837236,19.7302183 15.1486428,19.539379 C16.8036216,20.8713188 18.8896785,21.6691054 21.1063653,21.6691054 C23.323052,21.6691054 25.3839878,20.8713188 27.0379617,19.539379 C29.302881,19.7302183 31.1065767,21.569751 31.1065767,23.8362127 L31.1065767,28.1694436 L31.1065767,28.1694436 Z" id="Fill-2" sketch:type="MSShapeGroup"></path>
        </g>
    </g>
</svg>