<?xml version="1.0" encoding="UTF-8" standalone="no"?>
<svg width="47px" height="64px" viewBox="0 0 47 64" version="1.1" xmlns="http://www.w3.org/2000/svg" xmlns:xlink="http://www.w3.org/1999/xlink" xmlns:sketch="http://www.bohemiancoding.com/sketch/ns">
    <!-- Generator: Sketch 3.1.1 (8761) - http://www.bohemiancoding.com/sketch -->
    <title>escalation</title>
    <desc>Created with Sketch.</desc>
    <defs></defs>
    <g id="Page-1" stroke="none" stroke-width="1" fill="none" fill-rule="evenodd" sketch:type="MSPage">
        <g id="escalation" sketch:type="MSArtboardGroup" fill="#000000">
            <path d="M17.0632627,52.158131 C18.0902136,50.8015985 18.8147064,49.0643713 18.8147064,47.169751 C18.8147064,42.8306179 15.6353788,39.3148478 11.6481562,39.3148478 C7.65992882,39.3148478 4.45347036,42.8306179 4.45347036,47.169751 C4.45347036,49.0643713 5.1538469,50.8015985 6.18079787,52.158131 C4.29470494,52.796557 3.01453318,54.5318168 3.01453318,56.5946511 L3.01453318,59.7366124 C3.01453318,62.3385183 5.03125588,64 7.69007415,64 L15.7127518,64 C18.3715701,64 20.0968879,62.3385183 20.0968879,59.7366124 L20.0968879,56.5946511 C20.0968879,54.5308331 18.9493556,52.796557 17.0632627,52.158131 L17.0632627,52.158131 Z M6.08533765,47.169751 C6.08533765,43.6992315 8.59945833,40.8848448 11.701413,40.8848448 C14.8033676,40.8848448 17.3174883,43.6992315 17.3174883,47.169751 C17.3174883,50.6392868 14.8033676,53.4526898 11.701413,53.4526898 C8.59945833,53.4526898 6.08533765,50.6392868 6.08533765,47.169751 L6.08533765,47.169751 Z M19.0920435,59.7366124 C19.0920435,61.4718721 17.4852973,63.0162927 15.7127518,63.0162927 L7.69007415,63.0162927 C5.91652379,63.0162927 4.01937758,61.4718721 4.01937758,59.7366124 L4.01937758,56.5946511 C4.01937758,54.9518598 5.54272168,53.6189364 7.18463742,53.4802336 C8.38442163,54.4462342 9.97910968,55.0236705 11.5858559,55.0236705 C13.1936069,55.0236705 14.8144209,54.4462342 16.0142051,53.4802336 C17.6561209,53.6189364 19.0920435,54.9518598 19.0920435,56.5946511 L19.0920435,59.7366124 L19.0920435,59.7366124 Z M47,29.4103201 C47,20.4512344 39.3100078,13.1878266 30.2928547,13.1878266 L30.2928547,15.6835948 C38.4902666,15.6835948 44.4522444,21.8291232 44.4522444,29.4103201 C44.4522444,35.6914705 40.129749,40.9759187 34.3915607,42.6065943 L34.3915607,38.1447064 L26.7433753,44.3841269 L34.3915607,50.6235475 L34.3915607,45.1810073 C41.7692314,43.4893419 47,37.0789893 47,29.4103201 M19.7522263,17.6978789 C21.1610181,15.8288349 22.0603538,13.4394098 22.0603538,10.8345527 C22.0603538,4.85066093 17.6269804,0 12.1264621,0 C6.62493909,0 2.17850265,4.85066093 2.17850265,10.8345527 C2.17850265,13.4394098 3.04266883,15.8288349 4.45146067,17.6978789 C1.85192822,18.5792807 0,20.9903474 0,23.8362127 L0,28.1694436 C0,31.758008 2.95122799,34.4887796 6.61891002,34.4887796 L17.6862662,34.4887796 C21.3529434,34.4887796 24.1162655,31.758008 24.1162655,28.1694436 L24.1162655,23.8362127 C24.1162655,20.9903474 22.3517587,18.5792807 19.7522263,17.6978789 L19.7522263,17.6978789 Z M4.40523782,10.8345527 C4.40523782,6.04783277 7.87396067,2.16612358 12.1525881,2.16612358 C16.4302107,2.16612358 19.8989335,6.04783277 19.8989335,10.8345527 C19.8989335,15.6212727 16.4302107,19.5019982 12.1525881,19.5019982 C7.87396067,19.5019982 4.40523782,15.6212727 4.40523782,10.8345527 L4.40523782,10.8345527 Z M22.1065767,28.1694436 C22.1065767,30.5628036 20.1300477,32.5213649 17.6862662,32.5213649 L6.61891002,32.5213649 C4.17311877,32.5213649 2.00968879,30.5628036 2.00968879,28.1694436 L2.00968879,23.8362127 C2.00968879,21.569751 3.88372358,19.7302183 6.14864285,19.539379 C7.80362157,20.8713188 9.88967853,21.6691054 12.1063653,21.6691054 C14.323052,21.6691054 16.3839878,20.8713188 18.0379617,19.539379 C20.302881,19.7302183 22.1065767,21.569751 22.1065767,23.8362127 L22.1065767,28.1694436 L22.1065767,28.1694436 Z" id="Fill-2" sketch:type="MSShapeGroup"></path>
        </g>
    </g>
</svg>