<?xml version="1.0" encoding="UTF-8"?>
<svg width="16px" height="16px" viewBox="0 0 16 16" version="1.1" xmlns="http://www.w3.org/2000/svg" xmlns:xlink="http://www.w3.org/1999/xlink">
    <title>€_icon</title>
    <g id="€_icon" stroke="none" stroke-width="1" fill="none" fill-rule="evenodd">
        <g id="Group-6" transform="translate(2.000000, 2.000000)">
            <path d="M6.05850091,10.1253825 C6.69469835,10.1253825 7.25228519,10.0138651 7.73126143,9.7908304 L7.73126143,9.7908304 L7.73126143,8.67748488 C7.18281536,8.90417592 6.64716636,9.01752144 6.12431444,9.01752144 C5.0274223,9.01752144 4.36197441,8.44713753 4.12797075,7.3063697 L4.12797075,7.3063697 L6.27239488,7.3063697 L6.27239488,6.46724722 L4.03473492,6.46724722 L4.023766,6.25335325 L4.023766,5.95170791 L4.03473492,5.70490718 L6.6179159,5.70490718 L6.6179159,4.86030023 L4.11700183,4.86030023 C4.22669104,4.23872802 4.44515539,3.77437702 4.77239488,3.46724722 C5.09963437,3.16011742 5.52102377,3.00655252 6.03656307,3.00655252 C6.47531993,3.00655252 6.976234,3.14549219 7.5393053,3.42337153 L7.5393053,3.42337153 L8,2.39777738 C7.42230347,2.07602236 6.7678245,1.91514484 6.03656307,1.91514484 C5.15173675,1.91514484 4.42961609,2.1765708 3.8702011,2.69942272 C3.31078611,3.22227464 2.96160878,3.94256715 2.8226691,4.86030023 L2.8226691,4.86030023 L2,4.86030023 L2,5.70490718 L2.74588665,5.70490718 L2.73491773,6.06139713 L2.73491773,6.26432217 L2.74588665,6.46724722 L2,6.46724722 L2,7.3063697 L2.83363803,7.3063697 C3.00182815,8.22044649 3.36106033,8.91880115 3.91133455,9.40143369 C4.46160878,9.88406623 5.1773309,10.1253825 6.05850091,10.1253825 Z" id="€" fill="#7A7A7A" fill-rule="nonzero"></path>
            <circle id="Oval" stroke="#7A7A7A" cx="6" cy="6" r="6.5"></circle>
        </g>
    </g>
</svg>