<?xml version="1.0" encoding="UTF-8" standalone="no"?>
<svg width="64px" height="64px" viewBox="0 0 64 64" version="1.1" xmlns="http://www.w3.org/2000/svg" xmlns:xlink="http://www.w3.org/1999/xlink" xmlns:sketch="http://www.bohemiancoding.com/sketch/ns">
    <!-- Generator: Sketch 3.3.2 (12043) - http://www.bohemiancoding.com/sketch -->
    <title>favorite-on</title>
    <desc>Created with Sketch.</desc>
    <defs></defs>
    <g id="Page-1" stroke="none" stroke-width="1" fill="none" fill-rule="evenodd" sketch:type="MSPage">
        <g id="favorite-on" sketch:type="MSArtboardGroup" fill="#000000">
            <path d="M59.4638904,9.42871233 C56.4401096,6.47594521 52.2616986,5 46.9277808,5 C45.4518356,5 43.9456438,5.256 42.4100822,5.76756164 C40.8740822,6.27956164 39.4454795,6.97041096 38.1247123,7.83923288 C36.8030685,8.70805479 35.6668493,9.52383562 34.713863,10.2856986 C33.7617534,11.0475616 32.8569863,11.8572055 32,12.7141918 C31.1425753,11.8572055 30.2378082,11.0475616 29.2856986,10.2856986 C28.3331507,9.52383562 27.1964932,8.70849315 25.8748493,7.83923288 C24.5532055,6.9699726 23.1246027,6.27956164 21.5890411,5.76756164 C20.0534795,5.256 18.5472877,5 17.0713425,5 C11.737863,5 7.55945205,6.47638356 4.53567123,9.42871233 C1.51189041,12.3810411 0,16.4761644 0,21.7140822 C0,23.3092603 0.280109589,24.9526575 0.839452055,26.6425205 C1.39879452,28.3328219 2.03616438,29.7736986 2.75024658,30.9638356 C3.46432877,32.1539726 4.2739726,33.3151781 5.17873973,34.446137 C6.08350685,35.5770959 6.74454795,36.3564932 7.1609863,36.7852055 C7.57742466,37.2134795 7.90487671,37.5229589 8.14290411,37.7132055 L30.4284932,59.2132603 C30.8572055,59.642411 31.3810411,59.8567671 32,59.8567671 C32.6189589,59.8567671 33.1427945,59.642411 33.5715068,59.214137 L55.821589,37.7850959 C61.273863,32.3332603 64,26.9761096 64,21.7140822 C64,16.4761644 62.4876712,12.3810411 59.4638904,9.42871233" id="Imported-Layers" sketch:type="MSShapeGroup"></path>
        </g>
    </g>
</svg>