<?xml version="1.0" encoding="UTF-8" standalone="no"?>
<svg width="64px" height="64px" viewBox="0 0 64 64" version="1.1" xmlns="http://www.w3.org/2000/svg" xmlns:xlink="http://www.w3.org/1999/xlink" xmlns:sketch="http://www.bohemiancoding.com/sketch/ns">
    <!-- Generator: Sketch 3.3.2 (12043) - http://www.bohemiancoding.com/sketch -->
    <title>favorite-off</title>
    <desc>Created with Sketch.</desc>
    <defs></defs>
    <g id="Page-1" stroke="none" stroke-width="1" fill="none" fill-rule="evenodd" sketch:type="MSPage">
        <g id="favorite-off" sketch:type="MSArtboardGroup" fill="#000000">
            <path d="M59.4638904,9.42871233 C56.4401096,6.47594521 52.2616986,5 46.9277808,5 C45.4518356,5 43.9456438,5.256 42.4100822,5.76756164 C40.8740822,6.27956164 39.4454795,6.97041096 38.1247123,7.83923288 C36.8030685,8.70805479 35.6668493,9.52383562 34.713863,10.2856986 C33.7617534,11.0475616 32.8569863,11.8572055 32,12.7141918 C31.1425753,11.8572055 30.2378082,11.0475616 29.2856986,10.2856986 C28.3331507,9.52383562 27.1964932,8.70849315 25.8748493,7.83923288 C24.5532055,6.9699726 23.1246027,6.27956164 21.5890411,5.76756164 C20.0534795,5.256 18.5472877,5 17.0713425,5 C11.737863,5 7.55945205,6.47638356 4.53567123,9.42871233 C1.51189041,12.3810411 0,16.4761644 0,21.7140822 C0,23.3092603 0.280109589,24.9526575 0.839452055,26.6425205 C1.39879452,28.3328219 2.03616438,29.7736986 2.75024658,30.9638356 C3.46432877,32.1539726 4.2739726,33.3147397 5.17873973,34.4456986 C6.08350685,35.5766575 6.74454795,36.3564932 7.1609863,36.7847671 C7.57742466,37.2134795 7.90487671,37.5229589 8.14290411,37.7136438 L30.4284932,59.2136986 C30.8572055,59.642411 31.3810411,59.8567671 32,59.8567671 C32.6189589,59.8567671 33.1427945,59.642411 33.5715068,59.2136986 L55.821589,37.7846575 C61.273863,32.3328219 64,26.9756712 64,21.7136438 C64,16.4752877 62.4881096,12.3806027 59.4638904,9.42871233 L59.4638904,9.42871233 Z M52.7140822,34.427726 L32,54.3917808 L11.250411,34.3917808 C6.7980274,29.940274 4.57205479,25.7136438 4.57205479,21.7136438 C4.57205479,19.7853151 4.82805479,18.0827397 5.33961644,16.6067945 C5.85161644,15.1308493 6.50652055,13.9578082 7.30389041,13.0889863 C8.10169863,12.219726 9.07178082,11.5117808 10.2145753,10.9638356 C11.3578082,10.4163288 12.4769315,10.0472329 13.5719452,9.8569863 C14.6669589,9.66673973 15.8334247,9.57161644 17.0717808,9.57161644 C18.3096986,9.57161644 19.6431781,9.8749589 21.0717808,10.4820822 C22.4999452,11.0892055 23.8154521,11.8510685 25.017863,12.7676712 C26.220274,13.6847123 27.2499726,14.5416986 28.1073973,15.3390685 C28.9643836,16.1373151 29.6784658,16.8689315 30.2500822,17.5356712 C30.6783562,18.0595068 31.2622466,18.3216438 32,18.3216438 C32.7381918,18.3216438 33.3212055,18.0595068 33.7499178,17.5356712 C34.3215342,16.8689315 35.0360548,16.1368767 35.8930411,15.3390685 C36.7500274,14.5416986 37.7801644,13.6851507 38.982137,12.7676712 C40.1845479,11.8510685 41.5000548,11.0892055 42.9290959,10.4820822 C44.3572603,9.8749589 45.6911781,9.57161644 46.9290959,9.57161644 C48.1670137,9.57161644 49.3330411,9.66673973 50.4284932,9.8569863 C51.5239452,10.0472329 52.6430685,10.4163288 53.785863,10.9638356 C54.9286575,11.5117808 55.8987397,12.2201644 56.6965479,13.0889863 C57.4939178,13.9578082 58.1488219,15.1308493 58.6608219,16.6067945 C59.1719452,18.0827397 59.4279452,19.7853151 59.4279452,21.7136438 C59.4279452,25.7136438 57.1905753,29.9521096 52.7140822,34.427726 L52.7140822,34.427726 Z" id="Imported-Layers" sketch:type="MSShapeGroup"></path>
        </g>
    </g>
</svg>