<?xml version="1.0" encoding="UTF-8" standalone="no"?>
<svg width="64px" height="64px" viewBox="0 0 64 64" version="1.1" xmlns="http://www.w3.org/2000/svg" xmlns:xlink="http://www.w3.org/1999/xlink" xmlns:sketch="http://www.bohemiancoding.com/sketch/ns">
    <!-- Generator: Sketch 3.2.2 (9983) - http://www.bohemiancoding.com/sketch -->
    <title>file-image</title>
    <desc>Created with Sketch.</desc>
    <defs></defs>
    <g id="Page-1" stroke="none" stroke-width="1" fill="none" fill-rule="evenodd" sketch:type="MSPage">
        <g id="file-image" sketch:type="MSArtboardGroup" fill="#000000">
            <path d="M15.999,7.992 C11.581,7.992 7.999,11.574 7.999,15.993 C7.999,20.412 11.581,23.993 15.999,23.993 C20.418,23.993 23.999,20.412 23.999,15.993 C23.999,11.574 20.418,7.992 15.999,7.992 L15.999,7.992 Z M16,19.999 C13.791,19.999 12,18.208 12,15.998 C12,13.789 13.791,11.998 16,11.998 C18.209,11.998 20,13.789 20,15.998 C20,18.208 18.209,19.999 16,19.999 L16,19.999 Z M64,39.514 L64,3.994 C64,1.785 62.208,0 60,0 L3.999,0 C1.79,0 0,1.785 0,3.994 L0,51.524 L0,52.219 L0,59.993 C0,62.203 1.79,64 3.999,64 L60,64 C62.208,64 64,62.203 64,59.993 L64,40.23 L64,39.514 L64,39.514 Z M6,60 C4.895,60 4,59.099 4,57.994 L4,52.937 L19.865,38.856 L39.369,60 L6,60 L6,60 Z M60,57.994 C60,59.099 59.104,60 57.999,60 L45.049,60 L30.631,44.368 L47.928,28.815 L60,40.884 L60,57.994 L60,57.994 Z M60,34.972 L49.6,24.574 C49.16,24.133 48.573,23.939 47.997,23.973 C47.423,23.94 46.838,24.135 46.4,24.573 L27.8,41.297 L21.599,34.574 C21.16,34.134 20.574,33.939 19.999,33.972 C19.425,33.939 18.839,34.134 18.4,34.574 L4,47.357 L4,5.994 C4,4.889 4.895,4 6,4 L57.999,4 C59.104,4 60,4.889 60,5.994 L60,34.972 L60,34.972 Z" id="Imported-Layers" sketch:type="MSShapeGroup"></path>
        </g>
    </g>
</svg>