<?xml version="1.0" encoding="UTF-8" standalone="no"?>
<svg width="52px" height="64px" viewBox="0 0 52 64" version="1.1" xmlns="http://www.w3.org/2000/svg" xmlns:xlink="http://www.w3.org/1999/xlink" xmlns:sketch="http://www.bohemiancoding.com/sketch/ns">
    <!-- Generator: Sketch 3.1.1 (8761) - http://www.bohemiancoding.com/sketch -->
    <title>file-generic</title>
    <desc>Created with Sketch.</desc>
    <defs></defs>
    <g id="Page-1" stroke="none" stroke-width="1" fill="none" fill-rule="evenodd" sketch:type="MSPage">
        <g id="file-generic" sketch:type="MSArtboardGroup" fill="#000000">
            <path d="M14,24 L24,24 C25.105,24 26,23.105 26,22.001 C26,20.894 25.105,20 24,20 L14,20 C12.895,20 12,20.894 12,22.001 C12,23.105 12.895,24 14,24 L14,24 Z M12,34.001 C12,35.105 12.895,36 14,36 L38,36 C39.105,36 40,35.105 40,34.001 C40,32.894 39.105,32 38,32 L14,32 C12.895,32 12,32.894 12,34.001 L12,34.001 Z M51.994,16 L36,0.006 L36,0 L2,0 C0.894,0 0,0.895 0,2 L0,62.001 C0,63.105 0.894,64 2,64 L50,64 C51.105,64 52,63.105 52,62.001 L52,16 L51.994,16 L51.994,16 Z M36,4.929 L47.072,16 L36,16 L36,4.929 L36,4.929 Z M48,58 C48,59.106 47.104,60 46,60 L6,60 C4.895,60 4,59.106 4,58 L4,6.001 C4,4.896 4.895,4 6,4 L32,4 L32,20 L48,20 L48,58 L48,58 Z M38,44 L14,44 C12.895,44 12,44.897 12,46 C12,47.106 12.895,48 14,48 L38,48 C39.105,48 40,47.106 40,46 C40,44.897 39.105,44 38,44 L38,44 Z" id="Imported-Layers" sketch:type="MSShapeGroup"></path>
        </g>
    </g>
</svg>