<?xml version="1.0" encoding="UTF-8" standalone="no"?>
<svg width="64px" height="64px" viewBox="0 0 64 64" version="1.1" xmlns="http://www.w3.org/2000/svg" xmlns:xlink="http://www.w3.org/1999/xlink" xmlns:sketch="http://www.bohemiancoding.com/sketch/ns">
    <!-- Generator: Sketch 3.1.1 (8761) - http://www.bohemiancoding.com/sketch -->
    <title>file-generic</title>
    <desc>Created with Sketch.</desc>
    <defs></defs>
    <g id="Page-1" stroke="none" stroke-width="1" fill="none" fill-rule="evenodd" sketch:type="MSPage">
        <g id="file-generic" sketch:type="MSArtboardGroup" fill="#000000">
            <path d="M20,24 L30,24 C31.105,24 32,23.105 32,22.001 C32,20.894 31.105,20 30,20 L20,20 C18.895,20 18,20.894 18,22.001 C18,23.105 18.895,24 20,24 L20,24 Z M18,34.001 C18,35.105 18.895,36 20,36 L44,36 C45.105,36 46,35.105 46,34.001 C46,32.894 45.105,32 44,32 L20,32 C18.895,32 18,32.894 18,34.001 L18,34.001 Z M57.994,16 L42,0.006 L42,0 L8,0 C6.894,0 6,0.895 6,2 L6,62.001 C6,63.105 6.894,64 8,64 L56,64 C57.105,64 58,63.105 58,62.001 L58,16 L57.994,16 L57.994,16 Z M42,4.929 L53.072,16 L42,16 L42,4.929 L42,4.929 Z M54,58 C54,59.106 53.104,60 52,60 L12,60 C10.895,60 10,59.106 10,58 L10,6.001 C10,4.896 10.895,4 12,4 L38,4 L38,20 L54,20 L54,58 L54,58 Z M44,44 L20,44 C18.895,44 18,44.897 18,46 C18,47.106 18.895,48 20,48 L44,48 C45.105,48 46,47.106 46,46 C46,44.897 45.105,44 44,44 L44,44 Z" id="Imported-Layers" sketch:type="MSShapeGroup"></path>
        </g>
    </g>
</svg>