<?xml version="1.0" encoding="UTF-8" standalone="no"?>
<svg width="64px" height="64px" viewBox="0 0 64 64" version="1.1" xmlns="http://www.w3.org/2000/svg" xmlns:xlink="http://www.w3.org/1999/xlink" xmlns:sketch="http://www.bohemiancoding.com/sketch/ns">
    <!-- Generator: Sketch 3.4.4 (17249) - http://www.bohemiancoding.com/sketch -->
    <title>filter-stroke</title>
    <desc>Created with Sketch.</desc>
    <defs></defs>
    <g id="Page-1" stroke="none" stroke-width="1" fill="none" fill-rule="evenodd" sketch:type="MSPage">
        <g id="filter-stroke" sketch:type="MSArtboardGroup" fill="#000000">
            <path d="M4.80751304,5.07436522 C4.48473043,5.07436522 4.40125217,5.10636522 4.2509913,5.4541913 C4.10768696,5.79923478 4.14942609,5.8381913 4.34977391,6.02601739 L25.643687,27.3171478 L25.643687,48.5206261 C25.643687,48.6681043 25.671513,48.7724522 25.8273391,48.9296696 L36.5417739,59.6399304 C36.6669913,59.7721043 36.7337739,59.8263652 36.9494261,59.8263652 C36.9911652,59.8263652 37.0843826,59.8166261 37.2416,59.7554087 C37.5087304,59.6385391 37.5407304,59.5550609 37.5407304,59.2350609 L37.5407304,27.3171478 L58.7845565,6.07471304 C59.0280348,5.84375652 59.0739478,5.80062609 58.9167304,5.4194087 C58.7789913,5.10636522 58.695513,5.07436522 58.3727304,5.07436522 L4.80751304,5.07436522 Z M36.9494261,64.0002783 C35.6207304,64.0002783 34.4450783,63.4980174 33.547687,62.5477565 L22.8749913,51.8792348 C21.9553391,50.9581913 21.4697739,49.7964522 21.4697739,48.5206261 L21.4697739,29.0451478 L1.44890435,9.02566957 C0.00194782609,7.67332174 -0.394573913,5.75888696 0.4096,3.8208 C1.23464348,1.92584348 2.79151304,0.900452174 4.80751304,0.900452174 L58.3727304,0.900452174 C60.3901217,0.900452174 61.9469913,1.92584348 62.7567304,3.78601739 C63.5762087,5.76027826 63.1810783,7.67471304 61.6868174,9.07297391 L41.7146435,29.0451478 L41.7146435,59.2350609 C41.7146435,61.2496696 40.6906435,62.8051478 38.827687,63.6162783 C38.1459478,63.8820174 37.5407304,64.0002783 36.9494261,64.0002783 L36.9494261,64.0002783 Z" id="Fill-1" sketch:type="MSShapeGroup"></path>
        </g>
    </g>
</svg>