<?xml version="1.0" encoding="UTF-8" standalone="no"?>
<svg width="64px" height="54px" viewBox="0 0 64 54" version="1.1" xmlns="http://www.w3.org/2000/svg" xmlns:xlink="http://www.w3.org/1999/xlink" xmlns:sketch="http://www.bohemiancoding.com/sketch/ns">
    <!-- Generator: Sketch 3.1.1 (8761) - http://www.bohemiancoding.com/sketch -->
    <title>forward</title>
    <desc>Created with Sketch.</desc>
    <defs></defs>
    <g id="Page-1" stroke="none" stroke-width="1" fill="none" fill-rule="evenodd" sketch:type="MSPage">
        <g id="forward" sketch:type="MSArtboardGroup" fill="#000000">
            <path d="M62.294137,21.8177994 L36.7571524,0.448328278 C36.169337,-0.0405584806 35.3560447,-0.135926534 34.6697678,0.193344219 C33.9825063,0.526630469 33.5443524,1.23235406 33.5443524,2.00533724 L33.4823216,13.2768373 C22.038137,13.6472669 13.175614,17.4007527 7.43038318,24.2552061 C-1.91952451,35.4092528 0.166875489,51.6198142 0.265337027,52.2924099 C0.412044719,53.2772105 1.11899857,54 2.09081395,54 C2.11149087,54 2.13512164,54 2.1577678,53.9979923 C3.15321395,53.9668721 3.78238318,53.1788309 3.8670601,52.1669256 C3.93499857,51.4220509 5.89635241,33.4015043 33.4823216,33.4185702 L33.5443524,44.9440504 C33.5443524,45.7200452 33.9825063,46.4277766 34.6727216,46.7600589 C35.3560447,47.0933452 36.177214,46.9889423 36.7630601,46.4950361 L62.3000447,24.925794 C62.7578909,24.5413102 63.0207832,23.9721135 63.018814,23.3687851 C63.0178293,22.7684683 62.7519832,22.19626 62.294137,21.8177994 L62.294137,21.8177994 Z M37.201214,40.6936469 L37.201214,31.3817093 C37.201214,30.8466444 37.1342601,30.1539711 36.7630601,29.7775183 C36.3938293,29.4010654 36.0344447,29.0075467 35.5135832,29.0075467 L35.5096447,29.0075467 C15.8035524,29.0075467 8.27321395,35.9864805 3.97339857,41.9806136 C4.60158318,37.1790831 6.43887549,31.4841045 10.4344447,26.7588684 C15.748414,20.4766234 24.1668755,17.215036 35.3727832,17.215036 C36.4607832,17.215036 37.201214,16.360739 37.201214,15.2534657 L37.201214,6.23164782 L57.6585678,23.3798277 L37.201214,40.6936469 L37.201214,40.6936469 Z" id="Imported-Layers" sketch:type="MSShapeGroup"></path>
        </g>
    </g>
</svg>