<?xml version="1.0" encoding="UTF-8" standalone="no"?>
<svg width="64px" height="64px" viewBox="0 0 64 64" version="1.1" xmlns="http://www.w3.org/2000/svg" xmlns:xlink="http://www.w3.org/1999/xlink" xmlns:sketch="http://www.bohemiancoding.com/sketch/ns">
    <!-- Generator: Sketch 3.1.1 (8761) - http://www.bohemiancoding.com/sketch -->
    <title>forward</title>
    <desc>Created with Sketch.</desc>
    <defs></defs>
    <g id="Page-1" stroke="none" stroke-width="1" fill="none" fill-rule="evenodd" sketch:type="MSPage">
        <g id="forward" sketch:type="MSArtboardGroup" fill="#000000">
            <path d="M62.294137,26.8177994 L36.7571524,5.44832828 C36.169337,4.95944152 35.3560447,4.86407347 34.6697678,5.19334422 C33.9825063,5.52663047 33.5443524,6.23235406 33.5443524,7.00533724 L33.4823216,18.2768373 C22.038137,18.6472669 13.175614,22.4007527 7.43038318,29.2552061 C-1.91952451,40.4092528 0.166875489,56.6198142 0.265337027,57.2924099 C0.412044719,58.2772105 1.11899857,59 2.09081395,59 C2.11149087,59 2.13512164,59 2.1577678,58.9979923 C3.15321395,58.9668721 3.78238318,58.1788309 3.8670601,57.1669256 C3.93499857,56.4220509 5.89635241,38.4015043 33.4823216,38.4185702 L33.5443524,49.9440504 C33.5443524,50.7200452 33.9825063,51.4277766 34.6727216,51.7600589 C35.3560447,52.0933452 36.177214,51.9889423 36.7630601,51.4950361 L62.3000447,29.925794 C62.7578909,29.5413102 63.0207832,28.9721135 63.018814,28.3687851 C63.0178293,27.7684683 62.7519832,27.19626 62.294137,26.8177994 L62.294137,26.8177994 Z M37.201214,45.6936469 L37.201214,36.3817093 C37.201214,35.8466444 37.1342601,35.1539711 36.7630601,34.7775183 C36.3938293,34.4010654 36.0344447,34.0075467 35.5135832,34.0075467 L35.5096447,34.0075467 C15.8035524,34.0075467 8.27321395,40.9864805 3.97339857,46.9806136 C4.60158318,42.1790831 6.43887549,36.4841045 10.4344447,31.7588684 C15.748414,25.4766234 24.1668755,22.215036 35.3727832,22.215036 C36.4607832,22.215036 37.201214,21.360739 37.201214,20.2534657 L37.201214,11.2316478 L57.6585678,28.3798277 L37.201214,45.6936469 L37.201214,45.6936469 Z" id="Imported-Layers" sketch:type="MSShapeGroup"></path>
        </g>
    </g>
</svg>