<?xml version="1.0" encoding="UTF-8" standalone="no"?>
<svg width="64px" height="64px" viewBox="0 0 64 64" version="1.1" xmlns="http://www.w3.org/2000/svg" xmlns:xlink="http://www.w3.org/1999/xlink" xmlns:sketch="http://www.bohemiancoding.com/sketch/ns">
    <!-- Generator: Sketch 3.2.2 (9983) - http://www.bohemiancoding.com/sketch -->
    <title>gear</title>
    <desc>Created with Sketch.</desc>
    <defs></defs>
    <g id="Page-1" stroke="none" stroke-width="1" fill="none" fill-rule="evenodd" sketch:type="MSPage">
        <g id="gear" sketch:type="MSArtboardGroup" fill="#000000">
            <path d="M58.0161838,39.07 L53.3737626,36.368 C53.6336033,34.948 53.7833589,33.49 53.7833589,31.994 C53.7833589,30.432 53.618727,28.911 53.3360758,27.433 L57.7841124,24.762 C59.6654781,23.633 60.3111128,21.129 59.2241456,19.172 L55.2898399,12.082 C54.2028727,10.125 51.7978585,9.453 49.915501,10.582 L45.0965468,13.477 C42.9811261,11.719 40.5691696,10.311 37.9340674,9.369 L37.9340674,3.998 C37.9340674,1.789 36.1578281,0 33.9670337,0 L26.0329663,0 C23.8421719,0 22.0659326,1.789 22.0659326,3.998 L22.0659326,9.369 C19.2840502,10.362 16.7471321,11.87 14.5503872,13.767 L9.9178836,11.07 C8.02064972,9.965 5.59480861,10.621 4.49891555,12.535 L0.531881835,19.461 C-0.563019469,21.375 0.0865823009,23.822 1.98381617,24.926 L6.62425386,27.627 C6.36540491,29.045 6.21564938,30.501 6.21564938,31.994 C6.21564938,33.558 6.38028128,35.082 6.66392419,36.562 L2.21489589,39.234 C0.333530149,40.363 -0.311112829,42.867 0.77486265,44.826 L4.71016009,51.914 C5.79613557,53.871 8.20214152,54.543 10.084499,53.414 L14.9064285,50.517 C17.0218492,52.273 19.4318222,53.681 22.0659326,54.621 L22.0659326,59.998 C22.0659326,62.207 23.8421719,64 26.0329663,64 L33.9670337,64 C36.1578281,64 37.9340674,62.207 37.9340674,59.998 L37.9340674,54.621 C40.7139663,53.629 43.2498926,52.122 45.4456458,50.227 L50.0821164,52.926 C51.9793503,54.031 54.4051914,53.375 55.5010845,51.463 L59.4681182,44.535 C60.5630195,42.621 59.9134177,40.174 58.0161838,39.07 L58.0161838,39.07 Z M55.0409085,44.266 L53.0573917,47.731 C52.5089493,48.688 51.2960287,49.016 50.3479077,48.463 L44.8376978,45.255 C42.0379638,48.433 38.2603559,50.717 33.9670337,51.595 L33.9670337,57.996 C33.9670337,59.102 33.0784182,60 31.9835169,60 L28.0164831,60 C26.9205901,60 26.0329663,59.102 26.0329663,57.996 L26.0329663,51.595 C21.8527045,50.741 18.1603879,48.552 15.3834643,45.504 L9.81969951,48.846 C8.87951252,49.41 7.67650955,49.074 7.13302593,48.096 L5.16636897,44.551 C4.62288535,43.572 4.94520684,42.32 5.88539383,41.758 L11.2468399,38.537 C10.5416996,36.486 10.1469798,34.288 10.1469798,31.994 C10.1469798,29.779 10.519881,27.654 11.1803921,25.662 L5.68505863,22.463 C4.73594581,21.91 4.4116408,20.686 4.95909146,19.731 L6.94260831,16.266 C7.49105072,15.309 8.70297952,14.982 9.65209234,15.533 L15.1573434,18.738 C17.9580692,15.558 21.7376605,13.271 26.0329663,12.393 L26.0329663,5.998 C26.0329663,4.893 26.9205901,4 28.0164831,4 L31.9835169,4 C33.0784182,4 33.9670337,4.893 33.9670337,5.998 L33.9670337,12.393 C38.149279,13.248 41.8425874,15.439 44.619511,18.49 L50.1793087,15.15 C51.1204875,14.586 52.3234905,14.922 52.8669741,15.898 L54.833631,19.443 C55.3771147,20.422 55.0547932,21.674 54.1126227,22.238 L48.7541519,25.458 C49.4583004,27.508 49.8520284,29.703 49.8520284,31.994 C49.8520284,34.213 49.4781355,36.34 48.8156409,38.334 L54.3149414,41.535 C55.2630624,42.086 55.5883592,43.31 55.0409085,44.266 L55.0409085,44.266 Z M30,21.994 C24.5344193,21.994 20.1052262,26.473 20.1052262,31.994 C20.1052262,37.516 24.5344193,41.996 30,41.996 C35.4645889,41.996 39.8947738,37.516 39.8947738,31.994 C39.8947738,26.473 35.4645889,21.994 30,21.994 L30,21.994 Z M30,37.994 C26.707362,37.994 24.0375483,35.309 24.0375483,31.994 C24.0375483,28.68 26.707362,25.992 30,25.992 C33.2916462,25.992 35.9614599,28.68 35.9614599,31.994 C35.9614599,35.309 33.2916462,37.994 30,37.994 L30,37.994 Z" id="Fill-18" sketch:type="MSShapeGroup"></path>
        </g>
    </g>
</svg>