<?xml version="1.0" encoding="UTF-8" standalone="no"?>
<svg width="64px" height="64px" viewBox="0 0 64 64" version="1.1" xmlns="http://www.w3.org/2000/svg" xmlns:xlink="http://www.w3.org/1999/xlink" xmlns:sketch="http://www.bohemiancoding.com/sketch/ns">
    <!-- Generator: Sketch 3.1.1 (8761) - http://www.bohemiancoding.com/sketch -->
    <title>gear</title>
    <desc>Created with Sketch.</desc>
    <defs></defs>
    <g id="Page-1" stroke="none" stroke-width="1" fill="none" fill-rule="evenodd" sketch:type="MSPage">
        <g id="gear" sketch:type="MSArtboardGroup" fill="#000000">
            <path d="M60.0161838,39.07 L55.3737626,36.368 C55.6336033,34.948 55.7833589,33.49 55.7833589,31.994 C55.7833589,30.432 55.618727,28.911 55.3360758,27.433 L59.7841124,24.762 C61.6654781,23.633 62.3111128,21.129 61.2241456,19.172 L57.2898399,12.082 C56.2028727,10.125 53.7978585,9.453 51.915501,10.582 L47.0965468,13.477 C44.9811261,11.719 42.5691696,10.311 39.9340674,9.369 L39.9340674,3.998 C39.9340674,1.789 38.1578281,0 35.9670337,0 L28.0329663,0 C25.8421719,0 24.0659326,1.789 24.0659326,3.998 L24.0659326,9.369 C21.2840502,10.362 18.7471321,11.87 16.5503872,13.767 L11.9178836,11.07 C10.0206497,9.965 7.59480861,10.621 6.49891555,12.535 L2.53188183,19.461 C1.43698053,21.375 2.0865823,23.822 3.98381617,24.926 L8.62425386,27.627 C8.36540491,29.045 8.21564938,30.501 8.21564938,31.994 C8.21564938,33.558 8.38028128,35.082 8.66392419,36.562 L4.21489589,39.234 C2.33353015,40.363 1.68888717,42.867 2.77486265,44.826 L6.71016009,51.914 C7.79613557,53.871 10.2021415,54.543 12.084499,53.414 L16.9064285,50.517 C19.0218492,52.273 21.4318222,53.681 24.0659326,54.621 L24.0659326,59.998 C24.0659326,62.207 25.8421719,64 28.0329663,64 L35.9670337,64 C38.1578281,64 39.9340674,62.207 39.9340674,59.998 L39.9340674,54.621 C42.7139663,53.629 45.2498926,52.122 47.4456458,50.227 L52.0821164,52.926 C53.9793503,54.031 56.4051914,53.375 57.5010845,51.463 L61.4681182,44.535 C62.5630195,42.621 61.9134177,40.174 60.0161838,39.07 L60.0161838,39.07 Z M57.0409085,44.266 L55.0573917,47.731 C54.5089493,48.688 53.2960287,49.016 52.3479077,48.463 L46.8376978,45.255 C44.0379638,48.433 40.2603559,50.717 35.9670337,51.595 L35.9670337,57.996 C35.9670337,59.102 35.0784182,60 33.9835169,60 L30.0164831,60 C28.9205901,60 28.0329663,59.102 28.0329663,57.996 L28.0329663,51.595 C23.8527045,50.741 20.1603879,48.552 17.3834643,45.504 L11.8196995,48.846 C10.8795125,49.41 9.67650955,49.074 9.13302593,48.096 L7.16636897,44.551 C6.62288535,43.572 6.94520684,42.32 7.88539383,41.758 L13.2468399,38.537 C12.5416996,36.486 12.1469798,34.288 12.1469798,31.994 C12.1469798,29.779 12.519881,27.654 13.1803921,25.662 L7.68505863,22.463 C6.73594581,21.91 6.4116408,20.686 6.95909146,19.731 L8.94260831,16.266 C9.49105072,15.309 10.7029795,14.982 11.6520923,15.533 L17.1573434,18.738 C19.9580692,15.558 23.7376605,13.271 28.0329663,12.393 L28.0329663,5.998 C28.0329663,4.893 28.9205901,4 30.0164831,4 L33.9835169,4 C35.0784182,4 35.9670337,4.893 35.9670337,5.998 L35.9670337,12.393 C40.149279,13.248 43.8425874,15.439 46.619511,18.49 L52.1793087,15.15 C53.1204875,14.586 54.3234905,14.922 54.8669741,15.898 L56.833631,19.443 C57.3771147,20.422 57.0547932,21.674 56.1126227,22.238 L50.7541519,25.458 C51.4583004,27.508 51.8520284,29.703 51.8520284,31.994 C51.8520284,34.213 51.4781355,36.34 50.8156409,38.334 L56.3149414,41.535 C57.2630624,42.086 57.5883592,43.31 57.0409085,44.266 L57.0409085,44.266 Z M32,21.994 C26.5344193,21.994 22.1052262,26.473 22.1052262,31.994 C22.1052262,37.516 26.5344193,41.996 32,41.996 C37.4645889,41.996 41.8947738,37.516 41.8947738,31.994 C41.8947738,26.473 37.4645889,21.994 32,21.994 L32,21.994 Z M32,37.994 C28.707362,37.994 26.0375483,35.309 26.0375483,31.994 C26.0375483,28.68 28.707362,25.992 32,25.992 C35.2916462,25.992 37.9614599,28.68 37.9614599,31.994 C37.9614599,35.309 35.2916462,37.994 32,37.994 L32,37.994 Z" id="Fill-18" sketch:type="MSShapeGroup"></path>
        </g>
    </g>
</svg>