<?xml version="1.0" encoding="UTF-8" standalone="no"?>
<svg width="64px" height="64px" viewBox="0 0 64 64" version="1.1" xmlns="http://www.w3.org/2000/svg" xmlns:xlink="http://www.w3.org/1999/xlink" xmlns:sketch="http://www.bohemiancoding.com/sketch/ns">
    <!-- Generator: Sketch 3.2 (9961) - http://www.bohemiancoding.com/sketch -->
    <title>help</title>
    <desc>Created with Sketch.</desc>
    <defs></defs>
    <g id="Page-1" stroke="none" stroke-width="1" fill="none" fill-rule="evenodd" sketch:type="MSPage">
        <g id="help" sketch:type="MSArtboardGroup" fill="#000000">
            <path d="M32,1.42108547e-14 C14.326,1.42108547e-14 0,14.328 0,32.002 C0,49.676 14.326,64.002 32,64.002 C49.673,64.002 64,49.676 64,32.002 C64,14.328 49.673,1.42108547e-14 32,1.42108547e-14 L32,1.42108547e-14 Z M32,60.002 C16.536,60.002 4,47.465 4,32.002 C4,16.539 16.536,4.002 32,4.002 C47.464,4.002 60,16.539 60,32.002 C60,47.465 47.464,60.002 32,60.002 L32,60.002 Z M32.462,17.01 C28.324,17.01 25.102,18.712 23.011,21.46 L25.189,23.817 C26.8,21.635 28.847,20.237 32.157,20.237 C35.554,20.237 37.252,22.116 37.252,24.298 C37.252,28.925 29.413,29.358 29.413,34.901 C29.413,36.255 29.893,37.477 31.068,38.481 L33.725,37.303 C32.984,36.78 32.593,35.905 32.593,35.21 C32.593,30.93 40.998,30.364 40.998,23.772 C40.998,20.018 37.775,17.01 32.462,17.01 L32.462,17.01 Z M31.982,42.19 C30.676,42.19 29.587,43.284 29.587,44.591 C29.587,45.901 30.676,46.991 31.982,46.991 C33.289,46.991 34.378,45.901 34.378,44.591 C34.378,43.284 33.289,42.19 31.982,42.19 L31.982,42.19 Z" id="Fill-1" sketch:type="MSShapeGroup"></path>
        </g>
    </g>
</svg>