<?xml version="1.0" encoding="UTF-8" standalone="no"?>
<svg width="64px" height="64px" viewBox="0 0 64 64" version="1.1" xmlns="http://www.w3.org/2000/svg" xmlns:xlink="http://www.w3.org/1999/xlink" xmlns:sketch="http://www.bohemiancoding.com/sketch/ns">
    <!-- Generator: Sketch 3.2 (9961) - http://www.bohemiancoding.com/sketch -->
    <title>hours</title>
    <desc>Created with Sketch.</desc>
    <defs></defs>
    <g id="Page-1" stroke="none" stroke-width="1" fill="none" fill-rule="evenodd" sketch:type="MSPage">
        <g id="hours" sketch:type="MSArtboardGroup" fill="#000000">
            <path d="M32,0 C14.326,0 0,14.1075692 0,31.5096615 C0,48.9117538 14.326,63.0173538 32,63.0173538 C49.673,63.0173538 64,48.9117538 64,31.5096615 C64,14.1075692 49.673,0 32,0 L32,0 Z M32,59.0788923 C16.536,59.0788923 4,46.7347692 4,31.5096615 C4,16.2845538 16.536,3.94043077 32,3.94043077 C47.464,3.94043077 60,16.2845538 60,31.5096615 C60,46.7347692 47.464,59.0788923 32,59.0788923 L32,59.0788923 Z M47.997,31.5136 L32,31.5136 L32,15.7558154 C32,14.6678154 31.105,13.7865846 30,13.7865846 C28.895,13.7865846 28,14.6678154 28,15.7558154 L28,33.3932308 C27.999,33.4227692 27.991,33.4493538 27.991,33.4788923 C27.991,33.8845538 28.119,34.2616615 28.338,34.5737846 C28.697,35.1005538 29.307,35.4589538 30,35.4589538 C30.06,35.4589538 30.117,35.4520615 30.175,35.4520615 L47.997,35.4520615 C49.108,35.4520615 50.009,34.5590154 50.009,33.4818462 C50.009,32.4007385 49.108,31.5136 47.997,31.5136 L47.997,31.5136 Z" id="Imported-Layers" sketch:type="MSShapeGroup"></path>
        </g>
    </g>
</svg>