<?xml version="1.0" encoding="UTF-8" standalone="no"?>
<svg width="64px" height="64px" viewBox="0 0 64 64" version="1.1" xmlns="http://www.w3.org/2000/svg" xmlns:xlink="http://www.w3.org/1999/xlink" xmlns:sketch="http://www.bohemiancoding.com/sketch/ns">
    <!-- Generator: Sketch 3.2.2 (9983) - http://www.bohemiancoding.com/sketch -->
    <title>infos</title>
    <desc>Created with Sketch.</desc>
    <defs></defs>
    <g id="Page-1" stroke="none" stroke-width="1" fill="none" fill-rule="evenodd" sketch:type="MSPage">
        <g id="infos" sketch:type="MSArtboardGroup" fill="#000000">
            <path d="M32,0 C14.327,0 0,14.328 0,32 C0,49.674 14.327,63.998 32,63.998 C49.673,63.998 64,49.674 64,32 C64,14.328 49.673,0 32,0 L32,0 Z M32,60 C16.536,60 4,47.465 4,32 C4,16.535 16.536,4 32,4 C47.464,4 60,16.535 60,32 C60,47.465 47.464,60 32,60 L32,60 Z M36.077,25.437 L31.272,42.101 C31.006,43.054 30.873,43.679 30.873,43.976 C30.873,44.147 30.944,44.308 31.084,44.456 C31.225,44.604 31.373,44.679 31.53,44.679 C31.795,44.679 32.061,44.562 32.327,44.327 C33.03,43.749 33.873,42.702 34.858,41.187 L35.655,41.655 C33.295,45.765 30.787,47.819 28.131,47.819 C27.116,47.819 26.307,47.534 25.706,46.964 C25.104,46.394 24.803,45.671 24.803,44.796 C24.803,44.218 24.936,43.483 25.202,42.593 L28.459,31.39 C28.772,30.312 28.928,29.499 28.928,28.952 C28.928,28.608 28.78,28.304 28.483,28.038 C28.186,27.772 27.78,27.64 27.264,27.64 C27.03,27.64 26.748,27.647 26.42,27.663 L26.725,26.726 L34.67,25.437 L36.077,25.437 L36.077,25.437 Z M34.623,14.655 C35.592,14.655 36.409,14.991 37.073,15.663 C37.737,16.335 38.069,17.147 38.069,18.101 C38.069,19.054 37.733,19.866 37.061,20.538 C36.389,21.21 35.577,21.546 34.623,21.546 C33.686,21.546 32.881,21.21 32.209,20.538 C31.537,19.866 31.202,19.054 31.202,18.101 C31.202,17.147 31.534,16.335 32.198,15.663 C32.862,14.991 33.67,14.655 34.623,14.655 L34.623,14.655 Z" id="Fill-12" sketch:type="MSShapeGroup"></path>
        </g>
    </g>
</svg>