<?xml version="1.0" encoding="UTF-8" standalone="no"?>
<svg width="64px" height="64px" viewBox="0 0 64 64" version="1.1" xmlns="http://www.w3.org/2000/svg" xmlns:xlink="http://www.w3.org/1999/xlink" xmlns:sketch="http://www.bohemiancoding.com/sketch/ns">
    <!-- Generator: Sketch 3.2.2 (9983) - http://www.bohemiancoding.com/sketch -->
    <title>insight</title>
    <desc>Created with Sketch.</desc>
    <defs></defs>
    <g id="Page-1" stroke="none" stroke-width="1" fill="none" fill-rule="evenodd" sketch:type="MSPage">
        <g id="insight" sketch:type="MSArtboardGroup" fill="#000000">
            <path d="M5.09300449,44.4358309 L15.6404287,31.5285712 L16.3276094,30.5537522 L16.4075141,30.5894013 L16.455457,30.5316251 L16.7787638,30.7602712 L37.4740886,40.2281851 L54.0857114,18.5028173 L50.4272598,15.924092 L63.9053436,9.69041354 L62.5654028,24.4798801 L58.2476375,21.4364257 L58.2476375,21.4364257 L40.4821943,44.672032 L39.1828205,46.5147225 L39.1004571,46.4766149 L39.0562022,46.5368496 L38.7316661,46.3082035 L17.9072644,36.7812842 L5.13971803,52.4066612 L5.09300449,52.3737305 L5.09300449,58.905864 L61.4528831,58.905864 C62.8542891,58.905864 64,60.0515529 64,61.452932 C64,62.8530818 62.8542891,64 61.4528831,64 L2.5471169,64 C1.14571088,64 0,62.8530818 0,61.452932 L0,2.54706798 C0,1.14691816 1.14571088,0 2.5471169,0 C3.94729361,0 5.09300449,1.14691816 5.09300449,2.54706798 L5.09300449,44.4358309 Z" id="Fill-3" sketch:type="MSShapeGroup"></path>
        </g>
    </g>
</svg>