<?xml version="1.0" encoding="UTF-8" standalone="no"?>
<svg width="64px" height="64px" viewBox="0 0 64 64" version="1.1" xmlns="http://www.w3.org/2000/svg" xmlns:xlink="http://www.w3.org/1999/xlink" xmlns:sketch="http://www.bohemiancoding.com/sketch/ns">
    <!-- Generator: Sketch 3.2.2 (9983) - http://www.bohemiancoding.com/sketch -->
    <title>invisible</title>
    <desc>Created with Sketch.</desc>
    <defs></defs>
    <g id="Page-1" stroke="none" stroke-width="1" fill="none" fill-rule="evenodd" sketch:type="MSPage">
        <g id="invisible" sketch:type="MSArtboardGroup" fill="#000000">
            <path d="M9.28680287,55.7145223 C9.28184969,55.7095692 9.27691532,55.704584 9.272,55.6995667 C9.662,56.0986793 10.174,56.2977252 10.686,56.2977252 C10.848,56.2977252 11.00875,56.2755239 11.165625,56.233418 C11.3225,56.1913122 11.4755,56.1293017 11.622,56.0496834 C11.793,55.9567953 11.957,55.8465545 12.1,55.6995667 L54.728,12.1881302 C55.51,11.389905 55.509,10.0986584 54.728,9.30145405 C54.533,9.10138738 54.307,8.95235814 54.066,8.85232481 C53.344,8.55324556 52.485,8.70227481 51.899,9.3004333 L9.271,52.8118698 C8.491,53.6090742 8.491,54.9033831 9.272,55.6995667 C9.27690974,55.7045912 9.28183881,55.7095839 9.28678698,55.714545 L9.28680287,55.7145223 Z M54.066,8.85232481 C54.307,8.95235814 54.533,9.10138738 54.728,9.30145405 C54.533,9.10138738 54.307,8.95235814 54.066,8.85232481 Z M54.066,8.85232481 C53.825,8.75229148 53.569,8.70227481 53.313,8.70227481 C52.801,8.70227481 52.289,8.90132072 51.899,9.3004333 C52.485,8.70227481 53.344,8.55324556 54.066,8.85232481 Z M12.1,55.6995667 C11.957,55.8465545 11.793,55.9567953 11.622,56.0496834 C11.793,55.9567953 11.957,55.8465545 12.1,55.6995667 Z M4.759,32.4806058 C9.517,25.2914757 20.609,12.0870761 32,12.0870761 C35.48,12.0870761 38.86,13.2599158 42.004,15.0697025 L44.903,12.1105533 C40.955,9.66177819 36.593,8 32,8 C14.327,8 0,32.4979585 0,32.4979585 L0.001,32.5 L0,32.5020415 C0,32.5020415 4.33,39.8932797 11.157,46.5567244 L13.972,43.6843388 C9.739,39.5472461 6.47,35.0355387 4.759,32.4806058 Z M64,32.4979585 C64,32.4989793 59.67,25.1067203 52.843,18.4432756 L50.026,21.3177027 C54.259,25.4558162 57.53,29.9685443 59.241,32.524498 C54.483,39.713628 43.391,52.9170069 32,52.9170069 C28.519,52.9170069 25.138,51.7431464 21.993,49.9333597 L19.097,52.8894467 C23.045,55.3382218 27.407,57 32,57 C49.673,57 64,32.5020415 64,32.5020415 L63.999,32.5 L64,32.4979585 Z M44,32.4979585 C44,39.2624573 38.627,44.7469378 32,44.7469378 C30.532,44.7469378 29.132,44.4652112 27.832,43.9721898 L24.799,47.0681193 C26.966,48.1858387 29.407,48.8299308 32,48.8299308 C40.836,48.8299308 48,41.5172902 48,32.4979585 C48,29.8511582 47.369,27.3595117 46.274,25.148571 L43.241,28.2445005 C43.723,29.5704525 44,30.9995 44,32.4979585 Z M20,32.4979585 C20,25.7334597 25.372,20.2489793 32,20.2489793 C33.469,20.2489793 34.869,20.5317265 36.17,21.0247479 L39.203,17.9288184 C37.036,16.8110991 34.594,16.1659862 32,16.1659862 C23.163,16.1659862 16,23.4786268 16,32.4979585 C16,35.1457795 16.631,37.6384468 17.727,39.8504083 L20.76,36.7544788 C20.277,35.427506 20,33.9974377 20,32.4979585 Z" id="Fill-9" sketch:type="MSShapeGroup"></path>
        </g>
    </g>
</svg>