<?xml version="1.0" encoding="UTF-8" standalone="no"?>
<svg width="64px" height="64px" viewBox="0 0 64 64" version="1.1" xmlns="http://www.w3.org/2000/svg" xmlns:xlink="http://www.w3.org/1999/xlink" xmlns:sketch="http://www.bohemiancoding.com/sketch/ns">
    <!-- Generator: Sketch 3.2 (9961) - http://www.bohemiancoding.com/sketch -->
    <title>join-conv</title>
    <desc>Created with Sketch.</desc>
    <defs></defs>
    <g id="Page-1" stroke="none" stroke-width="1" fill="none" fill-rule="evenodd" sketch:type="MSPage">
        <g id="join-conv" sketch:type="MSArtboardGroup" fill="#000000">
            <path d="M15.278,35.4816 C18.275,37.9214769 21.977,39.3836308 26,39.3836308 C30.023,39.3836308 33.725,37.9234462 36.722,35.4825846 C39.375,35.7169231 41.649,37.4183385 42.919,39.3875692 L47.308,39.3875692 C46.092,36.4337231 43.365,33.3420308 39.924,32.1683692 C42.47,28.7714462 44,24.4263385 44,19.6923077 C44,8.81526154 35.941,0 26,0 C16.059,0 8,8.81427692 8,19.6913231 C8,24.4263385 9.53,28.7694769 12.076,32.1664 C7.378,33.7683692 4,38.1518769 4,43.3220923 L4,51.1990154 C4,57.7220923 9.372,63.0183385 16,63.0183385 L36,63.0183385 L36,59.0798769 L16,59.0798769 C11.581,59.0798769 8,55.5490462 8,51.1990154 L8,43.3220923 C8,39.2123077 11.198,35.8409846 15.278,35.4816 L15.278,35.4816 Z M12,19.6913231 C12,10.9912615 18.268,3.93747692 26,3.93747692 C33.731,3.93747692 40,10.9912615 40,19.6913231 C40,28.3913846 33.731,35.4451692 26,35.4451692 C18.268,35.4451692 12,28.3913846 12,19.6913231 L12,19.6913231 Z M58,51.2029538 L52,51.2029538 L52,45.2913231 C52,44.2033231 51.105,43.3220923 50,43.3220923 C48.896,43.3220923 48,44.2033231 48,45.2913231 L48,51.2029538 L42,51.2029538 C40.895,51.2029538 40,52.0832 40,53.1721846 C40,54.2582154 40.895,55.1414154 42,55.1414154 L48,55.1414154 L48,61.0451692 C48,62.1341538 48.896,63.0144 50,63.0144 C51.105,63.0144 52,62.1341538 52,61.0451692 L52,55.1414154 L58,55.1414154 C59.104,55.1414154 60,54.2582154 60,53.1721846 C60,52.0832 59.104,51.2029538 58,51.2029538 L58,51.2029538 Z" id="Imported-Layers" sketch:type="MSShapeGroup"></path>
        </g>
    </g>
</svg>