<?xml version="1.0" encoding="UTF-8" standalone="no"?>
<svg width="64px" height="64px" viewBox="0 0 64 64" version="1.1" xmlns="http://www.w3.org/2000/svg" xmlns:xlink="http://www.w3.org/1999/xlink" xmlns:sketch="http://www.bohemiancoding.com/sketch/ns">
    <!-- Generator: Sketch 3.2.2 (9983) - http://www.bohemiancoding.com/sketch -->
    <title>leave-conv</title>
    <desc>Created with Sketch.</desc>
    <defs></defs>
    <g id="Page-1" stroke="none" stroke-width="1" fill="none" fill-rule="evenodd" sketch:type="MSPage">
        <g id="leave-conv" sketch:type="MSArtboardGroup" fill="#000000">
            <path d="M56,60 L56,0 L8,0 L8,21 L12,21 L12,4 L52,4 L52,60 L12,60 L12,44 L8,44 L8,60 L0,60 L0,64 L64,64 L64,60 L56,60 M44,28 L48,28 L48,36 L44,36 L44,28 Z M2.001,30 L24.897,30 L16.572,23.322 C15.809,22.56 15.809,21.319 16.572,20.555 C17.335,19.793 18.571,19.791 19.334,20.553 L30.945,30.207 C31.118,30.297 31.285,30.405 31.43,30.551 C31.82,30.941 32.008,31.454 31.999,31.965 C32,31.97 32.001,31.975 32.001,31.98 C32.001,31.985 32,31.989 31.999,31.994 C32.008,32.505 31.82,33.018 31.43,33.409 C31.285,33.555 31.118,33.664 30.945,33.754 L19.334,43.409 C18.571,44.171 17.335,44.171 16.572,43.409 C15.809,42.644 15.809,41.421 16.572,40.659 L24.899,34 L2.001,34 C0.896,34 0.001,33.104 0.001,32.001 C0.001,30.897 0.896,30 2.001,30" id="Fill-3" sketch:type="MSShapeGroup"></path>
        </g>
    </g>
</svg>