<?xml version="1.0" encoding="UTF-8" standalone="no"?>
<svg width="64px" height="64px" viewBox="0 0 64 64" version="1.1" xmlns="http://www.w3.org/2000/svg" xmlns:xlink="http://www.w3.org/1999/xlink" xmlns:sketch="http://www.bohemiancoding.com/sketch/ns">
    <!-- Generator: Sketch 3.2 (9961) - http://www.bohemiancoding.com/sketch -->
    <title>magnify</title>
    <desc>Created with Sketch.</desc>
    <defs></defs>
    <g id="Page-1" stroke="none" stroke-width="1" fill="none" fill-rule="evenodd" sketch:type="MSPage">
        <g id="magnify" sketch:type="MSArtboardGroup" fill="#000000">
            <path d="M61.7577931,57.2557241 L46.0446897,41.5404138 C49.5558621,37.0317241 51.4736552,31.4703448 51.4736552,25.7368276 C51.4736552,11.5464828 39.9293793,0 25.7368276,0 C11.5464828,0 0,11.5464828 0,25.7368276 C0,39.9293793 11.5464828,51.4736552 25.7368276,51.4736552 C31.4703448,51.4736552 37.0317241,49.5558621 41.5382069,46.0446897 L57.2535172,61.7577931 C57.856,62.3602759 58.6548966,62.6935172 59.5067586,62.6935172 C60.3564138,62.6935172 61.1575172,62.3602759 61.7577931,61.7577931 C62.3602759,61.1575172 62.6913103,60.3564138 62.6913103,59.5045517 C62.6913103,58.6526897 62.3602759,57.8537931 61.7577931,57.2557241 L61.7577931,57.2557241 Z M25.7368276,6.55227586 C36.3166897,6.55227586 44.9235862,15.1591724 44.9235862,25.7368276 C44.9235862,36.3166897 36.3166897,44.9235862 25.7368276,44.9235862 C15.1591724,44.9235862 6.55227586,36.3166897 6.55227586,25.7368276 C6.55227586,15.1591724 15.1591724,6.55227586 25.7368276,6.55227586 L25.7368276,6.55227586 Z" id="Imported-Layers" sketch:type="MSShapeGroup"></path>
        </g>
    </g>
</svg>