<?xml version="1.0" encoding="UTF-8" standalone="no"?>
<svg width="64px" height="64px" viewBox="0 0 64 64" version="1.1" xmlns="http://www.w3.org/2000/svg" xmlns:xlink="http://www.w3.org/1999/xlink" xmlns:sketch="http://www.bohemiancoding.com/sketch/ns">
    <!-- Generator: Sketch 3.2.2 (9983) - http://www.bohemiancoding.com/sketch -->
    <title>mail-verification</title>
    <desc>Created with Sketch.</desc>
    <defs></defs>
    <g id="Page-1" stroke="none" stroke-width="1" fill="none" fill-rule="evenodd" sketch:type="MSPage">
        <g id="mail-verification" sketch:type="MSArtboardGroup" fill="#000000">
            <path d="M63.1758769,5.982 C63.1837538,5.468 63.0793846,4.948 62.6944,4.557 C62.2513231,4.106 61.7284923,4 61.1515077,4 L2.51963077,4 C1.94264615,4 1.33907692,4.106 0.895015385,4.557 C0.509046154,4.949 0.158523077,5.468 0.1664,5.982 C0.1664,5.992 0,6.004 0,6.013 L0,54.013 C0,55.119 1.21009231,56 2.29710769,56 L33.9209846,56 C33.8491077,55 33.8048,54.678 33.8048,54.001 C33.8048,53.323 33.8491077,53 33.9209846,52 L6.23556923,52 C5.14855385,52 3.93846154,51.115 3.93846154,50.013 L3.93846154,10.084 L30.0996923,31.22 C30.1508923,31.288 30.2808615,31.358 30.3419077,31.42 C30.7308308,31.815 31.2851692,32.004 31.7942154,31.993 C32.3042462,32.004 32.8379077,31.815 33.2268308,31.42 C33.2888615,31.357 33.1835077,31.287 33.2347077,31.218 L59.0769231,10.084 L59.0769231,37.906 C61.0461538,38.632 62.0307692,39.547 63.0153846,40.624 L63.0153846,6.013 C63.0153846,6.002 63.1768615,5.992 63.1758769,5.982 L63.1758769,5.982 Z M31.8355692,27.479 L7.87593846,8 L55.7952,8 L31.8355692,27.479 L31.8355692,27.479 Z M59.6440615,44.939 L49.5586462,55.184 L43.4116923,48.943 C42.6436923,48.162 41.3961846,48.162 40.6272,48.943 C39.8582154,49.724 39.8582154,50.99 40.6272,51.769 L47.8286769,59.084 C48.2993231,59.562 48.9491692,59.744 49.5586462,59.637 C50.1691077,59.744 50.8179692,59.562 51.2886154,59.084 L62.4295385,47.771 C63.1975385,46.99 63.1975385,45.722 62.4295385,44.939 C61.6595692,44.16 60.4130462,44.16 59.6440615,44.939 L59.6440615,44.939 Z" id="Imported-Layers-2" sketch:type="MSShapeGroup"></path>
        </g>
    </g>
</svg>