<?xml version="1.0" encoding="UTF-8" standalone="no"?>
<svg width="64px" height="64px" viewBox="0 0 64 64" version="1.1" xmlns="http://www.w3.org/2000/svg" xmlns:xlink="http://www.w3.org/1999/xlink" xmlns:sketch="http://www.bohemiancoding.com/sketch/ns">
    <!-- Generator: Sketch 3.2.2 (9983) - http://www.bohemiancoding.com/sketch -->
    <title>messages</title>
    <desc>Created with Sketch.</desc>
    <defs></defs>
    <g id="Page-1" stroke="none" stroke-width="1" fill="none" fill-rule="evenodd" sketch:type="MSPage">
        <g id="messages" sketch:type="MSArtboardGroup" fill="#000000">
            <path d="M63.997,7.962 C64.004,7.45 63.814,6.938 63.424,6.549 C62.97,6.094 62.349,6 61.758,6 L2.241,6 C1.651,6 1.03,6.094 0.576,6.549 C0.184,6.939 -0.005,7.454 0.003,7.967 C0.002,7.976 0,7.983 0,7.992 L0,55.996 C0,57.098 0.895,58 2,58 L62,58 C63.105,58 64,57.098 64,55.996 L64,7.992 C64,7.982 63.997,7.973 63.997,7.962 L63.997,7.962 Z M56.334,10 L32,29.479 L7.665,10 L56.334,10 L56.334,10 Z M58,54 L6,54 C4.896,54 4,53.1 4,51.992 L4,12.067 L30.404,33.203 C30.456,33.271 30.504,33.34 30.566,33.402 C30.961,33.798 31.482,33.987 32,33.975 C32.518,33.987 33.039,33.798 33.434,33.402 C33.496,33.34 33.544,33.271 33.596,33.203 L60,12.067 L60,51.992 C60,53.1 59.104,54 58,54 L58,54 Z" id="Fill-14" sketch:type="MSShapeGroup"></path>
        </g>
    </g>
</svg>