<?xml version="1.0" encoding="UTF-8" standalone="no"?>
<svg width="64px" height="64px" viewBox="0 0 64 64" version="1.1" xmlns="http://www.w3.org/2000/svg" xmlns:xlink="http://www.w3.org/1999/xlink">
    <!-- Generator: Sketch 3.7 (28169) - http://www.bohemiancoding.com/sketch -->
    <title>notifications</title>
    <desc>Created with Sketch.</desc>
    <defs></defs>
    <g id="Page-1" stroke="none" stroke-width="1" fill="none" fill-rule="evenodd">
        <g id="notifications" fill="#000000">
            <path d="M12,48 C12,48 15.898,42.271 15.991,36 L48.004,36 C48.049,42.275 52,48 52,48 L12,48 Z M32,60 C28.685,60 26,57.314 26,54 C26,53.299 26.127,52.628 26.348,52.002 L37.651,52.002 C37.873,52.628 38,53.299 38,54 C38,57.314 35.313,60 32,60 L32,60 Z M16,32 L48,32 L48,28 L16,28 L16,32 Z M16,20 C16,11.164 23.163,4.002 32,4.002 C40.836,4.002 48,11.164 48,20 L48,24 L16,24 L16,20 Z M60,52.002 C60,52.002 52,42.211 52,35.895 L52,32 L52,28 L52,24 L52,20 C52,8.957 43.046,0 32,0 C20.954,0 12,8.957 12,20 L12,24 L12,28 L12,32 L12,35.773 C12,42.133 4,52.002 4,52.002 L22.21,52.002 C22.078,52.648 22,53.314 22,54 C22,59.523 26.477,64 32,64 C37.522,64 42,59.523 42,54 C42,53.314 41.922,52.648 41.79,52.002 L60,52.002 Z"></path>
        </g>
    </g>
</svg>