<?xml version="1.0" encoding="UTF-8" standalone="no"?>
<svg width="64px" height="64px" viewBox="0 0 64 64" version="1.1" xmlns="http://www.w3.org/2000/svg" xmlns:xlink="http://www.w3.org/1999/xlink" xmlns:sketch="http://www.bohemiancoding.com/sketch/ns">
    <!-- Generator: Sketch 3.2.2 (9983) - http://www.bohemiancoding.com/sketch -->
    <title>organization</title>
    <desc>Created with Sketch.</desc>
    <defs></defs>
    <g id="Page-1" stroke="none" stroke-width="1" fill="none" fill-rule="evenodd" sketch:type="MSPage">
        <g id="organization" sketch:type="MSArtboardGroup" fill="#000000">
            <path d="M63.1355077,30 C62.1184,13 48.4342154,0 31.6947692,0 C14.9563077,0 1.27212308,13 0.255015385,30 L0,30 L0,34 L0.255015385,34 C1.27212308,51 14.9563077,63.998 31.6947692,63.998 C48.4342154,63.998 62.1184,51 63.1355077,34 L63.0153846,34 L63.0153846,30 L63.1355077,30 L63.1355077,30 Z M52.7832615,14 L49.2731077,14 C47.1886769,15 44.6473846,15.07 41.7988923,15.415 C40.8221538,11.057 39.4722462,7.38 37.8683077,4.713 C43.8045538,6.092 48.9974154,9 52.7832615,14 L52.7832615,14 Z M23.8404923,34 L39.5500308,34 C39.4761846,38 39.2014769,41.173 38.7662769,44.328 C36.5056,44.117 34.1405538,43.998 31.6947692,43.998 C29.2489846,43.998 26.8849231,44.117 24.6242462,44.328 C24.1880615,41.173 23.9133538,38 23.8404923,34 L23.8404923,34 Z M23.8404923,30 C23.9133538,26 24.1890462,22.817 24.6262154,19.659 C26.8839385,19.876 29.248,19.998 31.6947692,19.998 C34.1415385,19.998 36.5065846,19.877 38.7643077,19.659 C39.2014769,22.817 39.4761846,26 39.5500308,30 L23.8404923,30 L23.8404923,30 Z M31.6947692,3.997 C34.3424,3.997 36.6818462,8.644 38.1095385,15.763 C36.0674462,15.91 33.9249231,15.997 31.6947692,15.997 C29.4656,15.997 27.3230769,15.91 25.2809846,15.763 C26.7086769,8.644 29.0481231,3.997 31.6947692,3.997 L31.6947692,3.997 Z M25.5222154,4.712 C23.9182769,7.38 22.5683692,11.058 21.5916308,15.416 C18.7431385,15.071 16.2018462,15 14.1174154,14 L10.6072615,14 C14.3931077,9 19.5859692,6.092 25.5222154,4.712 L25.5222154,4.712 Z M9.24356923,15.79 C12.1659077,17.279 16.1841231,18.462 20.8708923,19.191 C20.3303385,22.536 19.9916308,26 19.904,30 L4.2112,30 C4.57944615,25 6.39507692,19.856 9.24356923,15.79 L9.24356923,15.79 Z M19.904,34 C19.9916308,38 20.3293538,41.444 20.8669538,44.783 C16.1772308,45.489 12.1363692,46.636 9.16184615,48.084 C6.3616,44.042 4.57550769,39 4.2112,34 L19.904,34 L19.904,34 Z M10.6072615,50 L13.8604308,50 C16.0108308,49 18.6377846,48.908 21.5867077,48.561 C22.5644308,52.928 23.9163077,56.614 25.5232,59.286 C19.5869538,57.906 14.3940923,55 10.6072615,50 L10.6072615,50 Z M31.6947692,59.997 C29.0471385,59.997 26.7067077,55.346 25.2790154,48.222 C27.3240615,48.078 29.4665846,47.993 31.6947692,47.993 C33.9239385,47.993 36.0664615,48.078 38.1115077,48.222 C36.6838154,55.346 34.3433846,59.997 31.6947692,59.997 L31.6947692,59.997 Z M37.8673231,59.285 C39.4742154,56.613 40.8260923,52.929 41.8038154,48.561 C44.7527385,48.908 47.3796923,49 49.5310769,50 L52.7832615,50 C48.9964308,55 43.8035692,57.906 37.8673231,59.285 L37.8673231,59.285 Z M54.2286769,48.083 C51.2531692,46.636 47.2123077,45.49 42.5235692,44.784 C43.0611692,41.445 43.3988923,38 43.4865231,34 L59.1783385,34 C58.8150154,39 57.0279385,44.042 54.2286769,48.083 L54.2286769,48.083 Z M43.4865231,30 C43.3988923,26 43.0601846,22.535 42.5196308,19.19 C47.2054154,18.461 51.2246154,17.28 54.1469538,15.791 C56.9954462,19.857 58.8110769,25 59.1783385,30 L43.4865231,30 L43.4865231,30 Z" id="Imported-Layers-2" sketch:type="MSShapeGroup"></path>
        </g>
    </g>
</svg>