<?xml version="1.0" encoding="UTF-8" standalone="no"?>
<svg width="64px" height="64px" viewBox="0 0 64 64" version="1.1" xmlns="http://www.w3.org/2000/svg" xmlns:xlink="http://www.w3.org/1999/xlink" xmlns:sketch="http://www.bohemiancoding.com/sketch/ns">
    <!-- Generator: Sketch 3.1.1 (8761) - http://www.bohemiancoding.com/sketch -->
    <title>organization</title>
    <desc>Created with Sketch.</desc>
    <defs></defs>
    <g id="Page-1" stroke="none" stroke-width="1" fill="none" fill-rule="evenodd" sketch:type="MSPage">
        <g id="organization" sketch:type="MSArtboardGroup" fill="#000000">
            <path d="M8,40 L12,40 L12,36 L8,36 L8,40 Z M24,28 L40,28 L40,24 L24,24 L24,28 Z M8,28 L12,28 L12,24 L8,24 L8,28 Z M24,16 L40,16 L40,12 L24,12 L24,16 Z M24,40 L40,40 L40,36 L24,36 L24,40 Z M48,12 L48,0 L16,0 L16,12 L0,12 L0,64 L64,64 L64,12 L48,12 L48,12 Z M4,16 L16,16 L16,60 L4,60 L4,16 Z M28,52 L36,52 L36,60 L28,60 L28,52 Z M44,60 L40,60 L40,48 L24,48 L24,60 L20,60 L20,4 L44,4 L44,60 L44,60 Z M48,16 L60,16 L60,60 L48,60 L48,16 Z M52,52 L56,52 L56,48 L52,48 L52,52 Z M52,28 L56,28 L56,24 L52,24 L52,28 Z M52,40 L56,40 L56,36 L52,36 L52,40 Z M8,52 L12,52 L12,48 L8,48 L8,52 Z" id="Fill-1" sketch:type="MSShapeGroup"></path>
        </g>
    </g>
</svg>