<?xml version="1.0" encoding="UTF-8" standalone="no"?>
<svg width="64px" height="64px" viewBox="0 0 64 64" version="1.1" xmlns="http://www.w3.org/2000/svg" xmlns:xlink="http://www.w3.org/1999/xlink" xmlns:sketch="http://www.bohemiancoding.com/sketch/ns">
    <!-- Generator: Sketch 3.1.1 (8761) - http://www.bohemiancoding.com/sketch -->
    <title>paper-clip</title>
    <desc>Created with Sketch.</desc>
    <defs></defs>
    <g id="Page-1" stroke="none" stroke-width="1" fill="none" fill-rule="evenodd" sketch:type="MSPage">
        <g id="paper-clip" sketch:type="MSArtboardGroup" fill="#000000">
            <path d="M59.6805249,22.922386 L27.6367354,54.5754386 C22.326981,59.8189474 13.7195424,59.8189474 8.41091086,54.5754386 C3.10115648,49.3296842 3.10115648,40.8277895 8.41091086,35.5842807 L16.968946,27.1284211 L30.0990512,14.1611228 L30.8412267,13.4290526 L37.2502091,7.09529825 L37.256946,7.1042807 C37.2906302,7.0717193 37.3164547,7.03242105 37.3501389,6.99761404 C40.8892267,3.50231579 46.6290161,3.50231579 50.166981,6.99761404 C53.7060688,10.4940351 53.7071916,16.1608421 50.166981,19.6595088 C50.1332968,19.6909474 50.0951214,19.7178947 50.0603144,19.7515789 L50.0670512,19.757193 L43.6580688,26.0875789 L42.9170161,26.8230175 L26.8474021,42.6905263 L21.227753,48.2450526 C19.4582091,49.9921404 16.5894372,49.9921404 14.8198933,48.2450526 C13.0503495,46.4957193 13.0503495,43.6617544 14.8198933,41.9124211 L23.857367,32.9883509 L27.3178582,29.5682807 L37.3501389,19.6595088 L40.4547003,16.5953684 L37.2502091,13.4290526 L27.6367354,22.922386 L11.6154021,38.7494737 L11.6243845,38.7595789 C8.18747227,42.2638596 8.20992841,47.8475789 11.7153319,51.3125614 C15.2196126,54.7730526 20.8751916,54.7955088 24.4221389,51.4001404 L24.4322442,51.4113684 L53.2726653,22.922386 C58.5812968,17.6788772 58.580174,9.17585965 53.2715424,3.93347368 C47.9617881,-1.31115789 39.3543495,-1.31115789 34.0457179,3.93347368 L5.20529683,32.4179649 L5.21091086,32.4224561 C-1.76733475,39.4242807 -1.73814177,50.6826667 5.30634946,57.6418246 C12.3508407,64.5987368 23.7495775,64.6279298 30.8356126,57.7338947 L30.8412267,57.7406316 L62.8850161,26.0875789 L59.6805249,22.922386" id="Imported-Layers" sketch:type="MSShapeGroup"></path>
        </g>
    </g>
</svg>