<?xml version="1.0" encoding="UTF-8" standalone="no"?>
<svg width="43px" height="64px" viewBox="0 0 43 64" version="1.1" xmlns="http://www.w3.org/2000/svg" xmlns:xlink="http://www.w3.org/1999/xlink" xmlns:sketch="http://www.bohemiancoding.com/sketch/ns">
    <!-- Generator: Sketch 3.1.1 (8761) - http://www.bohemiancoding.com/sketch -->
    <title>pen</title>
    <desc>Created with Sketch.</desc>
    <defs></defs>
    <g id="Page-1" stroke="none" stroke-width="1" fill="none" fill-rule="evenodd" sketch:type="MSPage">
        <g id="pen" sketch:type="MSArtboardGroup" fill="#000000">
            <path d="M37.07,1.30880419 C32.371,-1.38411889 26.362,0.211942653 23.649,4.87212727 L4,38.6158811 C3.998,38.618835 3.997,38.6208042 3.996,38.623758 L1.052,43.6777888 L0,61.0759427 L3.403,63.0235119 L18.069,53.4195734 L9.748,48.6560042 C9.749,48.6569888 9.75,48.6569888 9.751,48.6569888 L18.069,53.4195734 L40.666,14.6139119 C43.378,9.95471188 41.769,3.99680419 37.07,1.30880419 L37.07,1.30880419 Z M14.666,51.4720042 L3.666,58.6754503 L4.456,45.6273273 L14.666,51.4720042 L14.666,51.4720042 Z M20.56,41.350158 L20.559,41.350158 L16.63,48.0967427 L6.42,42.2550196 L24.105,11.8816042 L34.315,17.7272657 L20.56,41.350158 L20.56,41.350158 Z M37.262,12.6663427 L36.28,14.3520042 L26.07,8.50732727 L27.052,6.8196965 C28.68,4.02338881 32.286,3.06831188 35.105,4.68111188 C37.924,6.2948965 38.89,9.87003496 37.262,12.6663427 L37.262,12.6663427 Z" id="Imported-Layers" sketch:type="MSShapeGroup"></path>
        </g>
    </g>
</svg>