<?xml version="1.0" encoding="UTF-8" standalone="no"?>
<svg width="64px" height="64px" viewBox="0 0 64 64" version="1.1" xmlns="http://www.w3.org/2000/svg" xmlns:xlink="http://www.w3.org/1999/xlink" xmlns:sketch="http://www.bohemiancoding.com/sketch/ns">
    <!-- Generator: Sketch 3.2 (9961) - http://www.bohemiancoding.com/sketch -->
    <title>pen</title>
    <desc>Created with Sketch.</desc>
    <defs></defs>
    <g id="Page-1" stroke="none" stroke-width="1" fill="none" fill-rule="evenodd" sketch:type="MSPage">
        <g id="pen" sketch:type="MSArtboardGroup" fill="#000000">
            <path d="M48.07,1.30880419 C43.371,-1.38411889 37.362,0.211942653 34.649,4.87212727 L15,38.6158811 C14.998,38.618835 14.997,38.6208042 14.996,38.623758 L12.052,43.6777888 L11,61.0759427 L14.403,63.0235119 L29.069,53.4195734 L20.748,48.6560042 C20.749,48.6569888 20.75,48.6569888 20.751,48.6569888 L29.069,53.4195734 L51.666,14.6139119 C54.378,9.95471188 52.769,3.99680419 48.07,1.30880419 L48.07,1.30880419 Z M25.666,51.4720042 L14.666,58.6754503 L15.456,45.6273273 L25.666,51.4720042 L25.666,51.4720042 Z M31.56,41.350158 L31.559,41.350158 L27.63,48.0967427 L17.42,42.2550196 L35.105,11.8816042 L45.315,17.7272657 L31.56,41.350158 L31.56,41.350158 Z M48.262,12.6663427 L47.28,14.3520042 L37.07,8.50732727 L38.052,6.8196965 C39.68,4.02338881 43.286,3.06831188 46.105,4.68111188 C48.924,6.2948965 49.89,9.87003496 48.262,12.6663427 L48.262,12.6663427 Z" id="Imported-Layers" sketch:type="MSShapeGroup"></path>
        </g>
    </g>
</svg>