<?xml version="1.0" encoding="UTF-8" standalone="no"?>
<svg width="64px" height="64px" viewBox="0 0 64 64" version="1.1" xmlns="http://www.w3.org/2000/svg" xmlns:xlink="http://www.w3.org/1999/xlink" xmlns:sketch="http://www.bohemiancoding.com/sketch/ns">
    <!-- Generator: Sketch 3.1.1 (8761) - http://www.bohemiancoding.com/sketch -->
    <title>pen</title>
    <desc>Created with Sketch.</desc>
    <defs></defs>
    <g id="Page-1" stroke="none" stroke-width="1" fill="none" fill-rule="evenodd" sketch:type="MSPage">
        <g id="pen" sketch:type="MSArtboardGroup" fill="#000000">
            <path d="M47.07,1.30880419 C42.371,-1.38411889 36.362,0.211942653 33.649,4.87212727 L14,38.6158811 C13.998,38.618835 13.997,38.6208042 13.996,38.623758 L11.052,43.6777888 L10,61.0759427 L13.403,63.0235119 L28.069,53.4195734 L19.748,48.6560042 C19.749,48.6569888 19.75,48.6569888 19.751,48.6569888 L28.069,53.4195734 L50.666,14.6139119 C53.378,9.95471188 51.769,3.99680419 47.07,1.30880419 L47.07,1.30880419 Z M24.666,51.4720042 L13.666,58.6754503 L14.456,45.6273273 L24.666,51.4720042 L24.666,51.4720042 Z M30.56,41.350158 L30.559,41.350158 L26.63,48.0967427 L16.42,42.2550196 L34.105,11.8816042 L44.315,17.7272657 L30.56,41.350158 L30.56,41.350158 Z M47.262,12.6663427 L46.28,14.3520042 L36.07,8.50732727 L37.052,6.8196965 C38.68,4.02338881 42.286,3.06831188 45.105,4.68111188 C47.924,6.2948965 48.89,9.87003496 47.262,12.6663427 L47.262,12.6663427 Z" id="Imported-Layers" sketch:type="MSShapeGroup"></path>
        </g>
    </g>
</svg>