<?xml version="1.0" encoding="UTF-8" standalone="no"?>
<svg width="64px" height="64px" viewBox="0 0 64 64" version="1.1" xmlns="http://www.w3.org/2000/svg" xmlns:xlink="http://www.w3.org/1999/xlink" xmlns:sketch="http://www.bohemiancoding.com/sketch/ns">
    <!-- Generator: Sketch 3.1.1 (8761) - http://www.bohemiancoding.com/sketch -->
    <title>plus</title>
    <desc>Created with Sketch.</desc>
    <defs></defs>
    <g id="Page-1" stroke="none" stroke-width="1" fill="none" fill-rule="evenodd" sketch:type="MSPage">
        <g id="plus" sketch:type="MSArtboardGroup" fill="#000000">
            <path d="M45.039,29.5847385 L33.953,29.5847385 L33.953,18.6692923 C33.953,17.6078769 33.078,16.7463385 32,16.7463385 C30.922,16.7463385 30.047,17.6078769 30.047,18.6692923 L30.047,29.5847385 L18.961,29.5847385 C17.882,29.5847385 17.008,30.4443077 17.008,31.5076923 C17.008,32.5691077 17.882,33.4306462 18.961,33.4306462 L30.047,33.4306462 L30.047,44.3460923 C30.047,45.4075077 30.922,46.2690462 32,46.2690462 C33.078,46.2690462 33.953,45.4075077 33.953,44.3460923 L33.953,33.4306462 L45.039,33.4306462 C46.117,33.4306462 46.991,32.5691077 46.991,31.5076923 C46.991,30.4443077 46.117,29.5847385 45.039,29.5847385 L45.039,29.5847385 Z M32,0 C14.327,0 0,14.1056 0,31.5076923 C0,48.9097846 14.327,63.0153846 32,63.0153846 C49.673,63.0153846 64,48.9097846 64,31.5076923 C64,14.1056 49.673,0 32,0 L32,0 Z M32,59.0769231 C16.536,59.0769231 4,46.7347692 4,31.5076923 C4,16.2806154 16.536,3.93846154 32,3.93846154 C47.464,3.93846154 60,16.2806154 60,31.5076923 C60,46.7347692 47.464,59.0769231 32,59.0769231 L32,59.0769231 Z" id="Imported-Layers-2" sketch:type="MSShapeGroup"></path>
        </g>
    </g>
</svg>