<?xml version="1.0" encoding="UTF-8" standalone="no"?>
<svg width="54px" height="64px" viewBox="0 0 54 64" version="1.1" xmlns="http://www.w3.org/2000/svg" xmlns:xlink="http://www.w3.org/1999/xlink" xmlns:sketch="http://www.bohemiancoding.com/sketch/ns">
    <!-- Generator: Sketch 3.1.1 (8761) - http://www.bohemiancoding.com/sketch -->
    <title>private</title>
    <desc>Created with Sketch.</desc>
    <defs></defs>
    <g id="Page-1" stroke="none" stroke-width="1" fill="none" fill-rule="evenodd" sketch:type="MSPage">
        <g id="private" sketch:type="MSArtboardGroup" fill="#000000">
            <path d="M45.6923077,23.6288 L45.6923077,17.7230769 C45.6923077,7.93501538 37.3233462,0 27,0 C16.6766538,0 8.30769231,7.93501538 8.30769231,17.7230769 L8.30769231,23.6288 C3.71873077,23.6288 0,27.1556923 0,31.5057231 L0,55.1364923 C0,59.4865231 3.71873077,63.0134154 8.30769231,63.0134154 L45.6923077,63.0134154 C50.2802308,63.0134154 54,59.4865231 54,55.1364923 L54,31.5057231 C54,27.1556923 50.2802308,23.6288 45.6923077,23.6288 L45.6923077,23.6288 Z M12.4615385,17.7230769 C12.4615385,10.1100308 18.9706154,3.93846154 27,3.93846154 C35.0293846,3.93846154 41.5384615,10.1100308 41.5384615,17.7230769 L41.5384615,23.6288 L12.4615385,23.6288 L12.4615385,17.7230769 L12.4615385,17.7230769 Z M49.8461538,55.1364923 C49.8461538,57.3095385 47.9862692,59.0729846 45.6923077,59.0729846 L8.30769231,59.0729846 C6.01373077,59.0729846 4.15384615,57.3095385 4.15384615,55.1364923 L4.15384615,31.5057231 C4.15384615,29.3307077 6.01373077,27.5672615 8.30769231,27.5672615 L45.6923077,27.5672615 C47.9862692,27.5672615 49.8461538,29.3307077 49.8461538,31.5057231 L49.8461538,55.1364923 L49.8461538,55.1364923 Z M27,35.4441846 C25.8514615,35.4441846 24.9230769,36.3254154 24.9230769,37.4134154 L24.9230769,49.2288 C24.9230769,50.3158154 25.8514615,51.1980308 27,51.1980308 C28.1464615,51.1980308 29.0769231,50.3158154 29.0769231,49.2288 L29.0769231,37.4134154 C29.0769231,36.3254154 28.1464615,35.4441846 27,35.4441846 L27,35.4441846 Z" id="Imported-Layers" sketch:type="MSShapeGroup"></path>
        </g>
    </g>
</svg>