<?xml version="1.0" encoding="UTF-8" standalone="no"?>
<svg width="64px" height="64px" viewBox="0 0 64 64" version="1.1" xmlns="http://www.w3.org/2000/svg" xmlns:xlink="http://www.w3.org/1999/xlink" xmlns:sketch="http://www.bohemiancoding.com/sketch/ns">
    <!-- Generator: Sketch 3.2 (9961) - http://www.bohemiancoding.com/sketch -->
    <title>private</title>
    <desc>Created with Sketch.</desc>
    <defs></defs>
    <g id="Page-1" stroke="none" stroke-width="1" fill="none" fill-rule="evenodd" sketch:type="MSPage">
        <g id="private" sketch:type="MSArtboardGroup" fill="#000000">
            <path d="M50.6923077,23.6288 L50.6923077,17.7230769 C50.6923077,7.93501538 42.3233462,0 32,0 C21.6766538,0 13.3076923,7.93501538 13.3076923,17.7230769 L13.3076923,23.6288 C8.71873077,23.6288 5,27.1556923 5,31.5057231 L5,55.1364923 C5,59.4865231 8.71873077,63.0134154 13.3076923,63.0134154 L50.6923077,63.0134154 C55.2802308,63.0134154 59,59.4865231 59,55.1364923 L59,31.5057231 C59,27.1556923 55.2802308,23.6288 50.6923077,23.6288 L50.6923077,23.6288 Z M17.4615385,17.7230769 C17.4615385,10.1100308 23.9706154,3.93846154 32,3.93846154 C40.0293846,3.93846154 46.5384615,10.1100308 46.5384615,17.7230769 L46.5384615,23.6288 L17.4615385,23.6288 L17.4615385,17.7230769 L17.4615385,17.7230769 Z M54.8461538,55.1364923 C54.8461538,57.3095385 52.9862692,59.0729846 50.6923077,59.0729846 L13.3076923,59.0729846 C11.0137308,59.0729846 9.15384615,57.3095385 9.15384615,55.1364923 L9.15384615,31.5057231 C9.15384615,29.3307077 11.0137308,27.5672615 13.3076923,27.5672615 L50.6923077,27.5672615 C52.9862692,27.5672615 54.8461538,29.3307077 54.8461538,31.5057231 L54.8461538,55.1364923 L54.8461538,55.1364923 Z M32,35.4441846 C30.8514615,35.4441846 29.9230769,36.3254154 29.9230769,37.4134154 L29.9230769,49.2288 C29.9230769,50.3158154 30.8514615,51.1980308 32,51.1980308 C33.1464615,51.1980308 34.0769231,50.3158154 34.0769231,49.2288 L34.0769231,37.4134154 C34.0769231,36.3254154 33.1464615,35.4441846 32,35.4441846 L32,35.4441846 Z" id="Imported-Layers" sketch:type="MSShapeGroup"></path>
        </g>
    </g>
</svg>