<?xml version="1.0" encoding="UTF-8" standalone="no"?>
<svg width="64px" height="64px" viewBox="0 0 64 64" version="1.1" xmlns="http://www.w3.org/2000/svg" xmlns:xlink="http://www.w3.org/1999/xlink" xmlns:sketch="http://www.bohemiancoding.com/sketch/ns">
    <!-- Generator: Sketch 3.2 (9961) - http://www.bohemiancoding.com/sketch -->
    <title>resolved</title>
    <desc>Created with Sketch.</desc>
    <defs></defs>
    <g id="Page-1" stroke="none" stroke-width="1" fill="none" fill-rule="evenodd" sketch:type="MSPage">
        <g id="resolved" sketch:type="MSArtboardGroup" fill="#000000">
            <path d="M62.3580328,10.5498148 L51.8179672,0.589722222 C50.9870164,-0.196574074 49.6388197,-0.196574074 48.8068197,0.589722222 L20.1463607,29.6073148 L12.6688525,22.5408333 C11.8368525,21.7575926 10.4886557,21.7575926 9.65770492,22.5408333 L0.623213115,31.0790741 C-0.207737705,31.8674074 -0.207737705,33.1405556 0.623213115,33.9237963 L20.1977705,52.4180556 C21.0297705,53.2043519 22.3779672,53.2043519 23.208918,52.4180556 L62.3580328,13.394537 C63.1900328,12.6082407 63.1900328,11.3340741 62.3580328,10.5498148 L62.3580328,10.5498148 Z M21.6634754,48.1117593 L5.14098361,32.5019444 L11.1632787,26.8125 L18.6921967,33.9237963 C19.5241967,34.7121296 20.8723934,34.7121296 21.7043934,33.9237963 L50.3638033,4.90824074 L57.8811803,12.0103704 L21.6634754,48.1117593 L21.6634754,48.1117593 Z" id="Imported-Layers" sketch:type="MSShapeGroup"></path>
        </g>
    </g>
</svg>