<?xml version="1.0" encoding="UTF-8" standalone="no"?>
<svg width="64px" height="64px" viewBox="0 0 64 64" version="1.1" xmlns="http://www.w3.org/2000/svg" xmlns:xlink="http://www.w3.org/1999/xlink">
    <!-- Generator: Sketch 3.7 (28169) - http://www.bohemiancoding.com/sketch -->
    <title>saved</title>
    <desc>Created with Sketch.</desc>
    <defs></defs>
    <g id="Page-1" stroke="none" stroke-width="1" fill="none" fill-rule="evenodd">
        <g id="saved" fill="#000000">
            <path d="M45.667,20.5703 L27,39.2383 L18.333,30.5703 C17.57,29.8083 16.333,29.8083 15.57,30.5703 C14.808,31.3343 14.808,32.5703 15.57,33.3323 L25.381,43.1423 C25.446,43.2383 25.486,43.3433 25.57,43.4293 C25.965,43.8243 26.483,44.0043 27,43.9923 C27.516,44.0043 28.035,43.8243 28.429,43.4293 C28.514,43.3433 28.554,43.2383 28.619,43.1423 L48.429,23.3323 C49.191,22.5703 49.191,21.3323 48.429,20.5703 C47.666,19.8083 46.43,19.8083 45.667,20.5703 M32,60.0003 C16.536,60.0003 4,47.4653 4,32.0003 C4,16.5353 16.536,3.9983 32,3.9983 C47.464,3.9983 60,16.5353 60,32.0003 C60,47.4653 47.464,60.0003 32,60.0003 M32,0.0003 C14.326,0.0003 0,14.3283 0,32.0003 C0,49.6723 14.326,64.0003 32,64.0003 C49.673,64.0003 64,49.6723 64,32.0003 C64,14.3283 49.673,0.0003 32,0.0003" id="Fill-1"></path>
        </g>
    </g>
</svg>