<?xml version="1.0" encoding="UTF-8" standalone="no"?>
<svg width="64px" height="64px" viewBox="0 0 64 64" version="1.1" xmlns="http://www.w3.org/2000/svg" xmlns:xlink="http://www.w3.org/1999/xlink" xmlns:sketch="http://www.bohemiancoding.com/sketch/ns">
    <!-- Generator: Sketch 3.2 (9961) - http://www.bohemiancoding.com/sketch -->
    <title>services</title>
    <desc>Created with Sketch.</desc>
    <defs></defs>
    <g id="Page-1" stroke="none" stroke-width="1" fill="none" fill-rule="evenodd" sketch:type="MSPage">
        <g id="services" sketch:type="MSArtboardGroup" fill="#000000">
            <path d="M56,0 L8,0 L0,35.996 L0,59.996 C0,62.206 1.791,64 4,64 L60,64 C62.209,64 64,62.206 64,59.996 L64,35.996 L56,0 L56,0 Z M60,57.994 C60,59.1 59.104,60 58,60 L6,60 C4.894,60 4,59.1 4,57.994 L4,41.994 C4,40.892 4.894,40 6,40 L16,40 L16,48 L48,48 L48,40 L58,40 C59.104,40 60,40.892 60,41.994 L60,57.994 L60,57.994 Z M44,36 L44,44 L20,44 L20,36 L4,36 L12,4 L52,4 L60,36 L44,36 L44,36 Z" id="Imported-Layers" sketch:type="MSShapeGroup"></path>
        </g>
    </g>
</svg>