<?xml version="1.0" encoding="UTF-8" standalone="no"?>
<svg width="64px" height="64px" viewBox="0 0 64 64" version="1.1" xmlns="http://www.w3.org/2000/svg" xmlns:xlink="http://www.w3.org/1999/xlink">
    <!-- Generator: Sketch 3.7 (28169) - http://www.bohemiancoding.com/sketch -->
    <title>sort-customers-down</title>
    <desc>Created with Sketch.</desc>
    <defs></defs>
    <g id="Page-1" stroke="none" stroke-width="1" fill="none" fill-rule="evenodd">
        <g id="sort-customers-down" fill="#000000">
            <path d="M31.2222222,7 C29.9933333,7 29,7.896 29,8.999 C29,10.103 29.9933333,10.999 31.2222222,10.999 L61.7777778,10.999 C63.0044444,10.999 64,10.103 64,8.999 C64,7.896 63.0044444,7 61.7777778,7 L31.2222222,7 Z M31.2222222,18 C29.9933333,18 29,18.896 29,19.999 C29,21.103 29.9933333,21.999 31.2222222,21.999 L56.7777778,21.999 C58.0044444,21.999 59,21.103 59,19.999 C59,18.896 58.0044444,18 56.7777778,18 L31.2222222,18 Z M31.2222222,28.999 C29.9933333,28.999 29,29.895 29,30.999 C29,32.104 29.9933333,33.001 31.2222222,33.001 L51.7777778,33.001 C53.0044444,33.001 54,32.104 54,30.999 C54,29.895 53.0044444,28.999 51.7777778,28.999 L31.2222222,28.999 Z M14.8667902,51.8511302 L3.96505687,39.2745688 C3.10145687,38.4189899 1.6949902,38.4189899 0.829123538,39.2745688 C-0.0344764621,40.1312706 -0.0367431287,41.5201829 0.826856871,42.3757618 L15.1013902,58.6407443 C15.2033902,58.8361127 15.3257902,59.0224987 15.4912569,59.1864285 C15.9332569,59.6243232 16.5157902,59.8342881 17.0937902,59.8253057 C17.7057902,59.8342881 18.2871902,59.6243232 18.7314569,59.1864285 C18.8957902,59.0224987 19.0193235,58.8361127 19.1213235,58.6407443 L33.3969902,42.3757618 C34.2605902,41.5201829 34.2605902,40.1312706 33.3969902,39.2745688 C32.5299902,38.4189899 31.1439235,38.4189899 30.2803235,39.2745688 L19.4001235,51.8533759 L19.4001235,9.19484954 C19.4001235,7.95527059 18.3857902,6.9492355 17.1345902,6.9492355 C15.8845235,6.9492355 14.8667902,7.95527059 14.8667902,9.19484954 L14.8667902,51.8511302 Z" id="sort-customers"></path>
        </g>
    </g>
</svg>