<?xml version="1.0" encoding="UTF-8" standalone="no"?>
<svg width="64px" height="64px" viewBox="0 0 64 64" version="1.1" xmlns="http://www.w3.org/2000/svg" xmlns:xlink="http://www.w3.org/1999/xlink" xmlns:sketch="http://www.bohemiancoding.com/sketch/ns">
    <!-- Generator: Sketch 3.2 (9961) - http://www.bohemiancoding.com/sketch -->
    <title>store</title>
    <desc>Created with Sketch.</desc>
    <defs></defs>
    <g id="Page-1" stroke="none" stroke-width="1" fill="none" fill-rule="evenodd" sketch:type="MSPage">
        <g id="store" sketch:type="MSArtboardGroup" fill="#000000">
            <path d="M64.02,24 L56.02,0 L8.02,0 L0.02,24 L0,24 C0.012,28 1.516,31.323 4.02,33.621 L4.02,64 L62.02,64 L62.02,32.25 C63.524,30 64.03,27 64.039,24 L64.02,24 L64.02,24 Z M10.686,4 L53.354,4 L58.687,20 L5.353,20 L10.686,4 L10.686,4 Z M8.02,52 L58.02,52 L58.02,60 L8.02,60 L8.02,52 Z M58.02,48 L8.02,48 L8.02,35.774 C8.62,35.913 9.241,35.997 9.89,35.997 C12.894,35.997 16.177,34.488 18.02,31.998 C19.636,34.458 21.802,35.997 24.978,35.997 C27.84,35.997 30.361,34.059 32.02,31.998 C33.679,34.059 36.2,35.997 39.061,35.997 C42.237,35.997 44.404,34.458 46.02,31.998 C47.863,34.488 51.016,35.997 54.02,35.997 C55.571,35.997 56.891,35.767 58.02,35.359 L58.02,48 L58.02,48 Z M54.149,32 C48.02,32 48.02,28 48.02,28 L43.989,28 C43.989,28 44.02,31.999 39.061,31.999 C34.02,31.999 34.133,28 34.133,28 L29.907,28 C29.907,28 30.02,31.999 24.978,31.999 C20.02,31.999 20.02,28 20.02,28 L16.02,28 C16.02,32 12.699,32 9.89,32 C7.081,32 4.741,27 4.068,24 L59.972,24 C59.972,24 60.02,32 54.149,32 L54.149,32 Z" id="Fill-3" sketch:type="MSShapeGroup"></path>
        </g>
    </g>
</svg>