<?xml version="1.0" encoding="UTF-8" standalone="no"?>
<svg width="64px" height="64px" viewBox="0 0 64 64" version="1.1" xmlns="http://www.w3.org/2000/svg" xmlns:xlink="http://www.w3.org/1999/xlink" xmlns:sketch="http://www.bohemiancoding.com/sketch/ns">
    <!-- Generator: Sketch 3.2.2 (9983) - http://www.bohemiancoding.com/sketch -->
    <title>visible</title>
    <desc>Created with Sketch.</desc>
    <defs></defs>
    <g id="Page-1" stroke="none" stroke-width="1" fill="none" fill-rule="evenodd" sketch:type="MSPage">
        <g id="visible" sketch:type="MSArtboardGroup" fill="#000000">
            <path d="M35.166,29.7807266 L37.482,17.1714232 C35.769,16.5324348 33.929,16.1659862 32,16.1659862 C23.163,16.1659862 16,23.4786268 16,32.4979585 C16,41.5172902 23.163,48.8299308 32,48.8299308 C40.836,48.8299308 48,41.5172902 48,32.4979585 C48,29.6133239 47.26,26.9073202 45.974,24.5555162 L35.166,29.7807266 M64,32.4979585 C64,32.4989793 49.673,8 32,8 C14.327,8 0,32.4979585 0,32.4979585 L0.001,32.5 L0,32.5020415 C0,32.5020415 14.327,57 32,57 C49.673,57 64,32.5020415 64,32.5020415 L63.999,32.5 L64,32.4979585 L64,32.4979585 Z M32,52.9170069 C19.606,52.9170069 8.487,38.0487876 4.758,32.4806058 C9.516,25.2914757 20.609,12.0870761 32,12.0870761 C44.393,12.0870761 55.512,26.9563161 59.241,32.524498 C54.483,39.713628 43.39,52.9170069 32,52.9170069 L32,52.9170069 Z" id="Fill-1" sketch:type="MSShapeGroup"></path>
        </g>
    </g>
</svg>