<?xml version="1.0" encoding="UTF-8" standalone="no"?>
<svg width="64px" height="64px" viewBox="0 0 64 64" version="1.1" xmlns="http://www.w3.org/2000/svg" xmlns:xlink="http://www.w3.org/1999/xlink" xmlns:sketch="http://www.bohemiancoding.com/sketch/ns">
    <!-- Generator: Sketch 3.2 (9961) - http://www.bohemiancoding.com/sketch -->
    <title>waiting</title>
    <desc>Created with Sketch.</desc>
    <defs></defs>
    <g id="Page-1" stroke="none" stroke-width="1" fill="none" fill-rule="evenodd" sketch:type="MSPage">
        <g id="waiting" sketch:type="MSArtboardGroup" fill="#000000">
            <path d="M54,60 L48,60 L48,42.328 C48.023,42.138 48.014,41.946 47.976,41.755 C47.862,40.812 47.099,40.079 46.143,40.01 L35.004,31.996 L46.143,23.982 C47.098,23.913 47.86,23.178 47.975,22.239 C48.014,22.047 48.023,21.854 48,21.664 L48,4 L54,4 C55.104,4 56,3.106 56,2 C56,0.896 55.104,0 54,0 L10,0 C8.895,0 8,0.896 8,2 C8,3.106 8.895,4 10,4 L16,4 L16,21.662 C15.976,21.853 15.985,22.047 16.025,22.239 C16.14,23.178 16.903,23.913 17.857,23.982 L28.996,31.996 L17.857,40.01 C16.901,40.079 16.138,40.811 16.024,41.755 C15.985,41.947 15.976,42.139 16,42.329 L16,60 L10,60 C8.895,60 8,60.894 8,61.999 C8,63.103 8.895,64 10,64 L54,64 C55.104,64 56,63.103 56,61.999 C56,60.894 55.104,60 54,60 L54,60 Z M20,21.2 L20,4 L44,4 L44,21.199 L32,29.834 L20,21.2 L20,21.2 Z M20,42.79 L32,34.157 L44,42.791 L44,60 L20,60 L20,42.79 L20,42.79 Z M32,26.667 L41,20 L36.167,21 L32,21.833 L22,19 L32,26.667 M22,58.333 L22,50.667 L32,45.5 L41,50.215 L41,58.333 L22,58.333" id="Fill-1" sketch:type="MSShapeGroup"></path>
        </g>
    </g>
</svg>