<?xml version="1.0" encoding="UTF-8" standalone="no"?>
<svg width="48px" height="64px" viewBox="0 0 48 64" version="1.1" xmlns="http://www.w3.org/2000/svg" xmlns:xlink="http://www.w3.org/1999/xlink" xmlns:sketch="http://www.bohemiancoding.com/sketch/ns">
    <!-- Generator: Sketch 3.1.1 (8761) - http://www.bohemiancoding.com/sketch -->
    <title>waiting</title>
    <desc>Created with Sketch.</desc>
    <defs></defs>
    <g id="Page-1" stroke="none" stroke-width="1" fill="none" fill-rule="evenodd" sketch:type="MSPage">
        <g id="waiting" sketch:type="MSArtboardGroup" fill="#000000">
            <path d="M46,60 L40,60 L40,42.328 C40.023,42.138 40.014,41.946 39.976,41.755 C39.862,40.812 39.099,40.079 38.143,40.01 L27.004,31.996 L38.143,23.982 C39.098,23.913 39.86,23.178 39.975,22.239 C40.014,22.047 40.023,21.854 40,21.664 L40,4 L46,4 C47.104,4 48,3.106 48,2 C48,0.896 47.104,0 46,0 L2,0 C0.895,0 0,0.896 0,2 C0,3.106 0.895,4 2,4 L8,4 L8,21.662 C7.976,21.853 7.985,22.047 8.025,22.239 C8.14,23.178 8.903,23.913 9.857,23.982 L20.996,31.996 L9.857,40.01 C8.901,40.079 8.138,40.811 8.024,41.755 C7.985,41.947 7.976,42.139 8,42.329 L8,60 L2,60 C0.895,60 0,60.894 0,61.999 C0,63.103 0.895,64 2,64 L46,64 C47.104,64 48,63.103 48,61.999 C48,60.894 47.104,60 46,60 L46,60 Z M12,21.2 L12,4 L36,4 L36,21.199 L24,29.834 L12,21.2 L12,21.2 Z M12,42.79 L24,34.157 L36,42.791 L36,60 L12,60 L12,42.79 L12,42.79 Z M24,26.667 L33,20 L28.167,21 L24,21.833 L14,19 L24,26.667 M14,58.333 L14,50.667 L24,45.5 L33,50.215 L33,58.333 L14,58.333" id="Fill-1" sketch:type="MSShapeGroup"></path>
        </g>
    </g>
</svg>