<?xml version="1.0" encoding="UTF-8" standalone="no"?>
<svg width="64px" height="60px" viewBox="0 0 64 60" version="1.1" xmlns="http://www.w3.org/2000/svg" xmlns:xlink="http://www.w3.org/1999/xlink" xmlns:sketch="http://www.bohemiancoding.com/sketch/ns">
    <!-- Generator: Sketch 3.1.1 (8761) - http://www.bohemiancoding.com/sketch -->
    <title>warning</title>
    <desc>Created with Sketch.</desc>
    <defs></defs>
    <g id="Page-1" stroke="none" stroke-width="1" fill="none" fill-rule="evenodd" sketch:type="MSPage">
        <g id="warning" sketch:type="MSArtboardGroup" fill="#000000">
            <path d="M32,0 L0,59.9978571 L64,59.9978571 L32,0 L32,0 Z M32,6.42642857 L57.6,55.7121429 L6.4,55.7121429 L32,6.42642857 L32,6.42642857 Z M29.8666667,49.2835714 L34.1333333,49.2835714 L34.1333333,44.9978571 L29.8666667,44.9978571 L29.8666667,49.2835714 Z M32,21.4221429 C30.8213333,21.4221429 29.8666667,22.3810714 29.8666667,23.565 L29.8666667,38.565 C29.8666667,39.75 30.8213333,40.7078571 32,40.7078571 C33.1776,40.7078571 34.1333333,39.75 34.1333333,38.565 L34.1333333,23.565 C34.1333333,22.3810714 33.1776,21.4221429 32,21.4221429 L32,21.4221429 Z" id="Imported-Layers" sketch:type="MSShapeGroup"></path>
        </g>
    </g>
</svg>