<?xml version="1.0" encoding="UTF-8" standalone="no"?>
<svg width="64px" height="64px" viewBox="0 0 64 64" version="1.1" xmlns="http://www.w3.org/2000/svg" xmlns:xlink="http://www.w3.org/1999/xlink" xmlns:sketch="http://www.bohemiancoding.com/sketch/ns">
    <!-- Generator: Sketch 3.2 (9961) - http://www.bohemiancoding.com/sketch -->
    <title>warning</title>
    <desc>Created with Sketch.</desc>
    <defs></defs>
    <g id="Page-1" stroke="none" stroke-width="1" fill="none" fill-rule="evenodd" sketch:type="MSPage">
        <g id="warning" sketch:type="MSArtboardGroup" fill="#000000">
            <path d="M32,2 L0,61.9978571 L64,61.9978571 L32,2 L32,2 Z M32,8.42642857 L57.6,57.7121429 L6.4,57.7121429 L32,8.42642857 L32,8.42642857 Z M29.8666667,51.2835714 L34.1333333,51.2835714 L34.1333333,46.9978571 L29.8666667,46.9978571 L29.8666667,51.2835714 Z M32,23.4221429 C30.8213333,23.4221429 29.8666667,24.3810714 29.8666667,25.565 L29.8666667,40.565 C29.8666667,41.75 30.8213333,42.7078571 32,42.7078571 C33.1776,42.7078571 34.1333333,41.75 34.1333333,40.565 L34.1333333,25.565 C34.1333333,24.3810714 33.1776,23.4221429 32,23.4221429 L32,23.4221429 Z" id="Imported-Layers" sketch:type="MSShapeGroup"></path>
        </g>
    </g>
</svg>