<?xml version="1.0" encoding="UTF-8" standalone="no"?>
<svg width="64px" height="64px" viewBox="0 0 64 64" version="1.1" xmlns="http://www.w3.org/2000/svg" xmlns:xlink="http://www.w3.org/1999/xlink" xmlns:sketch="http://www.bohemiancoding.com/sketch/ns">
    <!-- Generator: Sketch 3.2 (9961) - http://www.bohemiancoding.com/sketch -->
    <title>welcome-msg</title>
    <desc>Created with Sketch.</desc>
    <defs></defs>
    <g id="Page-1" stroke="none" stroke-width="1" fill="none" fill-rule="evenodd" sketch:type="MSPage">
        <g id="welcome-msg" sketch:type="MSArtboardGroup" fill="#000000">
            <path d="M32,23.6307692 C29.791,23.6307692 28,25.3922462 28,27.5692308 C28,29.7442462 29.791,31.5076923 32,31.5076923 C34.209,31.5076923 36,29.7442462 36,27.5692308 C36,25.3922462 34.209,23.6307692 32,23.6307692 L32,23.6307692 Z M32,0 C14.326,0 0,12.3421538 0,27.5692308 C0,36.2742154 4.687,44.0310154 12,49.0840615 L12,63.0153846 L28.369,54.9572923 C29.561,55.0734769 30.772,55.1384615 32,55.1384615 C49.673,55.1384615 64,42.7963077 64,27.5692308 C64,12.3421538 49.673,0 32,0 L32,0 Z M32,51.2 C30.782,51.2 29.584,51.1271385 28.407,51.0001231 L16,57.1076923 L16,46.9572923 C8.748,42.6860308 4,35.5977846 4,27.5692308 C4,14.5191385 16.536,3.93846154 32,3.93846154 C47.464,3.93846154 60,14.5191385 60,27.5692308 C60,40.6193231 47.464,51.2 32,51.2 L32,51.2 Z M16,23.6307692 C13.791,23.6307692 12,25.3922462 12,27.5692308 C12,29.7442462 13.791,31.5076923 16,31.5076923 C18.209,31.5076923 20,29.7442462 20,27.5692308 C20,25.3922462 18.209,23.6307692 16,23.6307692 L16,23.6307692 Z M48,23.6307692 C45.791,23.6307692 44,25.3922462 44,27.5692308 C44,29.7442462 45.791,31.5076923 48,31.5076923 C50.209,31.5076923 52,29.7442462 52,27.5692308 C52,25.3922462 50.209,23.6307692 48,23.6307692 L48,23.6307692 Z" id="Imported-Layers" sketch:type="MSShapeGroup"></path>
        </g>
    </g>
</svg>