<?xml version="1.0" standalone="no"?>
<!DOCTYPE svg PUBLIC "-//W3C//DTD SVG 1.1//EN" "http://www.w3.org/Graphics/SVG/1.1/DTD/svg11.dtd" >
<!--
2016-6-2: Created with FontForge (http://fontforge.org)
-->
<svg xmlns="http://www.w3.org/2000/svg" xmlns:xlink="http://www.w3.org/1999/xlink" version="1.1">
<metadata>
Created by FontForge 20160407 at Thu Jun  2 09:01:51 2016
 By Dimas López
Copyright (c) 2016, Dimas L&#195;&#179;pez
</metadata>
<defs>
<font id="instaglyph" horiz-adv-x="512" >
  <font-face 
    font-family="instaglyph"
    font-weight="400"
    font-stretch="normal"
    units-per-em="512"
    panose-1="2 0 5 3 0 0 0 0 0 0"
    ascent="448"
    descent="-64"
    bbox="-0.00140856 -64.123 512.312 448.003"
    underline-thickness="25.6"
    underline-position="-51.2"
    unicode-range="U+0020-F13E"
  />
    <missing-glyph />
    <glyph glyph-name="space" unicode=" " horiz-adv-x="200" 
 />
    <glyph glyph-name="uniF100" unicode="&#xf100;" 
d="M229.492 421.053v-421.25l-151.214 164.612c-6.90918 6.84473 -18.1611 6.84473 -25.0879 0c-6.9082 -6.85352 -6.92676 -17.9648 -0.0175781 -24.8096l178.196 -194.12c0.81543 -1.5625 1.79492 -3.05371 3.11816 -4.36523
c3.53613 -3.50293 8.19629 -5.18262 12.8203 -5.11133c0.0458984 0 0.0908203 -0.00878906 0.136719 -0.00878906c0.0449219 0 0.0810547 0.00878906 0.126953 0.00878906c4.63281 -0.0712891 9.28418 1.6084 12.8379 5.11133
c1.31445 1.31152 2.30273 2.80273 3.11914 4.36523l178.205 194.12c6.90918 6.84473 6.90918 17.9561 0 24.8096c-6.93555 6.84473 -18.0244 6.84473 -24.9336 0l-151.041 -164.631v421.269c0 9.91699 -8.11523 17.9648 -18.124 17.9648
c-10.001 0 -18.1426 -8.04785 -18.1426 -17.9648z" />
    <glyph glyph-name="uniF12E" unicode="&#xf12e;" 
d="M249.777 392h244.445c9.8125 0 17.7773 -7.16797 17.7773 -15.9922c0 -8.83203 -7.96484 -16 -17.7773 -16h-244.445c-9.83105 0 -17.7773 7.16797 -17.7773 16c0 8.82422 7.94629 15.9922 17.7773 15.9922zM249.777 304h204.445
c9.8125 0 17.7773 -7.16797 17.7773 -15.9922c0 -8.83203 -7.96484 -16 -17.7773 -16h-204.445c-9.83105 0 -17.7773 7.16797 -17.7773 16c0 8.82422 7.94629 15.9922 17.7773 15.9922zM249.777 216.008h164.445c9.8125 0 17.7773 -7.16797 17.7773 -16
c0 -8.83984 -7.96484 -16.0156 -17.7773 -16.0156h-164.445c-9.83105 0 -17.7773 7.17578 -17.7773 16.0156c0 8.83203 7.94629 16 17.7773 16zM118.935 33.1914v341.25c0 9.91602 8.1416 17.9648 18.1426 17.9648c10.0088 0 18.124 -8.04883 18.124 -17.9648v-341.269
l87.041 100.631c6.90918 6.84473 17.998 6.84473 24.9336 0c6.90918 -6.85352 6.90918 -17.9648 0 -24.8096l-114.205 -130.12c-0.816406 -1.5625 -1.80469 -3.05371 -3.11914 -4.36523c-3.55371 -3.50293 -8.20508 -5.18262 -13.1016 -5.11133
c-4.62402 -0.0712891 -9.28418 1.6084 -12.8203 5.11133c-1.32324 1.31152 -2.30273 2.80273 -3.11816 4.36523l-114.196 130.12c-6.90918 6.84473 -6.89062 17.9561 0.0175781 24.8096c6.92676 6.84473 18.1787 6.84473 25.0879 0z" />
    <glyph glyph-name="uniF10D" unicode="&#xf10d;" 
d="M200.506 30.7354v0c15.0889 -5.10742 24.2695 -18.9824 24.2695 -35.4922v-25.1357c0 -20.8154 -13.8027 -34.1074 -35.0732 -34.1074h-64.1816c-21.2705 0 -37.4043 13.292 -37.4043 34.1074v25.1357c0 16.502 10.2412 30.3848 25.3301 35.4922
c-8.21582 10.8516 -13.8184 24.75 -13.8184 39.9062c0 34.7139 25.6514 62.8398 57.5576 62.8398c31.8975 0 57.332 -28.126 57.332 -62.8398c0 -15.1562 -5.7959 -29.0547 -14.0117 -39.9062zM112.683 70.6416v0c0 -27.7559 20.1133 -50.2627 44.9287 -50.2627
s44.9287 22.5068 44.9287 50.2627c0 27.7646 -20.1133 50.2793 -44.9287 50.2793s-44.9287 -22.5146 -44.9287 -50.2793zM216.736 -29.8926v0v25.1357c0 13.1416 -11.4873 23.8057 -24.623 24.915c-9.59766 -7.72852 -22.5645 -12.3477 -35.4268 -12.3477
c-12.8535 0 -25.6113 4.61914 -35.209 12.3477c-13.1357 -1.10938 -25.3223 -11.7734 -25.3223 -24.915v-25.1357c0 -13.8828 15.1768 -26.2373 29.3652 -26.2373h64.1816c14.1807 0 27.0342 12.3545 27.0342 26.2373zM440 212.718
c0 -61.3496 -41.8457 -112.633 -100.867 -126.166v-43.54l-61.1855 49.915l61.1855 49.916v-35.6953c45.9053 13.0449 80.4854 55.3203 80.4854 105.57c0 60.6494 -47.6963 109.813 -113.275 109.813v19.9658c72.1377 0 133.657 -58.1074 133.657 -129.779zM222.018 306.417
v0c20.7969 -7.05078 34.9121 -26.3398 34.9121 -49.1064v-34.666c0 -28.709 -22.1064 -50.5547 -51.4395 -50.5547h-88.5391c-29.3418 0 -52.9512 21.8457 -52.9512 50.5547v34.666c0 22.7666 14.8154 42.0557 35.6113 49.1064
c-11.2695 14.9521 -18.1836 34.0674 -18.1836 54.9062c0 47.8711 35.5723 86.6768 79.584 86.6768c44.0039 0 79.4707 -38.8057 79.4707 -86.6768c0 -20.8389 -7.19434 -39.9541 -18.4648 -54.9062zM99.2422 361.323v0c0 -38.293 27.749 -69.3389 61.9785 -69.3389
c34.2207 0 61.9707 31.0459 61.9707 69.3389c0 38.2939 -27.75 69.3477 -61.9707 69.3477c-34.2295 0 -61.9785 -31.0537 -61.9785 -69.3477zM240.853 222.645v0v34.666c0 18.1318 -14.4297 32.8477 -32.5488 34.374c-13.2314 -10.6553 -29.7197 -17.0371 -47.4531 -17.0371
s-34.4219 6.38184 -47.6611 17.0371c-18.1201 -1.52637 -33.1123 -16.2422 -33.1123 -34.374v-34.666c0 -19.1465 17.3076 -34.8154 36.874 -34.8154h88.5391c19.5498 0 35.3623 15.6689 35.3623 34.8154z" />
    <glyph glyph-name="uniF139" unicode="&#xf139;" 
d="M181.619 285.155l-44.5762 56.0166c-6.72363 6.77051 -6.72363 17.7842 0 24.5547c6.72461 6.78906 17.6387 6.78906 24.3633 0l41.1045 -51.6553v116.721c0 9.49023 7.6377 17.208 17.0664 17.208c9.42969 0 17.0674 -7.71777 17.0674 -17.208v-116.715l41.1045 51.6494
c6.72461 6.78906 17.6299 6.78906 24.3545 0c6.72461 -6.77051 6.72461 -17.7842 0 -24.5547l-42.3359 -53.207c9.14453 -9.45801 14.7715 -22.3369 14.7715 -36.5332v-101.403l105.163 -30.0498c14.5186 0 26.291 -11.7725 26.291 -26.291v-131.453
c0 -14.5195 -11.7725 -26.3047 -26.291 -26.3047h-184.035c-0.933594 0 -1.82031 0.177734 -2.72754 0.283203c-13.3955 0.282227 -26.6982 5.50781 -36.9189 15.7285l-76.2363 76.2227c-21.0459 21.0527 -21.0459 55.1914 0 76.2305
c21.0527 21.0518 55.1904 21.0518 76.2363 0l13.3555 -13.3623v55.2363v105.163c0 12.8369 4.60156 24.5967 12.2432 33.7236zM379.702 -24.6211v105.163c0 7.2627 -5.88867 13.1455 -13.1455 13.1455l-118.308 39.4355v13.1455v92.0049v13.1582
c0 14.5195 -11.7725 26.291 -26.291 26.291c-14.5195 0 -26.291 -11.7715 -26.291 -26.291v-13.1582v-92.0049v-13.1455v-106.483l-58.707 58.7002c-10.5225 10.5293 -27.5918 10.5293 -38.1152 0c-10.5225 -10.5225 -10.5225 -27.585 0 -38.1084l76.2305 -76.2295
c5.65918 -5.67188 13.1914 -8.16309 20.5918 -7.70312v-1.07812h65.7266v0.0136719h105.163c7.25684 0 13.1455 5.88184 13.1455 13.1445z" />
    <glyph glyph-name="uniF111" unicode="&#xf111;" 
d="M40.7441 92.5137l84.3789 103.258l5.49805 7.79883l0.638672 -0.285156l0.383789 0.461914l2.58691 -1.8291l165.562 -75.7432l132.893 173.803l-29.2676 20.6299l107.825 49.8691l-10.7197 -118.315l-34.542 24.3477v0l-142.124 -185.885l-10.3945 -14.7422
l-0.65918 0.305664l-0.354492 -0.482422l-2.5957 1.8291l-166.596 76.2158l-102.14 -125.003l-0.374023 0.262695v-52.2568h450.879c11.2109 0 20.377 -9.16504 20.377 -20.376c0 -11.2012 -9.16602 -20.377 -20.377 -20.377h-471.246
c-11.2109 0 -20.377 9.17578 -20.377 20.377v471.246c0 11.2012 9.16602 20.377 20.377 20.377c11.2012 0 20.3672 -9.17578 20.3672 -20.377v-335.109z" />
    <glyph glyph-name="uniF132" unicode="&#xf132;" 
d="M502.006 237.952v0c4.28516 -26.5605 4.77344 -49.4805 2.48926 -69.4482c-12.0361 -130.224 -120.446 -232.504 -251.652 -232.504h-0.984375c-139.405 0 -252.385 115.4 -251.856 256.984c0.535156 141.048 113.939 255.016 252.802 255.016h1
c67.5293 0 130.923 -26.0156 178.491 -74.7041c36.6748 -37.5283 60.4951 -84.4238 69.3965 -135.36zM252.843 -32v0c74.54 0 140.65 37.96 180.792 95.7598c-58.9043 -28.0957 -133.703 -13.9033 -142.446 -1.78418c-5.94727 8.25684 -0.457031 20.4404 1.58301 39.4883
c-1.22852 -11.4795 -55.3359 -52.2959 -91.9004 -50.04c-17.4238 0.0722656 -33.3984 5.20801 -47.9307 15.4238c-14.5332 10.2168 -25.9072 24.4482 -34.1152 42.6963s-12.2725 38.6719 -12.1855 61.2637c0.0712891 19.8008 3.77344 39.5762 11.0908 59.3359
c7.31738 19.7686 17.3447 37.7686 30.082 54.0088c12.7363 16.2393 27.1826 29.0557 43.3467 38.4561c16.1553 9.3916 33.0361 14.0557 50.625 13.9834c15.6904 -0.0556641 30.2949 -4.27148 43.8037 -12.6475s24.7959 -20.2803 33.8779 -35.7363l8.69629 40.96
l46.5605 -0.183594s-40.9365 -144.345 -45.0791 -239.856c18.7861 -13.1201 124.447 -18.752 142.485 74.1924c1.25195 9.51172 1.98535 19.1836 2.02441 29.0156c0.228516 60.04 -22.5752 115.592 -64.2285 158.208c-41.6377 42.6162 -97.1299 65.4561 -156.247 65.4561
h-0.874023c-121.557 0 -220.821 -99.6641 -221.294 -223.136c-0.464844 -123.937 98.4297 -224.864 220.475 -224.864h0.858398zM304.209 221.008v0c0.09375 23.8242 -5.31738 42.5439 -16.2109 56.1602c-10.9014 13.6162 -25.4902 20.4639 -43.7725 20.5361
c-16.5566 0.0634766 -31.7119 -6.57617 -45.4736 -19.9277c-13.7686 -13.3447 -24.6074 -30.376 -32.5312 -51.1045c-7.92383 -20.7275 -11.9258 -40.8076 -11.9971 -60.248c-0.0625 -15.416 2.34766 -28.8242 7.21582 -40.2314
c4.87598 -11.4004 11.6104 -20.2324 20.2119 -26.4805c8.59375 -6.24805 18.416 -9.40039 29.4521 -9.43945c10.3506 -0.0400391 21.0947 3.32715 32.248 10.1191c11.1455 6.78418 21.2676 16.208 30.373 28.2568c9.09863 12.0479 16.4395 26.0312 22.0166 41.9512
c5.57617 15.9199 8.4043 32.7207 8.46777 50.4082z" />
    <glyph glyph-name="uniF136" unicode="&#xf136;" 
d="M480 64v320c0 8.82422 -7.16797 16 -16 16h-416c-8.83203 0 -16 -7.17578 -16 -16v-320c0 -8.84766 7.16797 -16.0322 16 -16.0322h55.832l48.168 -48.1514l48.1602 48.1514h263.84c8.83203 0 16 7.18457 16 16.0322zM464 432v0c26.5039 0 48 -21.4961 48 -48v-320
c0 -26.5039 -21.4961 -48 -48 -48h-247.808l-64.1924 -64.1836l-64.2002 64.1836h-39.7998c-26.5195 0 -48 21.4961 -48 48v320c0 26.5039 21.4805 48 48 48h416zM398.223 152v0c9.8125 0 17.7773 -7.16797 17.7773 -16c0 -8.83984 -7.96484 -16.0156 -17.7773 -16.0156
h-284.445c-9.83105 0 -17.7773 7.17578 -17.7773 16.0156c0 8.83203 7.94629 16 17.7773 16h284.445zM398.223 239.992v0c9.8125 0 17.7773 -7.16797 17.7773 -15.9922c0 -8.83203 -7.96484 -16 -17.7773 -16h-284.445c-9.83105 0 -17.7773 7.16797 -17.7773 16
c0 8.82422 7.94629 15.9922 17.7773 15.9922h284.445zM113.777 327.992h164.445c9.8125 0 17.7773 -7.16797 17.7773 -15.9922c0 -8.83203 -7.96484 -16 -17.7773 -16h-164.445c-9.83105 0 -17.7773 7.16797 -17.7773 16c0 8.82422 7.94629 15.9922 17.7773 15.9922z" />
    <glyph glyph-name="uniF117" unicode="&#xf117;" 
d="M405.538 258.97v0c36.7041 0 66.4619 -28.2148 66.4619 -63.0156v-189.046c0 -34.8008 -29.7578 -63.0156 -66.4619 -63.0156h-299.076c-36.7119 0 -66.4619 28.2148 -66.4619 63.0156v189.046c0 34.8008 29.75 63.0156 66.4619 63.0156v47.2461
c0 78.3037 66.9512 141.784 149.538 141.784s149.538 -63.4805 149.538 -141.784v-47.2461zM139.692 306.216v0v-47.2461h232.615v47.2461c0 60.9043 -52.0723 110.276 -116.308 110.276s-116.308 -49.3721 -116.308 -110.276zM438.77 6.9082v0v189.046
c0 17.4004 -14.8789 31.5078 -33.2314 31.5078h-299.076c-18.3525 0 -33.2314 -14.1074 -33.2314 -31.5078v-189.046c0 -17.3848 14.8789 -31.4922 33.2314 -31.4922h299.076c18.3525 0 33.2314 14.1074 33.2314 31.4922zM256 164.446v0
c9.17188 0 16.6152 -7.0498 16.6152 -15.7539v-94.5225c0 -8.69629 -7.44336 -15.7539 -16.6152 -15.7539c-9.18848 0 -16.6152 7.05762 -16.6152 15.7539v94.5225c0 8.7041 7.42676 15.7539 16.6152 15.7539z" />
    <glyph glyph-name="uniF119" unicode="&#xf119;" 
d="M448 448v0l64 -287.968v-192c0 -17.6807 -14.3281 -32.0322 -32 -32.0322h-448c-17.6719 0 -32 14.3516 -32 32.0322v192l64 287.968h384zM480 -15.9521v0v128c0 8.81641 -7.16797 15.9521 -16 15.9521h-80v-64h-256v64h-80c-8.84766 0 -16 -7.13574 -16 -15.9521v-128
c0 -8.84766 7.15234 -16.0479 16 -16.0479h416c8.83203 0 16 7.2002 16 16.0479zM352 160v0h128l-64 256h-320l-64 -256h128v-64h192v64z" />
    <glyph glyph-name="uniF135" unicode="&#xf135;" 
d="M38.46 407.405c-2.58203 0 -3.25 -0.255859 -4.45215 -3.03906c-1.14648 -2.75977 -0.8125 -3.07129 0.790039 -4.57422l170.352 -170.329v-169.628c0 -1.17969 0.222656 -2.01465 1.46973 -3.27246l85.7148 -85.6816
c1.00195 -1.05762 1.53613 -1.49219 3.26172 -1.49219c0.333984 0 1.0791 0.078125 2.33691 0.568359c2.1377 0.93457 2.39355 1.60254 2.39355 4.16211v255.344l169.95 169.939c1.94824 1.84766 2.31543 2.19238 1.05762 5.24219
c-1.10254 2.50488 -1.76953 2.76074 -4.35254 2.76074h-428.521zM295.596 -64.002c-10.6299 0 -20.0352 4.01758 -27.2139 11.6201l-85.3818 85.3477c-7.35742 7.36816 -11.2422 16.6621 -11.2422 26.8691v155.804l-160.167 160.156
c-11.5752 10.8184 -14.7471 26.1338 -8.31445 41.6387c6.60059 15.1592 19.0557 23.3623 35.1836 23.3623h428.521c16.1396 0 28.5947 -8.20312 35.0723 -23.084c6.55566 -15.7939 3.39453 -31.1094 -8.55957 -42.2959l-159.777 -159.777v-241.52
c0 -16.1162 -8.19141 -28.5605 -23.0957 -35.0498c-5.45312 -2.125 -10.2949 -3.07129 -15.0254 -3.07129v0z" />
    <glyph glyph-name="uniF13A" unicode="&#xf13a;" 
d="M320 48v192h32v-192h-32zM224 48v224h32v-224h-32zM416 336v0c0 3.59961 -1.22363 6.87988 -3.23242 9.55176l3.23242 6.46387h-16h-320h-16.0078v-16.0156v-15.9844v-336.016c0 -8.83203 7.16016 -16 16.0078 -16h320c8.82422 0 16 7.16797 16 16v352zM192 416v-32h96
v32h-96zM464 384v0c8.83203 0 16 -7.16016 16 -16c0 -8.83203 -7.16797 -15.9844 -16 -15.9844h-16v-384.016c0 -17.6562 -14.3281 -32 -32 -32h-352.008c-17.6641 0 -31.9922 14.3438 -31.9922 32v384.016h-16.0078c-8.83984 0 -15.9922 7.15234 -15.9922 15.9844
c0 8.83984 7.15234 16 15.9922 16h48h96v48c0 8.83984 7.16016 16 16.0078 16h128c8.83203 0 16 -7.16016 16 -16v-48h96h48zM127.992 48v192h32v-192h-32z" />
    <glyph glyph-name="uniF12B" unicode="&#xf12b;" 
d="M352.4 210.555c-5.75879 5.59668 -14.3691 5.59668 -20.1201 0l-64.6895 -74.1865v195.884c0 8.12305 -6.75488 14.6895 -15.0938 14.6895c-8.33105 0 -15.0928 -6.56641 -15.0928 -14.6895v-195.884l-66.124 74.1865c-5.75879 5.59668 -15.4561 5.59668 -21.2139 0
c-5.75781 -5.61133 -5.93945 -14.6885 -0.181641 -20.2852l87.5723 -99.4219c0.708984 -1.4834 1.59961 -2.89355 2.85254 -4.11328c2.94336 -2.85645 6.78418 -4.2373 10.626 -4.17871c0.0527344 0 0.0830078 -0.0146484 0.12793 -0.0146484
c0.0527344 0 0.0908203 0.0146484 0.135742 0.0146484c3.84863 -0.0517578 7.70508 1.32227 10.6406 4.17871c1.25293 1.21191 2.17383 2.61523 2.88281 4.09082l87.6777 99.4443c5.75 5.59668 5.75 14.6738 0 20.2852zM433.323 66.1621
c-45.4365 -34.9258 -104.622 -54.9277 -167.532 -56.8125c-9.1582 -10.7549 -23.1064 -22.8398 -44.4385 -35.2363c-17.1416 -10 -36.1016 -15.0566 -56.3691 -15.0566c-20.9336 0 -36.2559 5.61035 -39.1162 6.71973c-16.5205 6.49707 -27.3418 23.3721 -24.8369 40.957
c2.08496 14.5908 11.6201 26.3213 24.9473 30.7568c-33.7725 15.9434 -62.6221 37.9414 -84.1543 64.374c-27.2969 33.4619 -41.7549 72.5342 -41.7549 112.937c0 56.8574 27.9619 109.634 78.7207 148.64c47.7646 36.7217 110.72 56.9453 177.267 56.9453
c66.5254 0 129.48 -20.2236 177.268 -56.9453c50.7139 -39.0059 78.6768 -91.7822 78.6768 -148.64c0 -56.8564 -27.9629 -109.633 -78.6768 -148.639zM256.056 382.134c-120.232 0 -217.714 -74.9072 -217.714 -167.333c0 -65.2158 48.4971 -121.696 119.324 -149.326
c0 0 31.5107 -11.0869 15.2783 -42.1328c-9.75684 -18.6709 -33.1074 -21.9531 -33.1074 -21.9531s10.4004 -4.10156 25.1465 -4.10156c10.8213 0 24.0381 2.2168 37.1436 9.86719c39.6045 23.04 42.4648 40.6914 42.4648 40.6914
c4.19141 -0.376953 4.87793 -0.46582 5.83203 -0.46582c0.797852 0 1.8623 0.0664062 5.63184 0.0664062c120.233 0 217.715 74.9297 217.715 167.354c0 92.4258 -97.4814 167.333 -217.715 167.333z" />
    <glyph glyph-name="uniF101" unicode="&#xf101;" 
d="M485.053 218.508h-421.25l164.612 151.214c6.84473 6.90918 6.84473 18.1611 0 25.0879c-6.85352 6.9082 -17.9648 6.92676 -24.8096 0.0175781l-194.12 -178.196c-1.5625 -0.81543 -3.05371 -1.79492 -4.36523 -3.11816
c-3.50293 -3.53613 -5.18262 -8.19629 -5.11133 -12.8203c0 -0.0458984 -0.00878906 -0.0908203 -0.00878906 -0.136719c0 -0.0449219 0.00878906 -0.0810547 0.00878906 -0.126953c-0.0712891 -4.63281 1.6084 -9.28418 5.11133 -12.8379
c1.31152 -1.31445 2.80273 -2.30273 4.36523 -3.11914l194.12 -178.205c6.84473 -6.90918 17.9561 -6.90918 24.8096 0c6.84473 6.93555 6.84473 18.0244 0 24.9336l-164.631 151.041h421.269c9.91699 0 17.9648 8.11523 17.9648 18.124
c0 10.001 -8.04785 18.1426 -17.9648 18.1426z" />
    <glyph glyph-name="uniF124" unicode="&#xf124;" 
d="M4.99707 -26.9307c-3.08789 3.11328 -4.99707 7.41504 -4.99707 12.1729v137.66c0 9.49023 7.6377 17.208 17.0664 17.208c9.42969 0 17.0674 -7.71777 17.0674 -17.208v-120.453h443.732v0v120.453c0 9.49023 7.64648 17.208 17.0674 17.208
s17.0664 -7.71777 17.0664 -17.208v-137.66c0 -4.75781 -1.91113 -9.05957 -5.00098 -12.1729c-3.08887 -3.1123 -7.35547 -5.03516 -12.0654 -5.03516h-477.867c-4.71484 0 -8.98145 1.92285 -12.0693 5.03516zM238.934 135.158v0v263.064
c0 9.49023 7.63672 17.208 17.0664 17.208s17.0664 -7.71777 17.0664 -17.208v-263.058l73.1055 85.9922c6.72461 6.78906 17.6299 6.78906 24.3535 0c6.72461 -6.77051 6.72461 -17.7842 0 -24.5547l-102.297 -120.35c-3.375 -3.39844 -7.80469 -5.09082 -12.2305 -5.07812
c-4.42383 -0.0126953 -8.85156 1.67969 -12.2266 5.07812l-102.306 120.35c-6.72461 6.77051 -6.72461 17.7842 0 24.5547c6.72363 6.78906 17.6377 6.78906 24.3623 0z" />
    <glyph glyph-name="uniF107" unicode="&#xf107;" 
d="M497.573 410.353l-217.67 -217.68l217.67 -217.679c6.78906 -6.78027 6.78906 -17.7793 0 -24.5674c-6.7793 -6.79785 -17.7783 -6.79785 -24.5674 0l-217.67 217.679l-217.671 -217.679c-6.78809 -6.79785 -17.7871 -6.79785 -24.5674 0
c-6.79688 6.78809 -6.79688 17.7871 0 24.5674l217.671 217.679l-217.671 217.68c-6.79688 6.76172 -6.79688 17.7607 0 24.5498c6.78027 6.79688 17.7793 6.79688 24.5674 0l217.671 -217.671l217.67 217.671c6.78906 6.79688 17.7881 6.79688 24.5674 0
c6.78906 -6.78906 6.78906 -17.7881 0 -24.5498z" />
    <glyph glyph-name="uniF13C" unicode="&#xf13c;" 
d="M365.336 283.438l-149.336 -149.344l-69.3359 69.3438c-6.10449 6.0957 -16 6.0957 -22.1045 0c-6.0957 -6.1123 -6.0957 -16 0 -22.0957l78.4883 -78.4805c0.520508 -0.767578 0.839844 -1.60742 1.51172 -2.2959c3.16016 -3.16016 7.30469 -4.59961 11.4404 -4.50391
c4.12793 -0.0957031 8.28027 1.34375 11.4316 4.50391c0.680664 0.688477 1 1.52832 1.52051 2.2959l158.479 158.48c6.09668 6.0957 6.09668 16 0 22.0957c-6.10352 6.0957 -15.9912 6.0957 -22.0957 0zM256 -32.002c-123.712 0 -224 100.279 -224 224
c0 123.72 100.288 224.016 224 224.016s224 -100.296 224 -224.016c0 -123.721 -100.288 -224 -224 -224zM256 447.998c-141.392 0 -256 -114.624 -256 -256s114.608 -256 256 -256c141.384 0 256 114.624 256 256s-114.616 256 -256 256z" />
    <glyph glyph-name="uniF104" unicode="&#xf104;" 
d="M0 11.5557h512v-51.5557h-512v51.5557zM0 217.777h512v-51.5547h-512v51.5547zM0 424h512v-51.5557h-512v51.5557z" />
    <glyph glyph-name="uniF11E" unicode="&#xf11e;" 
d="M256 448v0c141.384 0 256 -114.624 256 -256.016c0 -141.393 -114.616 -256 -256 -256c-141.392 0 -256 114.607 -256 256c0 141.392 114.608 256.016 256 256.016zM256 -32.0156v0c123.712 0 224 100.296 224 224s-100.288 224 -224 224s-224 -100.296 -224 -224
s100.288 -224 224 -224zM259.696 311.92v0c42.5039 0 68.2881 -24.0635 68.2881 -54.0957c0 -52.7363 -67.2402 -57.2646 -67.2402 -91.5039c0 -5.56055 3.12793 -12.5605 9.05566 -16.7441l-21.2559 -9.42383c-9.40039 8.03125 -13.2402 17.8076 -13.2402 28.6396
c0 44.3438 62.7119 47.8076 62.7119 84.8242c0 17.4561 -13.584 32.4873 -40.7598 32.4873c-26.4795 0 -42.8555 -11.1836 -55.7441 -28.6396l-17.4238 18.8564c16.7285 21.9834 42.5039 35.5996 75.6084 35.5996zM255.856 110.48v0
c10.4551 0 19.168 -8.75293 19.168 -19.208c0 -10.4805 -8.71289 -19.2002 -19.168 -19.2002c-10.4482 0 -19.1602 8.71973 -19.1602 19.2002c0 10.4551 8.71191 19.208 19.1602 19.208z" />
    <glyph glyph-name="uniF108" unicode="&#xf108;" 
d="M321.493 336.052h-299.233v-377.826h378.41v297.672l22.2588 22.2246v-342.122h-422.929v422.277h343.752zM180.847 163.796l248.46 248.777l47.2119 -47.1504l-248.46 -248.777l-55.2588 -8.02344zM204.608 156.451l15.749 -15.7139l240.468 240.109l-15.7373 15.7129z
M488.917 377.102l-47.2236 47.1514l23.0947 23.7471s20.6562 -2.57812 32.376 -14.2793c11.8867 -11.8682 14.8359 -32.8711 14.8359 -32.8711z" />
    <glyph glyph-name="uniF106" unicode="&#xf106;" 
d="M507.346 363.249c-6.20508 6.33496 -16.2588 6.33496 -22.4639 0l-309.446 -315.895l-148.061 151.143c-6.26953 6.38379 -16.4199 6.38379 -22.6729 0c-6.26953 -6.3916 -6.26953 -16.7695 0 -23.1445l158.724 -162.052
c0.104492 -0.0976562 0.224609 -0.163086 0.329102 -0.269531c0.0800781 -0.0898438 0.143555 -0.196289 0.232422 -0.286133c6.19727 -6.32715 16.2588 -6.32715 22.4561 0l320.902 327.581c6.20605 6.33398 6.20605 16.5967 0 22.9229z" />
    <glyph glyph-name="uniF127" unicode="&#xf127;" 
d="M494.062 -10.0459v0c4.81934 -4.78418 7.46777 -11.1758 7.46777 -17.9902c0 -6.81543 -2.64844 -13.2236 -7.46777 -18.0264c-4.80273 -4.81934 -11.2109 -7.48535 -18.0088 -7.48535c-6.81445 0 -13.2061 2.66602 -18.0254 7.48535l-125.723 125.705
c-36.0518 -28.0898 -80.543 -43.4316 -126.411 -43.4316c-113.522 0 -205.895 92.3545 -205.895 205.895c0 113.522 92.3721 205.895 205.895 205.895c113.54 0 205.895 -92.3721 205.895 -205.895c0 -45.8682 -15.3418 -90.3594 -43.4316 -126.429zM205.895 395.582v0
c-84.6211 0 -153.477 -68.8555 -153.477 -153.477c0 -84.6387 68.8555 -153.494 153.477 -153.494c84.6387 0 153.494 68.8555 153.494 153.494c0 84.6211 -68.8555 153.477 -153.494 153.477z" />
    <glyph glyph-name="uniF11B" unicode="&#xf11b;" 
d="M144 256v0c-8.83984 0 -16 7.16016 -16 15.9922c0 8.85547 7.16016 16.0078 16 16.0078h80c8.83984 0 16 -7.15234 16 -16.0078c0 -8.83203 -7.16016 -15.9922 -16 -15.9922h-80zM128 175.992v0c0 8.85547 7.16016 16.0078 16 16.0078h192
c8.83984 0 16 -7.15234 16 -16.0078c0 -8.83203 -7.16016 -15.9922 -16 -15.9922h-192c-8.83984 0 -16 7.16016 -16 15.9922zM447.952 320v0h0.0478516v-368.008c0 -8.83203 -7.16016 -15.9922 -16 -15.9922h-384c-8.84766 0 -16 7.16016 -16 15.9922v480.008
c0 8.83984 7.15234 16 16 16h272v-0.0478516zM320 408.568v0v-88.5684h88.5762zM416 -16v0v304h-128v128h-208c-8.83984 0 -16 -7.16797 -16 -16.0078v-415.992c0 -8.84766 7.16016 -16 16 -16h320c8.83203 0 16 7.15234 16 16zM336 96v0c8.83984 0 16 -7.17578 16 -16
c0 -8.84766 -7.16016 -16 -16 -16h-192c-8.83984 0 -16 7.15234 -16 16c0 8.82422 7.16016 16 16 16h192z" />
    <glyph glyph-name="uniF128" unicode="&#xf128;" 
d="M505.407 400.144v0c0.0078125 -0.0791016 -1.28418 -0.15918 -1.28418 -0.24707v-276.889c-7.87695 8.61621 -15.7539 15.9365 -31.5078 21.7441v222.576l-206.737 -169.072c-0.410156 -0.551758 0.432617 -1.1123 -0.0634766 -1.61621
c-3.11133 -3.15918 -7.38086 -4.67188 -11.4609 -4.58398c-4.07227 -0.0878906 -8.50684 1.4248 -11.6182 4.58398c-0.488281 0.496094 -1.52832 1.05664 -1.9375 1.60059l-209.29 169.088v-319.432c0 -8.81641 9.68066 -15.8965 18.377 -15.8965h221.483
c-0.575195 -8 -0.929688 -10.584 -0.929688 -16.0078c0 -5.41602 0.354492 -7.99219 0.929688 -15.9922h-252.991c-8.69629 0 -18.377 7.04785 -18.377 15.8965v384c0 0.0712891 1.33105 0.167969 1.33105 0.24707c-0.0625 4.1123 2.74121 8.26465 5.8291 11.4004
c3.55273 3.6084 8.38086 4.45605 12.9971 4.45605h469.055c4.61621 0 8.79883 -0.847656 12.3438 -4.45605c3.0791 -3.12793 3.91406 -7.28809 3.85156 -11.4004zM254.685 228.168v0l191.677 155.832h-383.354zM477.152 88.4883v0c6.15234 6.23145 16.124 6.23145 22.2842 0
c6.14355 -6.26465 6.14355 -16.4082 0 -22.6562l-89.1279 -90.5039c-3.76465 -3.82422 -8.95605 -5.28027 -13.8398 -4.42383c-4.875 -0.856445 -10.0742 0.599609 -13.8389 4.42383l-57.6123 58.5195c-6.15137 6.23242 -6.15137 16.3604 0 22.6084
c6.15234 6.24805 16.1318 6.24805 22.2764 0l49.1748 -49.9277z" />
    <glyph glyph-name="uniF125" unicode="&#xf125;" 
d="M122.224 164.147v0c-32.6396 -2.875 -58.2236 -29.8457 -58.2236 -62.7246v-63.0146c0 -34.8008 28.6484 -63.0469 64 -63.0469h160v-31.5078h-160c-53.0244 0 -96 42.3701 -96 94.5547v63.0146c0 41.3623 27.0244 76.4307 64.6084 89.2461
c-20.3682 27.1748 -32.6084 61.9199 -32.6084 99.8008c0 87.0156 64.4717 157.53 144 157.53s144 -70.5225 144 -157.538c0 -37.873 -12.2402 -72.6338 -32.6084 -99.8086c27.5283 -9.38965 49.3447 -34.123 59.0723 -57.7539h-35.1123
c-10.1592 15.7539 -28.3516 29.3652 -49.5752 31.2402c-23.9766 -19.5273 -53.5928 -31.209 -85.7764 -31.209s-61.7998 11.6973 -85.7764 31.2168zM96 290.47v0c0 -69.6006 50.1436 -126.031 112 -126.031c61.8477 0 112 56.4307 112 126.031s-50.1523 126.03 -112 126.03
c-61.8564 0 -112 -56.4297 -112 -126.03zM464 38.376v0c8.83203 0 16 -7.04199 16 -15.7539c0 -8.6875 -7.16797 -15.7529 -16 -15.7529h-48v-47.2305c0 -8.71191 -7.16016 -15.7539 -16 -15.7539c-8.83203 0 -16 7.04199 -16 15.7539v47.2305h-48
c-8.83984 0 -16 7.06543 -16 15.7529c0 8.71191 7.16016 15.7539 16 15.7539h48v47.293c0 8.7041 7.16797 15.7539 16 15.7539c8.83984 0 16 -7.0498 16 -15.7539v-47.293h48z" />
    <glyph glyph-name="uniF11F" unicode="&#xf11f;" 
d="M432 -32v0c8.83203 0 16 -7.15234 16 -15.9922c0 -8.83203 -7.16797 -16.0078 -16 -16.0078h-352c-8.83984 0 -16 7.17578 -16 16.0078c0 8.83984 7.16016 15.9922 16 15.9922h48v141.368c-0.192383 1.51953 -0.120117 3.05566 0.192383 4.5918
c0.911133 7.55176 7.01562 13.4082 14.6641 13.96l89.1113 64.1123l-89.1113 64.1113c-7.63281 0.552734 -13.7363 6.43262 -14.6562 13.9443c-0.320312 1.53613 -0.392578 3.08789 -0.200195 4.61621v141.296h-48c-8.83984 0 -16 7.15234 -16 16
c0 8.83203 7.16016 16 16 16h352c8.83203 0 16 -7.16797 16 -16c0 -8.84766 -7.16797 -16 -16 -16h-48v-141.312c0.183594 -1.52051 0.112305 -3.06445 -0.200195 -4.60059c-0.919922 -7.51172 -7.01562 -13.3916 -14.6562 -13.9443l-89.1113 -64.1113l89.1113 -64.1123
c7.64844 -0.551758 13.7529 -6.41602 14.6641 -13.96c0.304688 -1.52832 0.375977 -3.06348 0.192383 -4.58398v-141.376h48zM160 278.4v0l96 -69.0723l96 69.0801v137.592h-192v-137.6zM160 105.68v0v-137.68h192v137.672l-96 69.0723zM256 234.664l-80 61.3359
l80 -22.6641l33.3359 6.66406l38.6641 8zM176 -18.6641v61.3281l80 41.3359l72 -37.7197v-64.9443h-152z" />
    <glyph glyph-name="uniF122" unicode="&#xf122;" 
d="M503.501 33.2334v0c2.89355 -5.36328 2.39648 -11.9121 -1.30371 -16.7705c-3.67676 -4.84375 -9.84375 -7.14551 -15.8174 -5.71973l-77.8779 17.8408l-26.6475 -74.1523c-2.06348 -5.75098 -7.30762 -9.75 -13.3975 -10.2305
c-0.411133 -0.015625 -0.814453 -0.0302734 -1.20996 -0.0302734c-5.63965 0 -10.8613 3.03809 -13.6074 8.05176l-65.1787 118.738c-10.3721 -1.79102 -21.0156 -2.77539 -31.8994 -2.77539c-11.2402 0 -22.2334 1.04688 -32.9307 2.95312l-63.8369 -118.815
c-2.71582 -5.05273 -7.99023 -8.15234 -13.6689 -8.15234c-0.379883 0 -0.760742 0.0146484 -1.14844 0.0302734c-6.11328 0.450195 -11.3799 4.46387 -13.459 10.2305l-26.6475 74.1523l-77.8779 -17.8408c-5.94238 -1.39551 -12.1719 0.890625 -15.8496 5.75
c-3.68457 4.875 -4.17285 11.4707 -1.2334 16.8027l78.0186 142.158c-11.1787 23.8926 -17.4629 50.5371 -17.4629 78.6543c0 102.672 83.3164 185.892 186.097 185.892c102.772 0 186.089 -83.2197 186.089 -185.892c0 -27.5977 -6.06641 -53.7617 -16.8574 -77.3057z
M148.94 -2.30762v0l43.8926 81.6846c-34.9326 12.7256 -64.9541 35.6113 -86.5273 65.0693l-52.5576 -95.7744l57.6074 13.1982c7.66406 1.82129 15.4062 -2.48047 18.0752 -9.86621zM256.817 99.2402v0c85.5977 0 155.229 69.4941 155.229 154.868
c0 85.3662 -69.6318 154.845 -155.229 154.845c-85.6123 0 -155.26 -69.4785 -155.26 -154.845c0 -85.374 69.6475 -154.868 155.26 -154.868zM402.017 61.8701v0l57.8789 -13.2607l-52.4023 96.7979c-21.7988 -30.1631 -52.4102 -53.5449 -88.0947 -66.332
l44.8926 -81.7783l19.6504 54.707c2.66797 7.38574 10.3789 11.6875 18.0752 9.86621zM256.686 378.062v0c68.5459 0 124.121 -55.5361 124.121 -124.015c0 -68.4795 -55.5752 -123.985 -124.121 -123.985c-68.5537 0 -124.121 55.5059 -124.121 123.985
c0 68.4785 55.5674 124.015 124.121 124.015zM256.686 161.047v0c51.4102 0 93.0908 41.6406 93.0908 93c0 51.374 -41.6807 93 -93.0908 93c-51.4092 0 -93.0908 -41.626 -93.0908 -93c0 -51.3594 41.6816 -93 93.0908 -93z" />
    <glyph glyph-name="uniF115" unicode="&#xf115;" 
d="M384.56 437.529v0c37.5928 -21.5039 50.4648 -69.167 28.7686 -106.44l-180.776 -310.445l-66.5439 38.1006c-0.0078125 0 -0.015625 0 -0.0234375 0.0078125l66.5674 -38.1084l-117.328 -76.832l-27.2236 15.5811l8.41602 139.186l23.5518 40.4316
c0.0078125 0.0234375 0.0166016 0.0400391 0.0322266 0.0634766l157.192 269.95c21.7041 37.2812 69.7754 50.0498 107.367 28.5059zM205.328 36.2236v0l-81.6797 46.7578l-6.32031 -104.385zM252.48 117.199v0l110.039 188.982l-81.6797 46.7656l-141.479 -242.987
l81.6797 -46.7344l31.4316 53.9736h0.00878906zM386.096 346.669v0c13.0244 22.3711 5.2959 50.9717 -17.2559 63.8818c-22.5518 12.9023 -51.3994 5.26172 -64.4238 -17.1084l-7.85645 -13.501l81.6807 -46.7578z" />
    <glyph glyph-name="uniF105" unicode="&#xf105;" 
d="M449.832 384v0c35.3438 0 62.168 -28.6318 62.168 -63.9756v-288c0 -35.3359 -26.8242 -64.0244 -62.168 -64.0244h-384c-35.3516 0 -65.832 28.6885 -65.832 64.0244v288c0 35.3438 30.4805 63.9756 65.832 63.9756h64c0 32 28.6484 64 64 64h128
c35.3438 0 64 -32 64 -64h64zM193.832 416v0c-17.6719 0 -32 -16 -32 -32h192c0 16 -14.3281 32 -32 32h-128zM480 32.0244v0v288c0 17.6797 -12.4961 31.9756 -30.168 31.9756h-384c-17.6719 0 -32 -16 -32 -32h62.168v-32h-64v-32h64v-32h-64v-191.976
c0 -17.6807 16.1602 -32.0244 33.832 -32.0244h384c17.6719 0 30.168 14.3438 30.168 32.0244zM257.832 288.024v0c61.8564 0 112 -50.1367 112 -111.984c0 -61.8643 -50.1436 -112.016 -112 -112.016s-112 50.1514 -112 112.016c0 61.8477 50.1436 111.984 112 111.984z
M257.832 96.0244v0c44.1836 0 80 35.832 80 80.0156c0 44.1924 -35.8164 79.9922 -80 79.9922s-80 -35.7998 -80 -79.9922c0 -44.1836 35.8164 -80.0156 80 -80.0156z" />
    <glyph glyph-name="uniF123" unicode="&#xf123;" 
d="M256 353.477v0c44.1836 0 80 -35.2803 80 -78.7842c0 -43.5127 -35.8164 -78.7539 -80 -78.7539s-80 35.2412 -80 78.7539c0 43.5039 35.8164 78.7842 80 78.7842zM256 227.446v0c26.5117 0 48 21.1494 48 47.2461c0 26.1191 -21.4883 47.2607 -48 47.2607
c-26.5195 0 -48 -21.1416 -48 -47.2607c0 -26.0967 21.4805 -47.2461 48 -47.2461zM256 448v0c106.04 0 192 -84.6455 192 -189.046c0 -104.417 -192 -315.077 -192 -315.077s-192 210.66 -192 315.077c0 104.4 85.96 189.046 192 189.046zM96 256.969v0
c0 -88.0957 160 -265.846 160 -265.846s160 177.75 160 265.846c0 88.0879 -71.6396 159.523 -160 159.523c-88.3682 0 -160 -71.4355 -160 -159.523z" />
    <glyph glyph-name="uniF11D" unicode="&#xf11d;" 
d="M498.354 233.458v0c3.66211 -3.02832 5.78906 -7.60547 5.79688 -12.4082c0.015625 -4.82715 -2.08691 -9.37988 -5.75 -12.4561l-204.296 -172.554c-4.68652 -3.95117 -11.2559 -4.78711 -16.7227 -2.12012c-5.52148 2.6582 -9.02734 8.31934 -9.02734 14.5273
l-0.496094 92.2041c-220.688 0.136719 -236.378 -144.027 -236.922 -149.986c-0.677734 -8.0957 -5.71094 -14.4004 -13.6748 -14.6494c-0.180664 -0.015625 -0.370117 -0.015625 -0.535156 -0.015625c-7.77441 0 -13.4307 5.78223 -14.6035 13.6611
c-0.788086 5.37988 -17.4795 135.064 57.3203 224.297c45.9619 54.8359 116.861 84.8643 208.415 87.8271l0.496094 90.1719c0 6.18457 3.50586 11.8301 9.00391 14.4961c5.49023 2.63477 11.9961 1.87109 16.6992 -2.04004zM297.609 82.4512v0l163.659 138.51
l-163.659 137.186v-72.1738c0 -8.8584 -5.92285 -15.6934 -14.627 -15.6934c-89.6475 0 -156.995 -26.0918 -199.507 -76.3506c-31.9648 -37.8018 -46.6631 -83.3613 -51.6885 -121.773c34.3984 47.9531 94.6416 103.784 252.29 103.784h0.03125
c4.16699 0 7.04199 -3.14844 9.99609 -6.15918c2.96973 -3.01172 3.50488 -8.55371 3.50488 -12.834v-74.4951z" />
    <glyph glyph-name="uniF12D" unicode="&#xf12d;" 
d="M249.777 -30.1982c-9.83105 0 -17.7773 7.16797 -17.7773 15.9912c0 8.83203 7.94629 16 17.7773 16h244.445c9.8125 0 17.7773 -7.16797 17.7773 -16c0 -8.82324 -7.96484 -15.9912 -17.7773 -15.9912h-244.445zM249.777 57.8018
c-9.83105 0 -17.7773 7.16797 -17.7773 15.9912c0 8.83203 7.94629 16 17.7773 16h204.445c9.8125 0 17.7773 -7.16797 17.7773 -16c0 -8.82324 -7.96484 -15.9912 -17.7773 -15.9912h-204.445zM249.777 145.793c-9.83105 0 -17.7773 7.16895 -17.7773 16
c0 8.84082 7.94629 16.0166 17.7773 16.0166h164.445c9.8125 0 17.7773 -7.17578 17.7773 -16.0166c0 -8.83105 -7.96484 -16 -17.7773 -16h-164.445zM118.935 328.61l-87.2139 -100.612c-6.90918 -6.84473 -18.1611 -6.84473 -25.0879 0
c-6.9082 6.85352 -6.92676 17.9648 -0.0175781 24.8096l114.196 130.12c0.81543 1.5625 1.79492 3.05371 3.11816 4.36523c3.53613 3.50293 8.19629 5.18262 12.8203 5.11133c4.89648 0.0712891 9.54785 -1.6084 13.1016 -5.11133
c1.31445 -1.31152 2.30273 -2.80273 3.11914 -4.36523l114.205 -130.12c6.90918 -6.84473 6.90918 -17.9561 0 -24.8096c-6.93555 -6.84473 -18.0244 -6.84473 -24.9336 0l-87.041 100.631v-341.269c0 -9.91699 -8.11523 -17.9648 -18.124 -17.9648
c-10.001 0 -18.1426 8.04785 -18.1426 17.9648v341.25z" />
    <glyph glyph-name="uniF121" unicode="&#xf121;" 
d="M256 258.954v0c17.6719 0 32 -14.0918 32 -31.5078c0 -17.4004 -14.3281 -31.5078 -32 -31.5078s-32 14.1074 -32 31.5078c0 17.416 14.3281 31.5078 32 31.5078zM256 448v0c141.384 0 256 -98.7373 256 -220.554s-114.616 -220.554 -256 -220.554
c-9.82422 0 -19.5117 0.519531 -29.0479 1.44922l-130.952 -64.4648v111.45c-58.5039 40.4248 -96 102.479 -96 172.119c0 121.816 114.608 220.554 256 220.554zM256 38.4004v0c123.712 0 224 84.6455 224 189.046s-100.288 189.046 -224 189.046
s-224 -84.6455 -224 -189.046c0 -64.2285 37.9844 -120.935 96 -155.104v-81.2031l99.2559 48.8604c9.41602 -1.0166 19 -1.59863 28.7441 -1.59863zM128 258.954v0c17.6719 0 32 -14.0918 32 -31.5078c0 -17.4004 -14.3281 -31.5078 -32 -31.5078s-32 14.1074 -32 31.5078
c0 17.416 14.3281 31.5078 32 31.5078zM384 258.954v0c17.6719 0 32 -14.0918 32 -31.5078c0 -17.4004 -14.3281 -31.5078 -32 -31.5078s-32 14.1074 -32 31.5078c0 17.416 14.3281 31.5078 32 31.5078z" />
    <glyph glyph-name="uniF103" unicode="&#xf103;" 
d="M274.508 -37.0527v421.25l151.214 -164.612c6.90918 -6.84473 18.1611 -6.84473 25.0879 0c6.9082 6.85352 6.92676 17.9648 0.0175781 24.8096l-178.196 194.12c-0.81543 1.5625 -1.79492 3.05371 -3.11816 4.36523c-3.53613 3.50293 -8.19629 5.18262 -12.8203 5.11133
c-0.0458984 0 -0.0908203 0.00878906 -0.136719 0.00878906c-0.0449219 0 -0.0810547 -0.00878906 -0.126953 -0.00878906c-4.63281 0.0712891 -9.28418 -1.6084 -12.8379 -5.11133c-1.31445 -1.31152 -2.30273 -2.80273 -3.11914 -4.36523l-178.205 -194.12
c-6.90918 -6.84473 -6.90918 -17.9561 0 -24.8096c6.93555 -6.84473 18.0244 -6.84473 24.9336 0l151.041 164.631v-421.269c0 -9.91699 8.11523 -17.9648 18.124 -17.9648c10.001 0 18.1426 8.04785 18.1426 17.9648z" />
    <glyph glyph-name="uniF11A" unicode="&#xf11a;" 
d="M512.16 256v0h0.151367c-0.0712891 -24 -4.11914 -48 -16.1514 -66v-254h-464v243.032c-20.0322 18.3838 -32.0645 44.9678 -32.1602 76.9678h0.160156l64 192h384zM85.4883 416v0l-42.6641 -128h426.672l-42.6641 128h-341.344zM64.1602 32v-64h400v64h-400zM464.16 64
v0v101.128c-9.03223 -3.26367 -19.5918 -5.10352 -32 -5.10352c-24.0322 0 -49.2559 12.0713 -64 31.9912c-12.9277 -19.6797 -30.2637 -31.9912 -55.6719 -31.9912c-22.8887 0 -43.0566 15.5039 -56.3281 31.9912c-13.2725 -16.4873 -33.4404 -31.9912 -56.3359 -31.9912
c-25.4082 0 -42.7363 12.3115 -55.6641 31.9912c-14.7441 -19.9199 -41.0078 -31.9912 -65.04 -31.9912c-5.19238 0 -10.1602 0.671875 -14.96 1.7832v-97.8076h400zM433.192 192v0c46.9678 0 46.584 64 46.584 64h-447.232c5.38379 -24 24.1045 -64 46.5762 -64
s49.04 0 49.04 32h32s0 -31.9922 39.6641 -31.9922c40.3359 0 39.4316 31.9922 39.4316 31.9922h33.8086s-0.904297 -31.9922 39.4238 -31.9922c39.6719 0 39.4238 31.9922 39.4238 31.9922h32.248s0 -32 49.0322 -32z" />
    <glyph glyph-name="uniF131" unicode="&#xf131;" 
d="M192 352c0 26.5098 21.4902 48 48 48s48 -21.4902 48 -48s-21.4902 -48 -48 -48s-48 21.4902 -48 48zM192 32c0 26.5098 21.4902 48 48 48s48 -21.4902 48 -48s-21.4902 -48 -48 -48s-48 21.4902 -48 48zM192 192c0 26.5098 21.4902 48 48 48s48 -21.4902 48 -48
s-21.4902 -48 -48 -48s-48 21.4902 -48 48z" />
    <glyph glyph-name="uniF118" unicode="&#xf118;" 
d="M498.864 323.602v0c6.65625 -6.27441 6.65625 -16.4678 0 -22.7578l-313.193 -312.188c-6.64746 -6.29004 -17.4326 -6.29004 -24.0889 0l-156.597 147.954c-6.64746 6.2666 -6.64746 16.4512 0 22.7578l72.2764 68.3057c6.64746 6.2666 17.4326 6.2666 24.0889 0
l59.8203 -56.5312l229.283 232.141c6.65625 6.29004 17.4424 6.29004 24.0898 0zM173.308 23.1055v0l289.742 288.812l-60.1396 56.8174l-229.275 -232.125c-6.65527 -6.30664 -17.4414 -6.30664 -24.0977 0l-60.2305 56.8906l-48.1787 -45.5156z" />
    <glyph glyph-name="uniF12C" unicode="&#xf12c;" 
d="M157.22 223.971c5.49512 -5.45703 13.5791 -5.45703 19.0811 0l61.6709 72.3242v-190.986c0 -7.91309 6.4541 -14.3223 14.4229 -14.3223c7.96094 0 14.4229 6.40918 14.4229 14.3223v190.993l63.3291 -72.3311c5.50195 -5.45703 14.8408 -5.45703 20.3359 0
c5.50195 5.46387 5.71094 14.3213 0.208984 19.7705l-83.6582 96.9434c-0.677734 1.44727 -1.52148 2.82227 -2.71875 4.01074c-2.8125 2.77832 -6.47559 4.12402 -10.1533 4.07422c-0.0429688 0 -0.0722656 0.00683594 -0.123047 0.00683594
c-0.0429688 0 -0.0791016 -0.00683594 -0.12207 -0.00683594c-3.67773 0.0498047 -7.3623 -1.2959 -10.168 -4.07422c-1.19727 -1.18848 -2.07715 -2.5498 -2.75488 -3.98926l-83.7803 -96.9648c-5.49512 -5.44922 -5.49512 -14.3066 0.00683594 -19.7705zM78.7422 66.1621
c-50.7148 39.0049 -78.6777 91.7822 -78.6777 148.639s27.9629 109.633 78.6777 148.639c47.7871 36.7217 110.741 56.9453 177.267 56.9453c66.5469 0 129.502 -20.2236 177.267 -56.9453c50.7588 -39.0059 78.7217 -91.7822 78.7217 -148.639
c0 -40.4033 -14.458 -79.4756 -41.7559 -112.938c-21.5312 -26.4326 -50.3818 -48.4297 -84.1543 -64.374c13.3271 -4.43457 22.8633 -16.165 24.9473 -30.7568c2.50586 -17.585 -8.31543 -34.46 -24.8359 -40.957c-2.86035 -1.1084 -18.1836 -6.71875 -39.1172 -6.71875
c-20.2676 0 -39.2275 5.05566 -56.3682 15.0566c-21.333 12.3955 -35.2803 24.4814 -44.4385 35.2363c-62.9111 1.88477 -122.096 21.8867 -167.532 56.8125zM256.009 382.133c-120.232 0 -217.714 -74.9062 -217.714 -167.332s97.4814 -167.354 217.714 -167.354
c3.76953 0 4.83398 -0.0664062 5.63281 -0.0664062c0.953125 0 1.64062 0.0878906 5.83203 0.464844c0 0 2.86035 -17.6514 42.4648 -40.6904c13.1055 -7.65039 26.3213 -9.86816 37.1426 -9.86816c14.7471 0 25.1465 4.10254 25.1465 4.10254
s-23.3496 3.28125 -33.1064 21.9531c-16.2324 31.0449 15.2783 42.1328 15.2783 42.1328c70.8271 27.6299 119.323 84.1094 119.323 149.326c0 92.4258 -97.4814 167.332 -217.714 167.332z" />
    <glyph glyph-name="uniF10E" unicode="&#xf10e;" 
d="M464.13 135.44v0c15.1777 -8.83203 20.374 -28.4082 11.6152 -43.7207l-31.7363 -55.4238c-8.76758 -15.2959 -28.1738 -20.5439 -43.3516 -11.7041l-37.0918 21.5918c-17.5664 -15.1592 -37.8535 -27.2158 -60.0928 -35.1514v-43.0166
c0 -17.6719 -14.21 -32.0156 -31.7363 -32.0156h-63.4727c-17.5264 0 -31.7363 14.3438 -31.7363 32.0156v43.0166c-21.0732 7.51953 -40.3525 18.7842 -57.2764 32.832l-38.5752 -23.1758c-15.0586 -9.03223 -34.3066 -3.65625 -42.9941 12l-31.4824 56.7031
c-8.68848 15.6729 -3.53125 35.7041 11.5195 44.7363l35.5928 21.376c-2.26953 11.8398 -3.58594 24.0322 -3.58594 36.5439c0 11.9443 1.19727 23.5918 3.26855 34.9365l-37.124 21.6074c-15.1777 8.83203 -20.374 28.4082 -11.6152 43.7197l31.7363 55.4082
c8.76758 15.3125 28.1738 20.5605 43.3516 11.7207l37.0605 -21.5762c17.5742 15.1758 37.8691 27.2393 60.124 35.1836v42.9678c0 17.6729 14.21 31.9844 31.7363 31.9844h63.4727c17.5264 0 31.7363 -14.3115 31.7363 -31.9844v-42.9678
c21.0811 -7.53613 40.376 -18.7998 57.2998 -32.8643l38.5518 23.1602c15.0586 9.03223 34.2988 3.65625 42.9941 -12l31.4746 -56.7197c8.69629 -15.6562 3.53125 -35.6885 -11.5205 -44.7197l-35.584 -21.3682c2.26172 -11.8242 3.57812 -23.9922 3.57812 -36.4883
c0 -11.9678 -1.19824 -23.6318 -3.27637 -34.9922zM440.327 93.8721v0c4.37988 7.64746 1.77734 17.4395 -5.80762 21.8477l-43.9941 25.6084c5.2998 15.9521 8.29102 32.9678 8.29102 50.7197c0 18.3281 -3.15039 35.8877 -8.7832 52.2881l42.8682 25.7598
c7.53711 4.5127 10.1152 14.5283 5.76758 22.3604l-15.7334 28.3604c-4.34766 7.80762 -13.9717 10.4951 -21.501 5.9834l-44.4785 -26.7197c-22.2158 24.4082 -51.7617 41.9355 -85.2197 48.7764v51.1592c0 8.84082 -7.10938 15.9844 -15.8682 15.9844h-31.7363
c-8.76758 0 -15.8682 -7.14355 -15.8682 -15.9844v-51.1592c-34.3623 -7.02441 -64.5986 -25.3203 -87.0049 -50.7607l-44.042 25.6406c-7.59277 4.40723 -17.2881 1.79199 -21.6758 -5.86426l-15.8682 -27.7197c-4.37988 -7.64062 -1.78516 -17.4326 5.80762 -21.8564
l43.9629 -25.5918c-5.28418 -15.9365 -8.26758 -32.9365 -8.26758 -50.6562c0 -18.3516 3.1582 -35.9355 8.79883 -52.3438l-42.8916 -25.7686c-7.52148 -4.49512 -10.0996 -14.5117 -5.75195 -22.3438l15.7334 -28.3594c4.34766 -7.82422 13.9717 -10.5127 21.4932 -6
l44.5098 26.7354c22.2158 -24.3838 51.7539 -41.8955 85.1963 -48.7275v-51.208c0 -8.84863 7.10059 -16.0322 15.8682 -16.0322h31.7363c8.75879 0 15.8682 7.18359 15.8682 16.0322v51.208c34.3467 7.02344 64.5674 25.2959 86.9648 50.7197l44.082 -25.6641
c7.58496 -4.42383 17.2881 -1.7998 21.6758 5.85645zM240 272.048v0c43.7168 0 79.1582 -35.832 79.1582 -80c0 -44.1758 -35.4414 -80.0156 -79.1582 -80.0156c-43.7246 0 -79.1582 35.8398 -79.1582 80.0156c0 44.168 35.4336 80 79.1582 80zM240 144.048v0
c26.333 0 47.6914 21.4805 47.6914 48c0 26.5117 -21.3584 48.0166 -47.6914 48.0166c-26.3408 0 -47.6992 -21.5049 -47.6992 -48.0166c0 -26.5195 21.3584 -48 47.6992 -48z" />
    <glyph glyph-name="uniF126" unicode="&#xf126;" 
d="M448 -32h64v-32h-512v32h64v128h32v-128h320v448h-320v-136h-32v168h384v-480zM352 224h32v-64h-32v64zM16.0078 208h183.168l-66.5996 53.4238c-6.10449 6.0957 -6.10449 16.0244 0 22.1357c6.10352 6.09668 15.9922 6.1123 22.0957 0.0166016l92.8877 -77.2324
c1.38477 -0.719727 2.7207 -1.58398 3.88086 -2.75195c3.11914 -3.12012 4.62402 -7.22363 4.55176 -11.3115c0.0078125 -0.0400391 0.015625 -0.0800781 0.015625 -0.120117s-0.0078125 -0.0722656 -0.015625 -0.112305
c0.0722656 -4.08789 -1.43262 -8.19141 -4.55176 -11.3203c-1.16016 -1.16797 -2.49609 -2.03906 -3.88086 -2.75977l-92.8877 -77.2402c-6.10352 -6.0957 -15.9922 -6.0957 -22.0957 0c-6.10449 6.12012 -6.10449 15.9043 0 22l66.6162 53.2725h-183.185
c-8.83984 0 -16 7.16797 -16 15.9922c0 8.83203 7.16016 16.0078 16 16.0078z" />
    <glyph glyph-name="uniF130" unicode="&#xf130;" 
d="M475.711 372.57c-24.1904 23.6221 -57.6172 35.4297 -100.289 35.4297c-11.8076 0 -23.8564 -2.04785 -36.1416 -6.14062c-12.2881 -4.0957 -23.7168 -9.62305 -34.2822 -16.5732c-10.5732 -6.9502 -19.6631 -13.4766 -27.2871 -19.5713
c-7.61719 -6.0957 -14.8555 -12.5723 -21.7109 -19.4287c-6.85938 6.85645 -14.0977 13.333 -21.7148 19.4287c-7.62012 6.09473 -16.7129 12.6172 -27.2861 19.5713s-22.002 12.4775 -34.2871 16.5732c-12.2842 4.09277 -24.334 6.14062 -36.1416 6.14062
c-42.667 0 -76.0947 -11.8115 -100.285 -35.4297s-36.2852 -56.3799 -36.2852 -98.2832c0 -12.7607 2.24121 -25.9082 6.71582 -39.4277c4.47461 -13.5215 9.57324 -25.0488 15.2861 -34.5703c5.71289 -9.52051 12.1895 -18.8105 19.4277 -27.8584
s12.5264 -15.2822 15.8584 -18.7119c3.33105 -3.42676 5.95117 -5.90234 7.85547 -7.4248l178.284 -172c3.42969 -3.43359 7.62012 -5.14844 12.5723 -5.14844s9.14258 1.71484 12.5723 5.1416l178 171.432c43.6182 43.6152 65.4277 86.4727 65.4277 128.568
c0 41.9033 -12.0986 74.665 -36.2891 98.2832z" />
    <glyph glyph-name="uniF12F" unicode="&#xf12f;" 
d="M475.711 372.57v0c24.1943 -23.6152 36.2891 -56.373 36.2891 -98.2793c0 -42.0967 -21.8096 -84.9531 -65.4277 -128.568l-178 -171.433c-3.42969 -3.42969 -7.62012 -5.14453 -12.5723 -5.14453s-9.14258 1.71484 -12.5723 5.14453l-178.284 172.001
c-1.9043 1.52539 -4.52441 4.00098 -7.85547 7.43066c-3.33203 3.42676 -8.62012 9.66504 -15.8584 18.7129s-13.7148 18.334 -19.4277 27.8545c-5.71289 9.52148 -10.8115 21.0488 -15.2861 34.5703c-4.47461 13.5195 -6.71582 26.667 -6.71582 39.4277
c0 41.9033 12.0947 74.665 36.2852 98.2832s57.6182 35.4297 100.285 35.4297c11.8076 0 23.8574 -2.04785 36.1416 -6.14062c12.2852 -4.0957 23.7139 -9.61914 34.2871 -16.5732s19.666 -13.4766 27.2861 -19.5713c7.61719 -6.0957 14.8555 -12.5723 21.7148 -19.4287
c6.85547 6.85645 14.0938 13.333 21.7109 19.4287c7.62402 6.09473 16.7139 12.6211 27.2871 19.5713c10.5654 6.9502 21.9941 12.4775 34.2822 16.5732c12.2852 4.09277 24.334 6.14062 36.1416 6.14062c42.6719 0 76.0986 -11.8076 100.289 -35.4297zM421.713 172.578v0
c35.8115 35.8047 53.7109 69.7129 53.7109 101.713c0 15.4268 -2.04785 29.0469 -6.1377 40.8545c-4.0957 11.8076 -9.33496 21.1924 -15.7139 28.1426c-6.38281 6.9502 -14.1426 12.6172 -23.2852 17.001c-9.14258 4.37988 -18.0957 7.33301 -26.8594 8.85547
c-8.76367 1.52148 -18.0918 2.28223 -27.9951 2.28223s-20.5742 -2.42676 -32 -7.2832c-11.4326 -4.85742 -21.9561 -10.9521 -31.5752 -18.2852c-9.61621 -7.33984 -17.8574 -14.1924 -24.7129 -20.5713c-6.85645 -6.38184 -12.5723 -12.2383 -17.1455 -17.5723
c-3.42969 -4.19043 -8.09375 -6.28809 -13.999 -6.28809c-5.90234 0 -10.5732 2.09766 -13.999 6.28809c-4.57324 5.33398 -10.2861 11.1865 -17.1416 17.5723c-6.85938 6.37891 -15.0977 13.2354 -24.7168 20.5713c-9.61914 7.33301 -20.1426 13.4277 -31.5684 18.2852
c-11.4287 4.85645 -22.0967 7.2832 -32 7.2832c-9.90723 0 -19.2383 -0.760742 -27.999 -2.28223c-8.75977 -1.52246 -17.7129 -4.47559 -26.8584 -8.85547c-9.14258 -4.38379 -16.9033 -10.0469 -23.2861 -17.001c-6.37891 -6.9502 -11.6182 -16.335 -15.7139 -28.1426
c-4.09277 -11.8076 -6.14062 -25.4277 -6.14062 -40.8545c0 -32 17.8076 -65.8135 53.4268 -101.425l165.997 -160z" />
    <glyph glyph-name="uniF10F" unicode="&#xf10f;" 
d="M256 448v0c141.384 0 256 -112.86 256 -252.077s-114.616 -252.062 -256 -252.062c-141.392 0 -256 112.845 -256 252.062s114.608 252.077 256 252.077zM256 -24.6309v0c123.712 0 224 98.7529 224 220.554s-100.288 220.554 -224 220.554s-224 -98.7529 -224 -220.554
s100.288 -220.554 224 -220.554zM383.976 195.892v0c8.88867 0 16.0967 -7.09766 16.0967 -15.7461c0 -8.61719 -7.20801 -15.7617 -16.0967 -15.7617h-142.575c-0.464844 0 -0.919922 -0.0556641 -1.40039 -0.0556641c-5.54395 0 -10.4238 2.86719 -13.2959 7.08203
c-1.75195 2.49609 -2.77637 5.51367 -2.77637 8.75879c0 0.236328 0.0644531 0.449219 0.0722656 0.685547v141.099c0 8.7041 7.16016 15.7539 16 15.7539s16 -7.0498 16 -15.7539v-126.062h127.976z" />
    <glyph glyph-name="uniF13B" unicode="&#xf13b;" 
d="M96 64h320s-31.6084 45.7998 -31.9678 96h-256.104c-0.744141 -50.168 -31.9277 -96 -31.9277 -96zM256 -32v0c26.5039 0 48 21.4883 48 48c0 5.6084 -1.01562 10.9756 -2.79199 15.9844h-90.4238c-1.76855 -5.00879 -2.78418 -10.376 -2.78418 -15.9844
c0 -26.5117 21.4805 -48 48 -48zM128 192h256v32h-256v-32zM128 288v-32h256v32c0 70.6885 -57.3115 127.984 -128 127.984c-70.6963 0 -128 -57.2959 -128 -127.984zM480 31.9844h-145.68c1.05566 -5.16797 1.67969 -10.4961 1.67969 -15.9844
c0 -44.1836 -35.8242 -80 -80 -80c-44.1836 0 -80 35.8164 -80 80c0 5.48828 0.624023 10.8164 1.67969 15.9844h-145.68s64 78.9512 64 129.832v30.1836v32v32v32c0 88.3438 71.6318 160 160 160s160 -71.6562 160 -160v-32v-32v-32v-31.1602
c0 -50.5283 64 -128.855 64 -128.855z" />
    <glyph glyph-name="uniF134" unicode="&#xf134;" 
d="M509.292 433.848c-4.1123 9.43262 -11.2422 14.1523 -21.415 14.1523h-464.284c-10.1504 0 -17.3018 -4.71973 -21.4092 -14.1523c-4.1123 -9.91211 -2.41504 -18.3711 5.08691 -25.3887l178.827 -178.827v-176.283c0 -6.2832 2.30371 -11.7373 6.88965 -16.3291
l92.8672 -92.8438c4.35156 -4.6084 9.7832 -6.91211 16.3281 -6.91211c2.8877 0 5.91016 0.606445 9.06543 1.8252c9.43359 4.10742 14.1523 11.2363 14.1523 21.3867v269.156l178.827 178.827c7.49609 7.01758 9.17188 15.4766 5.06445 25.3887z" />
    <glyph glyph-name="uniF129" unicode="&#xf129;" 
d="M74.2939 2.28418v-0.000976562c-0.0390625 0.0400391 -0.0791016 0.0800781 -0.118164 0.120117c-6.24805 6.36914 -6.24805 16.7236 -0.0078125 23.1016l341.024 348.092c4.6875 4.78516 11.5596 5.97754 17.3359 3.58496
c1.92773 -0.800781 3.73535 -1.99316 5.2959 -3.59375c6.24805 -6.37695 6.25586 -16.707 0 -23.0928l-341.024 -348.092c-1.14355 -1.17578 -2.45605 -2.05762 -3.82422 -2.80078c-1.17188 -0.636719 -2.39551 -1.13281 -3.65039 -1.46973
s-2.54102 -0.514648 -3.83691 -0.514648c-4.09668 0 -8.19238 1.59277 -11.3125 4.78516c0.0390625 -0.0400391 0.0791016 -0.0800781 0.118164 -0.119141zM432.528 377.182c1.92773 -0.800781 3.73535 -1.99316 5.2959 -3.59375
c-1.56055 1.60059 -3.36816 2.79297 -5.2959 3.59375zM432.528 377.182c-5.77637 2.39258 -12.6484 1.2002 -17.3359 -3.58496c3.11914 3.19238 7.21582 4.78516 11.3115 4.78516c2.04785 0 4.0957 -0.400391 6.02441 -1.2002zM96.7998 2.40332
c-1.14355 -1.17578 -2.45605 -2.05762 -3.82422 -2.80078c1.36816 0.743164 2.68066 1.625 3.82422 2.80078zM38.0723 188.155c13.6875 -20.4395 39.8398 -56.5332 73.7041 -89.6299l-22.5205 -22.9795c-54.6162 53.3076 -89.2559 112.438 -89.2559 112.438
l0.0078125 0.0166016l-0.0078125 0.0166016s114.616 195.983 256 195.983c36.7441 0 71.6396 -13.2939 103.224 -32.8848l-23.1914 -23.6729c-25.1523 14.4785 -52.1924 23.8613 -80.0322 23.8613c-91.1279 0 -179.864 -105.636 -217.928 -163.148zM512 188.017
l-0.0078125 -0.0166016l0.0078125 -0.0166016s-114.616 -195.983 -256 -195.983c-36.7441 0 -71.6396 13.2939 -103.224 32.8848l23.168 23.6484c25.1592 -14.4785 52.208 -23.8691 80.0557 -23.8691c91.1279 0 179.864 105.627 217.928 163.14
c-13.6875 20.4482 -39.8555 56.5498 -73.7197 89.6543l22.5361 22.9961c54.6162 -53.3076 89.2559 -112.446 89.2559 -112.438zM352 188.017c0 11.9873 -2.21582 23.4199 -6.07227 34.0273l24.2646 24.7676c8.75977 -17.6875 13.8076 -37.6211 13.8076 -58.7949
c0 -72.1553 -57.3115 -130.656 -128 -130.656c-20.7441 0 -40.2725 5.15332 -57.6084 14.0947l24.2646 24.7676c10.3994 -3.94434 21.5996 -6.19824 33.3438 -6.19824c53.0156 0 96 43.876 96 97.9922zM160 188.017c0 -11.9961 2.21582 -23.4365 6.08008 -34.0527
l-24.2637 -24.7676c-8.76855 17.6963 -13.8164 37.6377 -13.8164 58.8203c0 72.1543 57.3037 130.655 128 130.655c20.752 0 40.2881 -5.16113 57.624 -14.1025l-24.2637 -24.7676c-10.4082 3.94434 -21.6084 6.20605 -33.3604 6.20605c-53.0244 0 -96 -43.876 -96 -97.9912
z" />
    <glyph glyph-name="uniF110" unicode="&#xf110;" 
d="M256 448v0c141.384 0 256 -114.624 256 -256c0 -141.392 -114.616 -255.984 -256 -255.984s-256 114.593 -256 255.984c0 141.376 114.616 256 256 256zM256 -32v0c123.712 0 224 100.28 224 224s-100.288 224 -224 224s-224 -100.28 -224 -224s100.288 -224 224 -224z
M288.616 244.504l-38.4404 -133.312c-2.12793 -7.62402 -3.19141 -12.624 -3.19141 -15c0 -1.36816 0.567383 -2.65625 1.6875 -3.84082c1.12793 -1.18359 2.3125 -1.7832 3.56836 -1.7832c2.12012 0 4.24805 0.935547 6.37598 2.81543
c5.62402 4.62402 12.3682 13 20.248 25.1201l6.37598 -3.74414c-18.8799 -32.8799 -38.9443 -49.3115 -60.1924 -49.3115c-8.12012 0 -14.5918 2.2793 -19.3994 6.83984c-4.81641 4.55957 -7.22461 10.3438 -7.22461 17.3438c0 4.62402 1.06445 10.5039 3.19238 17.624
l26.0557 89.624c2.50391 8.62402 3.75195 15.1279 3.75195 19.5039c0 2.75195 -1.18359 5.18457 -3.55957 7.3125s-5.62402 3.18359 -9.75195 3.18359c-1.87207 0 -4.12793 -0.0556641 -6.75195 -0.183594l2.43945 7.49609l63.5605 10.3115h11.2559v0zM276.984 330.76
c7.75195 0 14.2881 -2.6875 19.5996 -8.06348c5.3125 -5.37598 7.96777 -11.8721 7.96777 -19.5039c0 -7.62402 -2.6875 -14.1201 -8.06348 -19.4961s-11.8721 -8.06445 -19.5039 -8.06445c-7.49609 0 -13.9365 2.68848 -19.3125 8.06445s-8.05566 11.8721 -8.05566 19.4961
c0 7.63184 2.65625 14.1279 7.96777 19.5039c5.3125 5.37598 11.7764 8.06348 19.4004 8.06348v0z" />
    <glyph glyph-name="uniF109" unicode="&#xf109;" 
d="M316.318 158.91v0c77.0732 -30.1348 131.682 -104.406 131.682 -191.411v-31.499h-34.667v31.499c0 94.7783 -77.6094 171.607 -173.333 171.607c-95.7324 0 -173.333 -76.8291 -173.333 -171.607v-31.499h-34.667v31.499c0 87.0049 54.6084 161.276 131.682 191.411
c-47.5283 26.4785 -79.6816 76.8027 -79.6816 134.643c0 85.2979 69.8447 154.447 156 154.447s156 -69.1494 156 -154.447c0 -57.8398 -32.1533 -108.164 -79.6816 -134.643zM118.667 293.553v0c0 -66.3516 54.3223 -120.125 121.333 -120.125
s121.333 53.7734 121.333 120.125c0 66.3271 -54.3223 120.126 -121.333 120.126s-121.333 -53.7988 -121.333 -120.126zM240 219.152c-27.6289 0 -52.0605 13.5918 -67.0107 34.3223h-30.125c17.6797 -35.5146 54.5215 -60.0635 97.1357 -60.0635
s79.4561 24.5488 97.1357 60.0635h-30.125c-14.9502 -20.7305 -39.3818 -34.3223 -67.0107 -34.3223z" />
    <glyph glyph-name="uniF138" unicode="&#xf138;" 
d="M462.567 11.2314v0c7.12891 7.1377 7.12891 18.6719 0 25.8467l-154.924 154.915l154.924 154.924c7.12891 7.1377 7.12891 18.6992 0 25.8281l-25.8193 25.8281c-7.12891 7.10156 -18.6904 7.10156 -25.8193 0l-154.933 -154.924l-154.934 154.924
c-7.12891 7.10156 -18.6904 7.10156 -25.8184 0l-25.8193 -25.8281c-7.12891 -7.12891 -7.12891 -18.6904 0 -25.8281l154.924 -154.924l-154.924 -154.915c-7.12891 -7.1748 -7.12891 -18.709 0 -25.8467l25.8193 -25.8096c7.12793 -7.13867 18.6895 -7.13867 25.8184 0
l154.934 154.924l154.933 -154.924c7.12891 -7.13867 18.6904 -7.13867 25.8193 0zM359.281 191.983l142.02 -142.019c14.2666 -14.2393 14.2666 -37.3809 0 -51.6387l-51.6387 -51.6377c-14.2666 -14.2852 -37.3809 -14.2852 -51.6387 0l-142.027 142.019l-142.02 -142.019
c-14.2568 -14.2852 -37.3711 -14.2852 -51.6377 0l-51.6387 51.6377c-14.2666 14.2578 -14.2666 37.3994 0 51.6387l142.02 142.019l-142.02 142.02c-14.2666 14.248 -14.2666 37.3799 0 51.665l51.6387 51.6201c14.2666 14.2852 37.3809 14.2852 51.6377 0l142.02 -142.019
l142.027 142.019c14.2578 14.2852 37.3721 14.2852 51.6387 0l51.6387 -51.6201c14.2666 -14.2852 14.2666 -37.417 0 -51.665z" />
    <glyph glyph-name="uniF13D" unicode="&#xf13d;" 
d="M374.809 79.0029c-12.9521 12.9443 -28.7207 26.0967 -42.8887 37.1924c22.1279 24.8398 36.0801 60.2881 36.0801 99.7764c0 75.1191 -50.1514 136 -112 136c-61.8555 0 -112 -60.8809 -112 -136c0 -39.4883 13.9365 -74.9365 36.0723 -99.7764
c-14.1758 -11.0957 -29.9443 -24.248 -42.8877 -37.1924c-19.1123 -19.1113 -30.8721 -37.6396 -36.7207 -48.1279c-42.1836 40.7363 -68.4639 97.8398 -68.4639 161.128c0 123.688 100.288 224 224 224c123.704 0 224 -100.312 224 -224
c0 -63.2881 -26.2881 -120.392 -68.4717 -161.128c-5.83984 10.4883 -17.6084 29.0166 -36.7197 48.1279zM176 215.972c0 57.4316 35.8164 104 80 104c44.1768 0 80 -46.5684 80 -104c0 -57.4404 -35.8232 -104 -80 -104c-44.1836 0 -80 46.5596 -80 104zM256 -31.9971
c-49.3438 0 -94.9277 15.9844 -131.943 43.0166c6.46387 11.0234 18.376 28.8877 36.5918 47.1035c13.1279 13.1357 29.1514 26.4082 43.376 37.4326c15.5361 -9.9043 33.2002 -15.584 51.9756 -15.584c18.7686 0 36.4326 5.67969 51.9688 15.584
c14.2236 -11.0244 30.2393 -24.2969 43.376 -37.4326c18.2158 -18.2158 30.1279 -36.0801 36.584 -47.1035c-37.0088 -27.0322 -82.5928 -43.0166 -131.929 -43.0166zM256 448.003c-141.392 0 -256 -114.624 -256 -256c0 -141.408 114.608 -256 256 -256
c141.376 0 256 114.592 256 256c0 141.376 -114.624 256 -256 256z" />
    <glyph glyph-name="uniF113" unicode="&#xf113;" 
d="M505.084 208v0h-0.960938v-32h0.960938c-8.13672 -136 -117.61 -239.984 -251.525 -239.984c-133.908 0 -243.382 103.984 -251.519 239.984h-2.04004v32h2.04004c8.13672 136 117.61 240 251.519 240c133.915 0 243.389 -104 251.525 -240zM422.266 336v0
c-30.2861 40 -71.8291 63.2637 -119.319 74.2959c12.832 -21.3359 23.6309 -50.752 31.4453 -85.6162c22.7871 2.76074 43.1182 3.32031 59.793 11.3203h28.0811zM190.724 176v0c0.583008 -32 2.78125 -57.3838 6.27051 -82.624
c18.085 1.68848 36.998 2.63965 56.5645 2.63965c19.5654 0 38.4863 -0.951172 56.5713 -2.63965c3.48145 25.2402 5.67969 50.624 6.27051 82.624h-125.677zM190.724 208v0h125.677c-0.59082 32 -2.78906 57.4639 -6.28613 82.7275
c-18.0615 -1.74316 -36.9824 -2.71191 -56.5557 -2.71191c-19.5742 0 -38.4873 0.976562 -56.5488 2.71191c-3.49707 -25.2637 -5.70312 -50.7275 -6.28613 -82.7275zM253.559 416.024v0c-21.1738 0 -39.8896 -37.1768 -51.3105 -94.1279
c16.3369 -1.17676 33.4766 -1.87207 51.3105 -1.87207c17.8408 0 34.9814 0.695312 51.3174 1.87207c-11.4209 56.9512 -30.1367 94.1279 -51.3174 94.1279zM204.178 410.304v0c-47.4902 -11.04 -89.0332 -34.3037 -119.319 -74.3037h28.0811
c16.6758 -8 37.0059 -8.56836 59.7939 -11.3281c7.81348 34.8643 18.6133 64.2881 31.4443 85.6318zM73.9482 321.68v0c-22.7881 -32.5273 -37.3125 -73.6797 -40.2588 -113.68h125.543c0.700195 32 3.41016 59.7119 7.73438 86.4717
c-37.4941 5.83203 -69.6396 15.2959 -93.0186 27.208zM159.232 176v0h-125.543c2.91504 -40 17.2031 -80.3359 39.6055 -112.672c23.7959 11.584 56.123 20.7598 93.6406 26.4082c-4.30078 26.7119 -7.00293 54.2637 -7.70312 86.2637zM84.8584 48v0
c30.2939 -40 71.8369 -63.248 119.327 -74.2881c-12.8555 21.376 -23.6699 50.8643 -31.4922 85.7998c-23.5908 -2.77539 -44.6064 -3.51172 -61.8096 -11.5117h-26.0254zM253.559 -31.9756v0c21.1885 0 39.9121 37.208 51.333 94.1992
c-16.3604 1.15234 -33.5 1.83203 -51.333 1.83203c-17.8262 0 -34.9658 -0.679688 -51.3262 -1.83203c11.4209 -56.9912 30.1445 -94.1992 51.3262 -94.1992zM302.938 -26.2803v0c47.4902 11.0322 89.0332 34.2803 119.327 74.2803h-26.0166
c-17.2119 8 -38.2275 8.73633 -61.8184 11.5117c-7.82227 -34.9434 -18.6367 -64.416 -31.4922 -85.792zM433.829 63.3359v0c22.3945 32.3281 36.6914 72.6641 39.5977 112.664h-125.534c-0.701172 -32 -3.40332 -59.5596 -7.7041 -86.2725
c37.5098 -5.64746 69.8369 -14.8154 93.6406 -26.3916zM347.893 208v0h125.534c-2.93848 40 -17.4629 81.1436 -40.251 113.672c-23.3789 -11.9121 -55.5322 -21.3604 -93.0186 -27.1914c4.32422 -26.7607 7.03418 -54.4805 7.73535 -86.4805z" />
    <glyph glyph-name="uniF12A" unicode="&#xf12a;" 
d="M281.328 209.754l86.4639 41.8018c10.2881 -18.8145 16.208 -40.4619 16.208 -63.5391c0 -72.1553 -57.3115 -130.656 -128 -130.656c-70.6963 0 -128 58.501 -128 130.656c0 72.1543 57.3037 130.655 128 130.655c15.4316 0 30.1523 -2.93164 43.8564 -8.04297z
M512 188.017v0l-0.0078125 -0.0166016l0.0078125 -0.0166016s-114.616 -195.983 -256 -195.983s-256 195.983 -256 195.983l0.0078125 0.0166016l-0.0078125 0.0166016s114.616 195.983 256 195.983s256 -195.992 256 -195.983zM256 24.6641v0
c91.1201 0 179.864 105.627 217.928 163.14c-29.832 44.5459 -118.784 163.5 -217.928 163.5c-91.1279 0 -179.872 -105.636 -217.936 -163.148c29.832 -44.5459 118.783 -163.491 217.936 -163.491z" />
    <glyph glyph-name="uniF11C" unicode="&#xf11c;" 
d="M127.992 384.064v0c35.3516 0 64 -28.6562 64 -64.0088c0 -35.3516 -28.6484 -64 -64 -64c-35.3438 0 -64 28.6484 -64 64c0 35.3525 28.6562 64.0088 64 64.0088zM128 288.008v0c17.6719 0 32 14.3281 32 32.0078c0 17.6729 -14.3281 32 -32 32s-32 -14.3271 -32 -32
c0 -17.6797 14.3281 -32.0078 32 -32.0078zM512 131.888v0v-5.72754v-158.104c0 -17.6797 -14.3359 -32.0557 -32 -32.0557h-448.008c-17.6719 0 -31.9922 14.376 -31.9922 32.0557v62.1924v5.55957v380.24c0 17.6719 14.3203 31.9521 31.9922 31.9521h448.008
c17.6641 0 32 -14.2803 32 -31.9521v-284.16zM48 -32v0h266.952l-156.032 169.152l-126.92 -112.648v-40.4561c0 -8.83984 7.16016 -16.0479 16 -16.0479zM480 -15.9521v0v136.88l-96.5762 96.5527l-138.376 -124.425l115.344 -125.056h103.601
c8.83984 0 16.0078 7.20801 16.0078 16.0479zM480 168.224v0v231.824c0 8.83984 -7.16797 15.9521 -16.0078 15.9521h-415.992c-8.83984 0 -16 -7.1123 -16 -15.9521v-330.904l115.2 102.265c3.51172 3.51953 8.2002 5.08008 12.792 4.81543
c4.59961 0.264648 9.28809 -1.2959 12.7998 -4.81543l49.6084 -53.7842l148.8 133.792c3.50391 3.50391 8.18359 5.06445 12.7754 4.7998c4.6084 0.272461 9.30469 -1.28027 12.8242 -4.80762z" />
    <glyph glyph-name="uniF137" unicode="&#xf137;" 
d="M440.004 174.219v204.184c-18.248 -8.6875 -41.1279 -14.9043 -69.2559 -14.9043c-31.8799 0 -66.7842 8.19238 -103.744 24.3125c-42.5195 18.5918 -46.9121 28 -91.9443 28c-50.0557 0 -89.8398 -11.7764 -111.056 -19.7598v-204.896
c22.6641 4.87988 53.0322 9.26367 88.7998 9.26367c61.6885 0 82.3203 -12.792 140.192 -38.0713c28.7363 -12.5684 54.8877 -18.9121 77.7598 -18.9121c40.5605 0 61.4805 20.7197 69.248 30.7842zM280.004 416.562c35.9922 -15.7197 65.9922 -21.624 90.7441 -21.624
c74.2637 0 101.256 53.0635 101.256 53.0635v-282.951s-27 -53.0488 -101.248 -53.0488c-24.752 0 -54.752 5.9043 -90.752 21.6084c-62.1602 27.1357 -79.9521 35.3604 -127.2 35.3604c-37.1201 0 -67.6797 -5.08008 -88.8076 -10.0645v-206.872
c0 -8.83203 -7.16016 -16 -16 -16c-8.83203 0 -16 7.16797 -16 16v400v48l0.0078125 16.5283s57.7197 30.6875 143.04 30.6875c42.6719 0 52.2324 -7.65527 104.96 -30.6875z" />
    <glyph glyph-name="uniF10B" unicode="&#xf10b;" 
d="M351.4 182.661v0c37.5752 -12.8164 64.5996 -47.876 64.5996 -89.2461v-63.0146c0 -52.1846 -42.9844 -94.5234 -96 -94.5234h-160c-53.0244 0 -96 42.3389 -96 94.5234v63.0146c0 41.3701 27.0244 76.4297 64.6084 89.2461
c-20.3682 27.1748 -32.6084 61.9199 -32.6084 99.8008c0 87.0156 64.4717 157.538 144 157.538s144 -70.5225 144 -157.538c0 -37.8809 -12.2402 -72.626 -32.5996 -99.8008zM128 282.462v0c0 -69.6006 50.1436 -126.031 112 -126.031s112 56.4307 112 126.031
s-50.1436 126.046 -112 126.046s-112 -56.4453 -112 -126.046zM384 30.4004v0v63.0146c0 32.8789 -25.584 59.8496 -58.2158 62.7324c-23.9766 -19.5273 -53.5918 -31.2246 -85.7842 -31.2246c-32.1836 0 -61.7998 11.6973 -85.7842 31.2246
c-32.6318 -2.89062 -58.2158 -29.8535 -58.2158 -62.7324v-63.0146c0 -34.8008 28.6562 -63.0156 64 -63.0156h160c35.3438 0 64 28.2148 64 63.0156z" />
    <glyph glyph-name="uniF114" unicode="&#xf114;" 
d="M477.444 264.621l-256.351 -253.225c-42.4775 -41.9482 -111.338 -41.9482 -153.807 0c-42.4775 41.9658 -42.4775 109.981 0 151.93l68.4648 67.6465l105.04 103.738l5.9375 5.85645l51.2725 50.6699l0.0537109 -0.0712891
c0.269531 0.259766 0.475586 0.574219 0.745117 0.853516c28.3135 27.9619 74.2314 27.9619 102.535 0c28.3125 -27.9717 28.3213 -73.3066 0 -101.296c-0.269531 -0.250977 -0.575195 -0.466797 -0.853516 -0.736328l0.0537109 -0.0449219l-51.2715 -50.6426
l-5.92871 -5.88379l-128.557 -126.94l-44.957 -44.4355c-14.1562 -13.9775 -37.1064 -13.9775 -51.2627 0c-14.1572 13.9941 -14.1572 36.666 0 50.6602l72.2998 71.3926l27.6836 27.3613l80.2578 79.2695l24.8369 24.5137l-25.6357 25.3301l-76.9082 -75.9463
l-128.171 -126.617l0.0722656 -0.0800781c-27.4951 -28.0352 -27.3154 -72.7041 0.727539 -100.425c28.0342 -27.6836 73.2793 -27.8633 101.654 -0.700195l0.0810547 -0.0898438l230.724 227.912c42.4688 41.9482 42.46 109.972 -0.00976562 151.911
c-42.4775 41.957 -111.337 41.957 -153.806 0l-230.724 -227.876l0.0449219 -0.0361328c-55.8262 -56.0146 -55.5928 -146.081 0.763672 -201.755c56.3555 -55.6553 147.546 -55.8887 204.233 -0.736328l0.0449219 -0.0537109l256.351 253.225l-25.6357 25.3213z" />
    <glyph glyph-name="uniF112" unicode="&#xf112;" 
d="M511.976 384.304v0c0 -0.0878906 0.0244141 -0.160156 0.0244141 -0.239258v-384.032c0 -8.81641 -7.16016 -16.0322 -16 -16.0322h-480c-8.83984 0 -16 7.21582 -16 16.0322v384.032c0 0.0712891 0.015625 0.12793 0.0244141 0.199219
c-0.0644531 4.10449 1.44727 8.22461 4.58398 11.3447c3.63184 3.63965 8.59961 4.3916 13.3193 4.3916h476.137c4.72754 0 9.69531 -0.751953 13.3271 -4.3916c3.12012 -3.1123 4.64062 -7.20801 4.58398 -11.3047zM450.672 368v0h-389.352l194.68 -155.832zM464 16v0
c8.83203 0 16 7.2002 16 16.0645v319.399l-211.232 -169.088c-0.416016 -0.543945 -0.799805 -1.0957 -1.2959 -1.5918c-3.16016 -3.16797 -7.32812 -4.68066 -11.4717 -4.58398c-4.14355 -0.0966797 -8.31152 1.41602 -11.4717 4.58398
c-0.496094 0.496094 -0.879883 1.04785 -1.2959 1.5918l-211.232 169.088v-319.399c0 -8.86426 7.16797 -16.0645 16 -16.0645h416z" />
    <glyph glyph-name="uniF133" unicode="&#xf133;" 
d="M256 448v0c141.384 0 256 -112.86 256 -252.077s-114.616 -252.062 -256 -252.062c-141.392 0 -256 112.845 -256 252.062s114.608 252.077 256 252.077zM256 -24.6309v0c123.712 0 224 98.7529 224 220.554s-100.288 220.554 -224 220.554s-224 -98.7529 -224 -220.554
s100.288 -220.554 224 -220.554zM377.573 290.353l-97.6699 -97.6797l97.6699 -97.6787c6.78906 -6.78027 6.78906 -17.7793 0 -24.5674c-6.7793 -6.79785 -17.7783 -6.79785 -24.5674 0l-97.6699 97.6787l-97.6709 -97.6787
c-6.78809 -6.79785 -17.7871 -6.79785 -24.5674 0c-6.79688 6.78809 -6.79688 17.7871 0 24.5674l97.6709 97.6787l-97.6709 97.6797c-6.79688 6.76172 -6.79688 17.7607 0 24.5498c6.78027 6.79688 17.7793 6.79688 24.5674 0l97.6709 -97.6709l97.6699 97.6709
c6.78906 6.79688 17.7881 6.79688 24.5674 0c6.78906 -6.78906 6.78906 -17.7881 0 -24.5498zM256 448v0c141.384 0 256 -112.86 256 -252.077s-114.616 -252.062 -256 -252.062c-141.392 0 -256 112.845 -256 252.062s114.608 252.077 256 252.077zM256 -24.6309v0
c123.712 0 224 98.7529 224 220.554s-100.288 220.554 -224 220.554s-224 -98.7529 -224 -220.554s100.288 -220.554 224 -220.554zM377.573 290.353l-97.6699 -97.6797l97.6699 -97.6787c6.78906 -6.78027 6.78906 -17.7793 0 -24.5674
c-6.7793 -6.79785 -17.7783 -6.79785 -24.5674 0l-97.6699 97.6787l-97.6709 -97.6787c-6.78809 -6.79785 -17.7871 -6.79785 -24.5674 0c-6.79688 6.78809 -6.79688 17.7871 0 24.5674l97.6709 97.6787l-97.6709 97.6797c-6.79688 6.76172 -6.79688 17.7607 0 24.5498
c6.78027 6.79688 17.7793 6.79688 24.5674 0l97.6709 -97.6709l97.6699 97.6709c6.78906 6.79688 17.7881 6.79688 24.5674 0c6.78906 -6.78906 6.78906 -17.7881 0 -24.5498z" />
    <glyph glyph-name="uniF120" unicode="&#xf120;" 
d="M256 432v0l256 -479.982h-512zM256 380.589v0l-204.8 -394.286h409.6zM238.934 37.7314v34.2861h34.1328v-34.2861h-34.1328zM256 260.623v0c9.4209 0 17.0664 -7.67188 17.0664 -17.1426v-120c0 -9.48047 -7.64551 -17.1436 -17.0664 -17.1436
c-9.42969 0 -17.0664 7.66309 -17.0664 17.1436v120c0 9.4707 7.63672 17.1426 17.0664 17.1426z" />
    <glyph glyph-name="uniF116" unicode="&#xf116;" 
d="M360.312 211.322v0c8.62402 0 15.6162 -6.87695 15.6162 -15.3838c0 -8.49121 -6.99219 -15.3838 -15.6162 -15.3838h-88.6875v-87.3232c0 -8.49121 -7 -15.3838 -15.624 -15.3838s-15.624 6.89258 -15.624 15.3838v87.3232h-88.6875
c-8.63281 0 -15.624 6.89258 -15.624 15.3838c0 8.50684 6.99121 15.3838 15.624 15.3838h88.6875v87.3232c0 8.49121 7 15.3838 15.624 15.3838s15.624 -6.89258 15.624 -15.3838v-87.3232h88.6875zM256 448v0c141.384 0 256 -112.845 256 -252.062
s-114.616 -252.062 -256 -252.062s-256 112.845 -256 252.062s114.616 252.062 256 252.062zM256 -24.6152v0c123.712 0 224 98.7373 224 220.554s-100.288 220.554 -224 220.554s-224 -98.7373 -224 -220.554s100.288 -220.554 224 -220.554z" />
    <glyph glyph-name="uniF10A" unicode="&#xf10a;" 
d="M415.2 448v0c22.5352 0 40.7998 -18.1445 40.7998 -40.5508v-351.792c0 -22.4268 -18.2646 -40.6328 -40.7998 -40.6328h-326.4c-22.542 0 -40.7998 18.2061 -40.7998 40.6328v351.792c0 22.4062 18.2578 40.5508 40.7998 40.5508h326.4zM102.4 55.6572v0v351.792
c0 7.46875 -6.09277 13.5166 -13.6006 13.5166c-7.52051 0 -13.5996 -6.04785 -13.5996 -13.5166v-351.792c0 -7.48242 6.0791 -13.5381 13.5996 -13.5381c7.50781 0 13.6006 6.05566 13.6006 13.5381zM428.8 55.6572v0v351.792
c0 7.46875 -6.09277 13.4902 -13.5996 13.4902h-285.601v-378.854h285.601c7.50684 0 13.5996 6.08887 13.5996 13.5713zM129.6 -64l30.6006 25.708l30.5996 -25.708l-0.182617 79.0684h-61.2002zM371.19 153.827v0c1.85645 -1.83984 2.87598 -4.28906 2.87598 -6.90039
s-1.01953 -5.06055 -2.87598 -6.90723c-1.84961 -1.84668 -4.31836 -2.86914 -6.93555 -2.86914c-2.625 0 -5.08691 1.02246 -6.94336 2.86914l-48.4229 48.168c-13.8857 -10.7637 -31.0215 -16.6426 -48.6875 -16.6426c-43.7246 0 -79.3018 35.3896 -79.3018 78.8965
c0 43.501 35.5771 78.8965 79.3018 78.8965c43.7305 0 79.3008 -35.3955 79.3008 -78.8965c0 -17.5762 -5.90918 -34.624 -16.7275 -48.4453zM260.201 309.252v0c-32.5928 0 -59.1123 -26.3848 -59.1123 -58.8105c0 -32.4326 26.5195 -58.8164 59.1123 -58.8164
c32.5986 0 59.1191 26.3838 59.1191 58.8164c0 32.4258 -26.5205 58.8105 -59.1191 58.8105z" />
    <glyph glyph-name="uniF102" unicode="&#xf102;" 
d="M26.9473 173.492h421.25l-164.612 -151.214c-6.84473 -6.90918 -6.84473 -18.1611 0 -25.0879c6.85352 -6.9082 17.9648 -6.92676 24.8096 -0.0175781l194.12 178.196c1.5625 0.81543 3.05371 1.79492 4.36523 3.11816c3.50293 3.53613 5.18262 8.19629 5.11133 12.8203
c0 0.0458984 0.00878906 0.0908203 0.00878906 0.136719c0 0.0449219 -0.00878906 0.0810547 -0.00878906 0.126953c0.0712891 4.63281 -1.6084 9.28418 -5.11133 12.8379c-1.31152 1.31445 -2.80273 2.30273 -4.36523 3.11914l-194.12 178.205
c-6.84473 6.90918 -17.9561 6.90918 -24.8096 0c-6.84473 -6.93555 -6.84473 -18.0244 0 -24.9336l164.631 -151.041h-421.269c-9.91699 0 -17.9648 -8.11523 -17.9648 -18.124c0 -10.001 8.04785 -18.1426 17.9648 -18.1426z" />
    <glyph glyph-name="uniF10C" unicode="&#xf10c;" 
d="M349.668 183.4v0c31.6719 -11.1992 54.4434 -41.8154 54.4434 -77.9102v-55.001c0 -45.5488 -36.2236 -82.4893 -80.917 -82.4893h-134.861c-44.6855 0 -80.916 36.9404 -80.916 82.4893v55.001c0 36.1025 22.7783 66.7109 54.4502 77.9102
c-17.1611 23.7197 -27.4785 54.0391 -27.4785 87.0957c0 75.9502 54.3428 137.504 121.382 137.504c67.0332 0 121.375 -61.5537 121.375 -137.504c0 -33.0566 -10.3164 -63.3828 -27.4775 -87.0957zM161.361 270.496v0c0 -60.75 42.2656 -110.004 94.4092 -110.004
c52.1309 0 94.3965 49.2539 94.3965 110.004c0 60.7627 -42.2656 110.003 -94.3965 110.003c-52.1436 0 -94.4092 -49.2402 -94.4092 -110.003zM377.146 50.4893v0v55.001c0 28.6973 -21.5713 52.2314 -49.0693 54.7549
c-20.2158 -17.0439 -45.1777 -27.2539 -72.3057 -27.2539c-27.1338 0 -52.0967 10.21 -72.3125 27.2539c-27.498 -2.5166 -49.0693 -26.0576 -49.0693 -54.7549v-55.001c0 -30.3613 24.1543 -54.9883 53.9443 -54.9883h134.861c29.7979 0 53.9512 24.627 53.9512 54.9883z
M485.027 298.011v0c0 -53.668 -33.0068 -98.2266 -76.6279 -107.921c-5.0498 5.35645 -10.8691 9.81836 -17.168 13.627c1.6123 4.07031 3.13574 8.18164 4.46484 12.4102c34.8271 3.22363 62.3594 38.4453 62.3594 81.8838c0 45.5615 -30.1885 82.4883 -67.4307 82.4883
c-7.33594 0 -14.2686 -1.78711 -20.876 -4.42773c-5.7793 7.70703 -12.1787 14.8232 -19.1104 21.2441c12.1846 6.66992 25.6367 10.6846 39.9863 10.6846c52.1377 0 94.4023 -49.2402 94.4023 -109.989zM431.09 188.007v0c44.6865 0 80.9102 -36.9541 80.9102 -82.5166
c0 -45.5479 -36.2236 -82.502 -80.9102 -82.502v27.501c29.791 0 53.9375 24.627 53.9375 55.001c0 30.375 -24.1465 55.002 -53.9375 55.002h-4.95605c-3.58691 10.2852 -9.03516 19.5527 -16.0479 27.5146h21.0039zM103.607 190.09
c-43.6279 9.69434 -76.6348 54.2529 -76.6348 107.921c0 60.749 42.2646 109.989 94.4023 109.989c14.3496 0 27.8086 -4.01465 39.9863 -10.6846c-6.93164 -6.4209 -13.3311 -13.5371 -19.1104 -21.2441c-6.60742 2.64062 -13.54 4.42773 -20.876 4.42773
c-37.2422 0 -67.4307 -36.9268 -67.4307 -82.4883c0 -43.4385 27.5322 -78.6602 62.3594 -81.8838c1.3291 -4.22852 2.85254 -8.33984 4.46484 -12.4102c-6.29883 -3.80859 -12.1182 -8.27051 -17.1611 -13.627zM0 105.49c0 -45.5479 36.2236 -82.502 80.9102 -82.502
v27.501c-29.791 0 -53.9375 24.627 -53.9375 55.001c0 30.375 24.1465 55.002 53.9375 55.002h4.95605c3.58691 10.2852 9.03516 19.5527 16.0479 27.5146h-21.0039c-44.6865 0 -80.9102 -36.9541 -80.9102 -82.5166z" />
    <glyph glyph-name="uniF13E" unicode="&#xf13e;" 
d="M411.592 430.744v0c11.4883 11.5039 26.5605 17.248 41.6162 17.2559c15.0557 0 30.0957 -5.74414 41.5596 -17.2324c22.9766 -22.9756 22.9766 -60.2559 -0.0634766 -83.208l-155.544 -155.552l155.584 -155.592c22.9922 -22.96 22.9922 -60.208 0.0556641 -83.1357
c-11.4082 -11.4404 -26.3359 -17.2002 -41.3037 -17.2803h-0.624023c-14.9443 0.0800781 -29.8721 5.83203 -41.2637 17.2402l-155.608 155.616l-155.584 -155.593c-11.2959 -11.3115 -26.04 -17.0635 -40.8398 -17.2637h-1.57617
c-14.7842 0.200195 -29.4961 5.94434 -40.7363 17.2158c-11.376 11.3525 -17.1279 26.2002 -17.2637 41.0801v1.08008c0.135742 14.8721 5.8877 29.6963 17.2402 41.0156l155.607 155.616l-155.527 155.536c-11.4805 11.416 -17.2402 26.3838 -17.3203 41.3682v0.616211
c0.0878906 14.9355 5.82422 29.832 17.2002 41.1914c22.9678 23.0322 60.2402 23.0322 83.1914 0.0478516l155.608 -155.607z" />
  </font>
</defs>
</svg>
